<?xml version="1.0" encoding="UTF-8" standalone="no"?>
<!-- Created with Inkscape (http://www.inkscape.org/) -->

<svg
   width="130.74818mm"
   height="115.40569mm"
   viewBox="0 0 130.74818 115.40569"
   version="1.1"
   id="svg1"
   xml:space="preserve"
   xmlns:inkscape="http://www.inkscape.org/namespaces/inkscape"
   xmlns:sodipodi="http://sodipodi.sourceforge.net/DTD/sodipodi-0.dtd"
   xmlns="http://www.w3.org/2000/svg"
   xmlns:svg="http://www.w3.org/2000/svg"><sodipodi:namedview
     id="namedview1"
     pagecolor="#505050"
     bordercolor="#eeeeee"
     borderopacity="1"
     inkscape:showpageshadow="0"
     inkscape:pageopacity="0"
     inkscape:pagecheckerboard="0"
     inkscape:deskcolor="#505050"
     inkscape:document-units="mm" /><defs
     id="defs1" /><g
     inkscape:label="Warstwa 1"
     inkscape:groupmode="layer"
     id="layer1"
     transform="translate(-41.000258,-80.591426)"><path
       d="m 78.879691,195.69465 c -4.950143,-1.11484 -9.823683,-3.68476 -17.330208,-9.13858 -4.834659,-3.5126 -8.071008,-6.36575 -13.030728,-11.48783 l -4.299479,-4.44023 0.0121,-1.35958 c 0.0067,-0.74777 0.244573,-2.84787 0.52871,-4.66688 0.284138,-1.81901 0.825139,-6.04573 1.202225,-9.3927 0.958101,-8.50402 0.934499,-8.73921 -2.283527,-22.75417 -2.510383,-10.93308 -2.694194,-12.05983 -2.677613,-16.41365 0.04405,-11.56606 3.206715,-20.836264 8.852832,-25.948824 2.389559,-2.16375 5.322211,-4.2075 8.042669,-5.60491 9.003284,-4.62467 20.005898,-5.15012 30.977345,-1.47937 4.92756,1.64862 8.80206,3.82957 12.933703,7.28034 3.0201,2.52242 7.38016,8.05227 9.60362,12.180264 l 1.09258,2.02844 14.7981,-0.15146 14.79811,-0.15146 5.69518,2.22406 c 3.13235,1.22324 5.69557,2.28626 5.69604,2.36227 4.7e-4,0.076 -2.41016,1.19249 -5.35696,2.48106 l -5.35781,2.34285 -12.73583,0.13356 -12.73582,0.13357 0.56499,1.22184 c 0.47124,1.01912 0.56042,1.68276 0.53752,3.99996 -0.0247,2.49994 -0.12906,3.06957 -1.04209,5.68854 -0.97107,2.78547 -1.01511,3.05809 -1.02572,6.35 -0.01,2.96082 0.0797,3.7158 0.64071,5.42396 0.55599,1.69272 0.65245,2.48991 0.6563,5.42396 0.005,3.87202 0.17742,3.25617 -3.02155,10.79719 -1.2153,2.86485 -2.35765,6.15978 -3.2106,9.26042 -0.72823,2.64727 -1.62524,5.58713 -1.99334,6.53301 -0.89322,2.2952 -2.58115,5.12093 -3.47858,5.82342 -0.39976,0.31293 -1.6408,1.4426 -2.75788,2.51037 -2.45274,2.3445 -2.72166,3.20998 -1.8088,5.82142 0.89713,2.56644 1.07235,3.64346 0.77059,4.73635 -0.31446,1.1389 -1.70779,2.78039 -3.275743,3.85917 -2.29749,1.58071 -6.629,3.59905 -8.73625,4.0708 -2.91213,0.65193 -8.970252,0.81508 -11.244792,0.30282 z m 28.425549,-32.29331 c 2.30104,-1.09192 3.62586,-3.23702 4.03526,-6.53373 0.14763,-1.18878 0.10348,-1.30361 -0.87896,-2.28605 -0.58722,-0.58721 -1.48936,-1.1607 -2.08677,-1.32656 -2.57502,-0.71488 -10.184143,-0.11567 -12.679153,0.99847 -1.59932,0.71417 -3.85134,2.59553 -3.85134,3.21745 0,1.09901 3.93698,4.44679 6.53036,5.55304 1.647393,0.70272 2.076193,0.77015 4.939033,0.77669 2.28368,0.005 3.36761,-0.10322 3.99157,-0.39931 z m 7.74061,-30.08676 c 0.11773,-0.1819 0.28386,-1.58089 0.36918,-3.10886 0.12247,-2.19309 0.30391,-3.12177 0.86163,-4.41 1.28331,-2.96427 0.20916,-3.76702 -2.93697,-2.19488 -2.30611,1.15238 -3.62475,2.52223 -4.02201,4.17819 -0.17747,0.73975 -0.24702,1.68942 -0.15456,2.11038 0.22784,1.03735 1.56113,2.26903 3.31866,3.06574 1.65279,0.74924 2.25696,0.83393 2.56407,0.35943 z m -21.745343,-1.7862 c 3.64861,-0.93316 5.72845,-2.69331 6.09852,-5.16112 0.2354,-1.56972 -0.208,-2.73197 -1.53894,-4.03392 -2.1998,-2.15187 -6.10164,-3.29136 -9.33955,-2.7275 -3.169151,0.55188 -6.8554,2.6353 -7.525636,4.2534 -0.811069,1.95809 0.258371,4.41655 2.615077,6.01162 3.125605,2.11547 5.986579,2.60483 9.690529,1.65752 z M 71.72222,121.34218 c 1.198555,-1.38245 2.317039,-2.51263 2.485519,-2.51152 0.16848,0.001 1.080233,0.23833 2.026119,0.52715 0.945885,0.28881 1.852303,0.52603 2.014262,0.52714 0.178388,10e-4 0.38699,-0.96276 0.529167,-2.44537 l 0.234695,-2.4474 2.844271,-0.50561 c 1.564349,-0.27809 2.844111,-0.57575 2.843917,-0.66146 -1.95e-4,-0.0857 -0.818569,-1.04881 -1.818608,-2.14022 l -1.818254,-1.98437 1.355587,-1.54985 c 0.745573,-0.85242 1.617217,-1.87519 1.936987,-2.27283 l 0.5814,-0.72297 -3.826574,-2.58761 c -2.104616,-1.42318 -3.900625,-2.707424 -3.991132,-2.853864 -0.09051,-0.14645 -0.435885,-1.33262 -0.767509,-2.63594 -0.331624,-1.30332 -0.662713,-2.42943 -0.735755,-2.50248 -0.07304,-0.073 -1.349771,0.11541 -2.837177,0.41876 -1.487407,0.30336 -2.862786,0.55157 -3.056398,0.55157 -0.193612,0 -0.764599,-0.89297 -1.268859,-1.98438 -0.504261,-1.0914 -0.977861,-1.98437 -1.052444,-1.98437 -0.07458,0 -0.817554,0.9525 -1.651047,2.11666 -0.833493,1.16417 -1.602557,2.11667 -1.70903,2.11667 -0.106473,0 -0.989692,-0.35719 -1.962707,-0.79375 -0.973016,-0.43656 -1.863024,-0.79375 -1.977796,-0.79375 -0.114772,0 -0.412334,1.13109 -0.66125,2.51354 l -0.452573,2.51354 h -3.54742 c -2.39116,0 -3.547419,0.0943 -3.547419,0.28938 0,0.15915 0.373945,1.493024 0.830989,2.964154 0.457044,1.47112 0.724935,2.7123 0.595313,2.75817 -0.800926,0.28342 -4.930478,2.89873 -4.920809,3.11643 0.0065,0.14552 1.42045,0.69075 3.142192,1.21162 l 3.13044,0.94705 -0.0055,2.26044 -0.0055,2.26044 1.455501,0.2321 1.455502,0.2321 1.11375,3.175 c 0.612563,1.74625 1.16094,3.29406 1.218615,3.43958 0.05768,0.14552 0.969027,-0.30938 2.025227,-1.01088 l 1.920364,-1.27547 0.967241,0.68016 c 0.531984,0.37409 1.741149,1.26659 2.687034,1.98332 0.945885,0.71673 1.791933,1.31204 1.880106,1.32291 0.08817,0.0109 1.14095,-1.11134 2.339506,-2.49379 z m 80.31545,1.04797 c -0.79845,-1.69929 -1.39516,-3.18114 -1.32603,-3.293 0.16976,-0.27468 3.03372,-1.42645 3.18093,-1.27925 0.0642,0.0642 0.766,1.47878 1.5595,3.14345 l 1.44272,3.02666 -1.10599,0.56129 c -2.32046,1.17762 -2.13242,1.28586 -3.75113,-2.15915 z m 7.72946,-2.26059 c -1.99601,-1.90387 -3.62911,-3.60549 -3.62911,-3.78137 0,-0.17589 0.53001,-0.83995 1.17779,-1.4757 l 1.17778,-1.1559 3.81916,3.6805 3.81917,3.68051 -1.21669,1.25677 c -0.66918,0.69122 -1.28471,1.25677 -1.36784,1.25677 -0.0831,0 -1.78425,-1.55771 -3.78026,-3.46158 z m -1.24786,-10.82592 v -1.85208 h 6.61459 6.61458 v 1.85208 1.85208 h -6.61458 -6.61459 z m -2.45452,-5.23175 -1.24401,-1.263 3.77415,-3.767424 3.77415,-3.76743 1.3095,1.32949 1.30949,1.32948 -3.69385,3.700944 c -2.03162,2.03552 -3.75946,3.70094 -3.83964,3.70094 -0.0802,0 -0.70559,-0.56835 -1.38979,-1.263 z m -4.61608,-4.103414 c -0.9034,-0.55646 -1.33482,-0.98337 -1.24566,-1.23264 0.2764,-0.77267 3.42945,-5.56668 3.66289,-5.56919 0.41388,-0.004 2.80129,1.62541 2.80129,1.9124 0,0.35709 -3.44612,5.760504 -3.66673,5.749324 -0.0934,-0.005 -0.79166,-0.39168 -1.55179,-0.859894 z"
       id="path1" /></g></svg>
