<?xml version="1.0" encoding="UTF-8" standalone="no"?>
<!-- Created with Inkscape (http://www.inkscape.org/) -->

<svg
   width="116.36328mm"
   height="129.22957mm"
   viewBox="0 0 116.36328 129.22957"
   version="1.1"
   id="svg1"
   xml:space="preserve"
   xmlns:inkscape="http://www.inkscape.org/namespaces/inkscape"
   xmlns:sodipodi="http://sodipodi.sourceforge.net/DTD/sodipodi-0.dtd"
   xmlns="http://www.w3.org/2000/svg"
   xmlns:svg="http://www.w3.org/2000/svg"><sodipodi:namedview
     id="namedview1"
     pagecolor="#505050"
     bordercolor="#eeeeee"
     borderopacity="1"
     inkscape:showpageshadow="0"
     inkscape:pageopacity="0"
     inkscape:pagecheckerboard="0"
     inkscape:deskcolor="#505050"
     inkscape:document-units="mm" /><defs
     id="defs1" /><g
     inkscape:label="Warstwa 1"
     inkscape:groupmode="layer"
     id="layer1"
     transform="translate(-65.454273,-73.154369)"><path
       d="m 89.477968,196.39835 -23.944789,-5.98559 -0.0668,-52.56971 c -0.03674,-28.91334 0.013,-52.5697 0.110536,-52.5697 0.09753,0 10.876813,-2.75446 23.953943,-6.12102 13.077132,-3.36656 23.832552,-6.06507 23.900932,-5.99669 0.0684,0.0684 0.0943,29.17273 0.0577,64.67632 l -0.0667,64.55198 z m 0.87085,-62.56218 c 2.55135,-1.21915 5.08639,-5.09566 6.32309,-9.66907 0.53765,-1.98831 0.60645,-2.83159 0.59356,-7.27604 -0.0166,-5.73979 -0.37413,-7.5905 -2.19758,-11.37709 -3.0273,-6.28654 -8.04614,-7.83256 -12.05073,-3.71214 -5.28618,5.43908 -6.51533,18.07227 -2.57231,26.43813 2.42815,5.15177 6.27968,7.32807 9.90397,5.59621 z m 75.170932,-5.58056 c -0.64925,-1.38934 -1.12126,-2.62183 -1.04892,-2.73888 0.25482,-0.41231 2.63033,-1.18111 2.72957,-0.88339 0.0523,0.15692 0.56459,1.25616 1.13842,2.44275 0.57382,1.1866 1.04332,2.24393 1.04332,2.34963 0,0.17628 -2.20865,1.35596 -2.53868,1.35596 -0.0788,0 -0.67447,-1.13673 -1.32371,-2.52607 z m 6.43378,-1.91385 -3.10912,-3.11724 1.0682,-1.04307 1.0682,-1.04307 3.10062,3.10061 3.10062,3.10062 -1.0597,1.0597 -1.0597,1.0597 z m -47.55056,-9.18612 v -4.63021 h 16.59958 16.59958 l 4.56148,2.18281 c 2.50882,1.20055 4.56401,2.24453 4.56709,2.31996 0.003,0.0754 -1.87624,1.17676 -4.17627,2.4474 l -4.18187,2.31025 h -16.9848 -16.98479 z m 46.56667,0.39687 v -1.5875 h 5.42396 5.42395 v 1.5875 1.5875 h -5.42395 -5.42396 z m -2.05516,-4.30295 -1.11401,-1.13509 3.11349,-3.10538 3.11349,-3.10538 1.11401,1.13509 1.11401,1.13509 -3.11349,3.10538 -3.11349,3.10538 z m -3.76568,-3.40167 c -0.65484,-0.41647 -1.15628,-0.89108 -1.11432,-1.05469 0.0565,-0.22013 1.81181,-3.10159 2.8515,-4.68083 0.1157,-0.17576 2.49537,1.41756 2.48563,1.66426 -0.006,0.14658 -0.6904,1.29295 -1.52136,2.54749 l -1.51082,2.28098 z"
       id="path1" /></g></svg>
