<?xml version="1.0" encoding="UTF-8" standalone="no"?>
<!-- Created with Inkscape (http://www.inkscape.org/) -->

<svg
   width="270.93332mm"
   height="270.93332mm"
   viewBox="0 0 270.93332 270.93332"
   version="1.1"
   id="svg1"
   xml:space="preserve"
   inkscape:version="1.3 (0e150ed6c4, 2023-07-21)"
   sodipodi:docname="anubis.svg"
   xmlns:inkscape="http://www.inkscape.org/namespaces/inkscape"
   xmlns:sodipodi="http://sodipodi.sourceforge.net/DTD/sodipodi-0.dtd"
   xmlns:xlink="http://www.w3.org/1999/xlink"
   xmlns="http://www.w3.org/2000/svg"
   xmlns:svg="http://www.w3.org/2000/svg"><sodipodi:namedview
     id="namedview1"
     pagecolor="#ffffff"
     bordercolor="#000000"
     borderopacity="0.25"
     inkscape:showpageshadow="2"
     inkscape:pageopacity="0.0"
     inkscape:pagecheckerboard="0"
     inkscape:deskcolor="#d1d1d1"
     inkscape:document-units="mm"
     inkscape:zoom="0.70710678"
     inkscape:cx="388.20162"
     inkscape:cy="542.3509"
     inkscape:window-width="1920"
     inkscape:window-height="1027"
     inkscape:window-x="1912"
     inkscape:window-y="-3"
     inkscape:window-maximized="1"
     inkscape:current-layer="layer7" /><defs
     id="defs1"><filter
       style="color-interpolation-filters:sRGB"
       inkscape:label="Clean Edges"
       id="filter36"
       x="-0.016411678"
       y="-0.037323732"
       width="1.0328237"
       height="1.0746481"><feGaussianBlur
         stdDeviation="0.173313"
         result="blur"
         id="feGaussianBlur35" /><feComposite
         in="SourceGraphic"
         in2="blur"
         operator="in"
         result="composite1"
         id="feComposite35" /><feComposite
         in="composite1"
         in2="composite1"
         operator="in"
         result="composite2"
         id="feComposite36" /></filter><filter
       style="color-interpolation-filters:sRGB"
       inkscape:label="Clean Edges"
       id="filter38"
       x="-0.021850865"
       y="-0.033232963"
       width="1.0437017"
       height="1.0664659"><feGaussianBlur
         stdDeviation="0.173313"
         result="blur"
         id="feGaussianBlur36" /><feComposite
         in="SourceGraphic"
         in2="blur"
         operator="in"
         result="composite1"
         id="feComposite37" /><feComposite
         in="composite1"
         in2="composite1"
         operator="in"
         result="composite2"
         id="feComposite38" /></filter><filter
       style="color-interpolation-filters:sRGB"
       inkscape:label="Clean Edges"
       id="filter42"
       x="-0.048811755"
       y="-0.05106986"
       width="1.0976235"
       height="1.1021397"><feGaussianBlur
         stdDeviation="0.173313"
         result="blur"
         id="feGaussianBlur41" /><feComposite
         in="SourceGraphic"
         in2="blur"
         operator="in"
         result="composite1"
         id="feComposite41" /><feComposite
         in="composite1"
         in2="composite1"
         operator="in"
         result="composite2"
         id="feComposite42" /></filter><filter
       style="color-interpolation-filters:sRGB"
       inkscape:label="Clean Edges"
       id="filter44"
       x="-0.030496189"
       y="-0.031462733"
       width="1.0609924"
       height="1.0629295"><feGaussianBlur
         stdDeviation="0.173313"
         result="blur"
         id="feGaussianBlur42" /><feComposite
         in="SourceGraphic"
         in2="blur"
         operator="in"
         result="composite1"
         id="feComposite43" /><feComposite
         in="composite1"
         in2="composite1"
         operator="in"
         result="composite2"
         id="feComposite44" /></filter></defs><g
     inkscape:label="Layer 1"
     inkscape:groupmode="layer"
     id="layer1"
     transform="translate(30.569548,-13.03334)"
     style="display:inline"><image
       width="270.93332"
       height="270.93332"
       preserveAspectRatio="none"
       id="image1"
       x="-30.569548"
       y="13.03334"
       style="fill:#656597;fill-opacity:1" /><rect
       style="display:inline;opacity:1;fill:#232323;fill-opacity:1;fill-rule:evenodd;stroke:none;stroke-width:0.637795;stroke-linecap:round;stroke-linejoin:round;stroke-miterlimit:4.3;stroke-dasharray:none;stroke-dashoffset:3.40157;stroke-opacity:0.803922"
       id="rect65"
       width="270.93301"
       height="270.93301"
       x="-30.569548"
       y="13.03334" /></g><g
     inkscape:groupmode="layer"
     id="layer6"
     inkscape:label="level0"
     style="display:inline;fill:#1e1e1f;fill-opacity:1"><path
       id="path25"
       style="font-variation-settings:normal;display:inline;opacity:1;vector-effect:none;fill:#1e1e1f;fill-opacity:1;stroke:none;stroke-width:1;stroke-linecap:round;stroke-linejoin:round;stroke-miterlimit:4.3;stroke-dasharray:none;stroke-dashoffset:12.8563;stroke-opacity:1;-inkscape-stroke:none;stop-color:#000000;stop-opacity:1"
       d="m 147.39049,7.1142944 -28.8985,2.4086385 -9.14828,2.0877281 -3.9703,6.680729 -5.869406,5.884395 0.345198,0.485759 -5.62808,6.641972 0.725537,0.60203 -3.755326,7.873938 3.3538,1.936316 h 1.435055 l 0.533301,0.923458 -0.725021,1.301212 -0.241845,1.320333 v 6.15673 l -1.691887,0.485242 2.762106,11.73055 0.159163,0.91519 -0.144177,-0.311609 -16.088941,4.408516 -4.071069,3.786849 v 13.835332 l -1.188558,1.189074 v 9.322429 h -2.034501 v 27.111524 h 3.45767 v 2.85719 H 63.5894 l -3.707267,3.70727 v 10.28516 l 1.008724,1.0082 0.522449,0.0119 1.724959,1.72496 -7.056417,7.0559 -1.514119,-1.51412 0.04806,-0.709 -3.941878,-3.94188 -10.144084,10.14408 0.0093,0.65888 6.54482,6.5443 v 15.0921 h 18.953365 v 9.33173 l 19.993095,19.9931 5.605342,-5.60534 5.844605,-5.84512 -6.665226,-6.23838 v -24.02232 h -19.1425 l -6.450769,-6.45077 -1.567863,0.35502 -1.67535,-1.67587 6.972184,-6.97218 6.939628,7.28276 h 22.200195 v -3.43752 h 2.727487 l 0.34519,13.07052 14.32833,0.33021 v -1.08779 h 3.14193 v 1.16531 h 5.93865 l 0.27647,-13.45861 v -0.81597 h -6.49108 l 0.20723,7.86567 h -3.27991 l -1.38131,-0.971 h -1.58802 v -12.97337 h -6.07663 l -0.48369,0.93224 h -4.00492 l -0.93224,1.84537 h -2.830839 v -5.67201 h 2.375569 l 0.31729,-1.18391 h 2.20968 v -1.3596 h 2.55489 v 2.79673 h 7.72511 v -24.0776 h -9.83868 l -0.68368,1.20664 h -2.16783 l -0.37103,-1.38493 h -1.733746 v -5.58932 h 3.955316 v 2.96623 h 8.32507 v -0.98857 h 6.07922 v 1.29087 h 3.07578 v 1.04335 h 14.67249 V 94.105884 h 8.72815 v -1.119828 l 0.86661,-0.500745 4.2969,0.343131 -0.045,1.699638 -0.39481,1.472779 h -1.34255 v 7.306011 l -0.80564,1.44178 v 17.12453 l 7.96282,11.77034 0.75965,-1.70894 3.65972,1.43712 0.44855,-0.77721 h 1.03611 v -14.62391 l 0.44856,-4.83588 h 1.48828 v -5.7857 l 0.94981,-1.02939 h 4.47104 v 0.71882 l 9.55808,-0.28164 v -1.98386 h 1.62315 l 0.96635,1.24282 h 13.32736 l 8.97671,-9.166364 3.21117,-0.213941 5.3511,-10.021094 -1.44333,0.09405 13.38058,-7.326168 2.51613,-2.516126 2.11046,2.109949 -2.25309,2.253092 v 3.378089 h 9.27747 v -7.497734 l 0.39843,-3.96875 V 67.48477 H 223.3228 v -6.634737 l -0.92397,0.533817 h -1.68724 l -0.71933,-2.855123 -0.045,-0.773596 V 53.28822 h -4.1429 v -0.60203 h -5.07566 v 0.815454 h -5.55883 v 7.031095 h -4.55735 l -0.44855,-0.777213 h -4.41162 l 0.38913,-0.224793 V 56.05446 l -0.55242,-1.359607 v -5.651335 h -7.87239 l -0.41393,5.826001 -8.35918,9.069731 v 2.627229 l -2.51664,0.674378 -1.00149,-1.534273 -12.60182,-6.117456 V 46.752702 H 161.0971 V 29.56512 L 166.6906,12.338782 151.70599,7.3866292 Z M 135.72505,42.019657 h 16.14062 v 33.765898 h 11.18174 v 2.623096 l 11.13266,0.466638 0.5612,-1.977657 1.39165,-0.590145 v -2.197282 h 2.68562 l -0.17208,14.550016 -0.0196,10e-4 v 1.644344 l -0.0279,2.357479 0.0279,0.0057 v 6.604248 h -2.27738 v -1.261938 h -10.80657 l -1.69189,1.980757 h -3.69435 V 96.84575 h 2.24431 v -9.4387 h -1.2082 v -3.321244 h -11.22102 l -3.69434,1.884122 -2.79673,-0.291455 -0.37982,-1.382861 h -7.1174 v -9.214425 h -1.56218 v -2.424141 h 1.13275 v -4.902543 l -0.56017,-1.263489 v -2.71663 l 0.48524,-0.839742 v -4.722709 l -0.58808,-1.018026 v -3.077848 l 0.60151,-1.041797 v -4.62194 l -0.88986,-0.514181 v -2.592606 l 1.12241,-0.648023 z m -10.43296,2.525944 c 0.22234,-0.0052 0.44066,0.03843 0.63097,0.157614 0.0437,0.02735 0.0804,0.05305 0.11317,0.07751 0.17502,-0.0095 0.35913,0.01831 0.51987,0.08475 0.0537,0.02221 0.10416,0.05238 0.15606,0.07855 0.0454,0.03304 0.0934,0.06253 0.13591,0.09922 0.16591,0.143364 0.27817,0.333007 0.35657,0.535368 0.071,0.201468 0.12283,0.408375 0.14263,0.621668 0.0216,0.215016 0.0338,0.431555 0.0196,0.647505 -0.0106,0.101349 -0.0125,0.141444 -0.0341,0.242363 -0.0374,0.174683 -0.10393,0.341279 -0.20103,0.491443 -0.03,0.04055 -0.0575,0.08282 -0.0899,0.121439 -0.15009,0.178646 -0.34673,0.307249 -0.56689,0.381889 -0.14276,0.04254 -0.28784,0.07403 -0.43563,0.09302 -0.11893,0.01994 -0.23751,0.04143 -0.35502,0.06873 -0.13914,0.03198 -0.27795,0.06645 -0.41445,0.108521 -0.1791,0.05491 -0.35634,0.117919 -0.54105,0.151929 -0.0959,0.01426 -0.12854,0.02189 -0.22634,0.02429 -0.14617,0.0036 -0.2917,-0.01819 -0.43047,-0.06408 -0.032,-0.0123 -0.0647,-0.02294 -0.0961,-0.03669 -0.14744,-0.06458 -0.27894,-0.158453 -0.39326,-0.271302 -0.11177,-0.114677 -0.21497,-0.237391 -0.29507,-0.376721 -0.0652,-0.113486 -0.12602,-0.229331 -0.17622,-0.350366 -0.0347,-0.08199 -0.0677,-0.164573 -0.1049,-0.245463 -0.0361,-0.07994 -0.0778,-0.157088 -0.11473,-0.236678 -0.0787,-0.187472 -0.1263,-0.376535 -0.108,-0.581877 0.0203,-0.190688 0.0637,-0.377936 0.15761,-0.547253 0.0209,-0.03464 0.04,-0.07025 0.0625,-0.10387 0.10862,-0.162421 0.25468,-0.294991 0.4098,-0.411861 0.19606,-0.141467 0.3997,-0.271842 0.61856,-0.375688 0.18343,-0.08675 0.36958,-0.168861 0.56173,-0.234611 0.18821,-0.06315 0.37964,-0.11895 0.57774,-0.14056 0.0402,-0.0029 0.0801,-0.0078 0.1204,-0.0088 z m 65.67041,16.441891 0.88574,1.02216 0.0739,-0.04237 0.24856,2.185913 -1.00097,1.242818 -1.76114,0.174667 c -2.13597,2.951556 -3.36436,6.551683 -3.03237,10.296529 0.59862,0.303328 1.18625,0.571433 1.52601,1.217497 0.26114,0.860919 0.15167,1.587621 -0.0693,2.317171 -0.51698,0.374335 -1.09884,0.605953 -1.72599,0.737939 l 0.0909,3.686597 -1.27744,-0.03876 v -3.573426 c -0.41911,-0.302922 -0.76058,-0.67056 -1.04749,-1.083655 -0.35127,-0.576012 -0.0859,-1.152047 -0.0362,-1.728059 0.22979,-0.556554 0.59225,-0.872949 1.06402,-1.187525 0.19942,-3.656348 0.53519,-7.463249 3.16156,-11.032918 l -0.27647,-1.106909 V 62.13316 l 1.31207,-1.126546 z m -83.92924,9.518799 h 18.23661 l 0.30438,0.527616 h 1.03766 l 0.34623,1.290361 1.34359,0.360184 v 2.485637 h -1.69189 l -0.3545,7.088973 v 18.625218 h -9.49451 v 6.60012 h -13.83895 l -0.62787,0.62786 h -3.210652 -7.63571 l -1.764233,1.76372 v 4.99556 l 1.331701,1.3317 -2.26136,2.26136 -4.102592,-4.10207 v -7.691 h 1.864485 v -9.962704 h 1.62264 v -1.654163 l 1.104843,-0.637687 h 1.623156 l 2.934705,0.388607 9.593217,0.324528 2.04173,-1.179257 v -2.660819 l 0.51832,-2.913 0.65577,-1.961638 -0.45217,-2.583305 0.72812,-1.261938 h 0.93535 V 81.84255 l 0.76377,-0.204639 V 78.56213 l -0.91002,-0.243913 -0.27078,-1.011308 h -2.68408 V 73.34436 h 2.31304 z m -11.195182,2.975012 h 2.356962 v 3.825606 h -3.220475 v 1.087789 l 1.139465,0.252698 0.82889,0.407727 0.658874,1.883606 v 1.912028 l -1.060917,0.612882 v 2.273247 l -1.095023,0.632002 -0.569991,0.98702 -1.869137,1.079521 -2.541964,-0.05168 -0.220141,-0.822172 h -2.071708 v 0.75706 h -3.41788 l -0.517797,-4.214213 -0.713652,-3.354834 1.507402,-1.507918 h 1.216463 l 1.973006,-1.973523 v -1.287777 l 1.255737,-1.255737 0.941028,0.252181 v -1.029395 h 5.351611 z M 85.509509,129.60553 v 5.1e-4 c 0.180905,-0.007 0.361035,0.11695 0.451652,0.37259 0.0893,-0.0642 0.192122,-0.1063 0.302824,-0.12402 0.02844,-0.002 0.05676,-0.006 0.08527,-0.006 0.07293,-0.001 0.145498,0.0116 0.216008,0.0289 0.03126,0.007 0.06274,0.0111 0.09508,0.0109 0.09023,0.003 0.180388,0.006 0.270268,0.0155 0.06513,0.007 0.130344,0.0134 0.195854,0.009 0.122811,-0.006 0.245339,-0.0184 0.367936,-0.0274 0.140006,-0.01 0.280187,-0.019 0.420646,-0.0181 0.147485,0.001 0.294607,0.008 0.4408,0.0289 0.135692,0.0164 0.271576,0.0327 0.40721,0.0496 0.113336,0.0151 0.226414,0.0322 0.340031,0.045 0.07678,0.006 0.153597,0.008 0.230477,0 0.111026,-0.008 0.221435,-0.0196 0.33228,-0.03 0.107956,-0.009 0.216225,-0.0164 0.324528,-0.009 0.08908,0.006 0.17839,0.0142 0.26665,0.0279 0.0466,0.007 0.09302,0.0148 0.139526,0.0222 0.04764,-0.019 0.09417,-0.0341 0.133326,-0.0455 0.131725,-0.0358 0.267731,-0.0455 0.403593,-0.0475 0.08387,0.001 0.167437,0.005 0.251147,-5.2e-4 0.07861,-0.008 0.157028,-0.022 0.235128,-0.0341 0.0678,-0.0114 0.135869,-0.0181 0.204639,-0.0201 0.06146,-6e-4 0.122207,0.008 0.182417,0.0196 0.109297,0.0216 0.214376,0.0719 0.293006,0.15244 0.02956,0.0303 0.0528,0.0665 0.07906,0.0997 0.05395,0.0865 0.07902,0.18315 0.09095,0.28318 0.0067,0.0632 0.0051,0.12677 0.0026,0.19017 -0.0025,0.0543 -0.0069,0.10817 -0.01137,0.16227 -0.0059,0.0708 -0.01247,0.14137 -0.02067,0.21187 -0.01131,0.0927 -0.02229,0.18552 -0.03514,0.27802 -0.01306,0.0853 -0.02511,0.17176 -0.04961,0.25476 -0.0082,0.0277 -0.01538,0.0559 -0.02739,0.0822 -0.0046,0.01 -0.0105,0.0192 -0.0155,0.0289 -0.0035,0.0385 -0.0072,0.077 -0.0078,0.11575 0.0018,0.0958 0.01205,0.19153 0.01395,0.28733 0.0017,0.10725 0.0016,0.21417 0.0031,0.32142 0.0013,0.11349 0.0033,0.22707 0,0.34055 -0.0033,0.11114 -0.009,0.22224 -0.01395,0.33331 -0.0048,0.10712 -0.01067,0.21427 -0.01447,0.32143 -0.003,0.0814 -0.0058,0.16303 -0.0021,0.24443 0.0071,0.0931 0.02253,0.18532 0.03307,0.27802 0.01471,0.13539 0.02503,0.27101 0.03669,0.40669 0.0142,0.15112 0.02868,0.30235 0.04547,0.45321 0.01629,0.15182 0.03106,0.30349 0.04238,0.45578 0.01162,0.15756 0.02239,0.31531 0.02429,0.47336 0.0018,0.1277 0.0014,0.25573 0.001,0.38344 0.0015,0.11508 0.0043,0.23011 0.0047,0.3452 1e-4,0.10755 -8.04e-4,0.21498 -0.0052,0.32246 -0.0035,0.1173 3.4e-5,0.23575 -0.02997,0.35036 -0.0286,0.0851 -0.0373,0.12949 -0.09147,0.20619 -0.103926,0.1471 -0.244112,0.22755 -0.419613,0.25425 -0.02754,0.001 -0.05511,0.005 -0.08268,0.004 -0.106149,-0.002 -0.208871,-0.0299 -0.303341,-0.0775 -0.02298,-0.012 -0.05062,-0.0272 -0.07286,-0.0403 -0.07583,0.0225 -0.148319,0.0548 -0.223242,0.0801 -0.135027,0.0466 -0.272136,0.0871 -0.413411,0.11007 -0.131759,0.0215 -0.264391,0.039 -0.397909,0.045 -0.126297,0.006 -0.253124,0.009 -0.379305,-10e-4 -0.119466,-0.01 -0.238217,-0.0248 -0.357601,-0.0357 -0.171825,-0.0135 -0.344309,-0.0182 -0.516247,-0.03 -0.219155,-0.0154 -0.43797,-0.0339 -0.656808,-0.0532 -0.178595,-0.0156 -0.356925,-0.0333 -0.534334,-0.0594 -0.11987,-0.0179 -0.239204,-0.0396 -0.359668,-0.0532 -0.113614,-0.0112 -0.227776,-0.0179 -0.341581,-0.0269 -0.104603,-0.008 -0.209206,-0.0147 -0.314193,-0.0145 -0.112113,-0.002 -0.2241,-0.008 -0.33538,-0.0227 -0.07324,-0.008 -0.146085,-0.0188 -0.219625,-0.0238 -0.0574,-0.004 -0.115029,-0.008 -0.172599,-0.006 -0.05068,0.002 -0.101162,0.005 -0.151412,0.0119 -0.08791,0.0133 -0.176117,0.0303 -0.265617,0.0253 -0.08298,-0.01 -0.114874,-0.008 -0.195854,-0.0393 -0.139474,-0.0534 -0.249774,-0.15241 -0.323494,-0.28164 -0.01475,-0.0333 -0.03099,-0.0658 -0.04444,-0.0997 -0.02842,-0.0715 -0.03689,-0.15074 -0.04599,-0.22634 -0.0039,-0.072 -0.004,-0.14401 0.0021,-0.21601 0.0033,-0.0565 0.0035,-0.11289 5.17e-4,-0.16949 -0.0035,-0.078 -0.0086,-0.15608 -0.01809,-0.23358 -0.01509,-0.12434 -0.03351,-0.24835 -0.04496,-0.37311 -0.01377,-0.1489 -0.02451,-0.29778 -0.03411,-0.447 -0.0097,-0.1507 -0.02007,-0.30149 -0.02997,-0.45217 -0.0097,-0.1667 -0.01854,-0.33368 -0.01654,-0.50074 0.0022,-0.18558 0.0085,-0.37092 0.02222,-0.55604 0.01186,-0.17364 0.02629,-0.34699 0.04134,-0.52038 0.01184,-0.13603 0.02325,-0.27222 0.03514,-0.40824 0.0095,-0.1103 0.01909,-0.22064 0.02429,-0.33125 0.0022,-0.0626 0.0011,-0.12507 -0.0093,-0.18707 -0.01327,-0.099 -0.02457,-0.19805 -0.03307,-0.29765 -0.01069,-0.11749 -0.02284,-0.23494 -0.02584,-0.35295 -0.0031,-0.16342 0.0031,-0.32696 0.01602,-0.4899 0.01202,-0.16742 0.02489,-0.33466 0.03359,-0.50229 0.0042,-0.0909 0.0072,-0.18186 0.0083,-0.27285 0.0059,-0.50742 0.25933,-0.77017 0.51263,-0.77928 z m 15.234731,2.87682 c 0.0239,-2.3e-4 0.048,0.001 0.0718,0.003 0.17465,0.0141 0.34521,0.0678 0.50281,0.14573 0.0502,0.0142 0.0883,0.056 0.13643,0.0754 0.004,0.002 0.007,0.003 0.0109,0.005 0.0203,0.01 0.0409,0.0191 0.0615,0.0284 0.0525,0.0173 0.10338,0.0377 0.15038,0.0631 0.12092,0.0647 0.34975,0.10803 0.33125,0.24391 -0.002,0.0178 -0.006,0.035 -0.0103,0.0522 0.007,0.009 0.0178,0.0222 0.0243,0.0315 0.002,0.003 0.005,0.006 0.007,0.009 0.002,0.003 0.006,0.008 0.009,0.0119 0.0345,0.0516 0.0791,0.0924 0.12971,0.1726 0.13937,0.29437 0.1839,0.61523 0.1173,0.93535 -0.0412,0.19795 -0.0732,0.24101 -0.15709,0.42323 -0.17331,0.29693 -0.42881,0.52801 -0.75655,0.64285 -0.20787,0.0724 -0.2739,0.0625 -0.48731,0.076 -0.0752,-0.008 -0.1511,-0.008 -0.2253,-0.0232 -0.40338,-0.0814 -0.755237,-0.34036 -0.919328,-0.72295 -0.153357,-0.22801 -0.237066,-0.50017 -0.22841,-0.77825 0.01001,-0.32156 0.08508,-0.40175 0.220659,-0.67334 0.06944,-0.0804 0.131726,-0.16763 0.208256,-0.24133 0.03568,-0.0344 0.07437,-0.066 0.114723,-0.0961 -0.160488,-0.20701 -0.09846,-0.35376 0.47335,-0.37259 0.0716,-0.002 0.14337,-0.0107 0.21498,-0.0114 z m -11.444264,5.2e-4 c 0.0041,-0.004 -0.02731,0.0259 -0.0186,0.0176 0.0061,-0.005 0.01389,-0.009 0.01809,-0.016 2.61e-4,-4.2e-4 4.37e-4,-9.5e-4 5.17e-4,-0.002 z m -0.870748,1.40663 c 0.0012,0.008 0.0024,0.0151 0.0036,0.0227 0.0014,0.003 0.0045,0.0109 0.0041,0.008 -0.0012,-0.0102 -0.0048,-0.0204 -0.0078,-0.0305 z m -2.381767,2.73213 c 1.1e-4,0.003 -2.46e-4,0.007 0,0.01 1.45e-4,0.001 3.89e-4,-0.004 5.17e-4,-0.006 2.01e-4,-0.001 -5.7e-4,-0.003 -5.17e-4,-0.004 z m 5.262211,0.76792 c -0.0042,0 -0.01181,10e-4 -0.0186,0.003 0.0011,-5e-5 0.002,6e-4 0.0031,5.1e-4 0.02092,-0.002 0.02174,-0.003 0.0155,-0.003 z M 83.5179,148.47673 c 0.137058,4e-4 0.274811,0.0151 0.40721,0.0517 0.02667,0.007 0.05264,0.0168 0.07906,0.0248 0.100987,0.0352 0.195877,0.0851 0.283187,0.14676 0.0505,0.0357 0.06736,0.0514 0.114205,0.0909 0.09722,0.0858 0.184208,0.18248 0.265616,0.28318 0.06042,0.0779 0.112866,0.16197 0.153996,0.25167 0.02826,0.0616 0.03313,0.0802 0.05529,0.14366 0.04763,0.15883 0.05772,0.32407 0.05684,0.48886 -0.0019,0.0681 -0.0084,0.13629 -0.0186,0.2036 0.04399,0.17523 0.04512,0.35724 0.0088,0.53434 -0.008,0.0387 -0.01976,0.0769 -0.02946,0.11524 -0.06142,0.20094 -0.162965,0.3863 -0.296623,0.54828 -0.02813,0.0341 -0.05896,0.0662 -0.08837,0.0992 -0.153387,0.15991 -0.331709,0.29502 -0.526583,0.40049 -0.03991,0.0216 -0.08139,0.0407 -0.121957,0.061 -0.202599,0.0932 -0.418344,0.15449 -0.639754,0.18139 -0.04183,0.005 -0.08413,0.007 -0.12609,0.0114 -0.158459,0.009 -0.317814,0.002 -0.473873,-0.0279 -0.09375,-0.018 -0.119907,-0.0281 -0.209807,-0.0548 -0.166527,-0.0568 -0.324061,-0.14134 -0.456303,-0.25838 -0.02844,-0.0251 -0.05439,-0.0532 -0.08165,-0.0796 -0.129417,-0.1402 -0.23001,-0.30365 -0.29869,-0.48162 -0.01442,-0.0373 -0.02621,-0.0758 -0.03927,-0.11369 -0.05819,-0.19235 -0.08452,-0.39259 -0.08682,-0.59325 -4e-4,-0.0393 0.0011,-0.0785 0.0016,-0.11782 0.0069,-0.19136 0.0329,-0.38245 0.08527,-0.56689 0.01049,-0.0369 0.02308,-0.0735 0.03462,-0.11007 0.04936,-0.13851 0.112696,-0.27203 0.192236,-0.39584 0.04907,-0.0764 0.0645,-0.0929 0.11989,-0.16382 0.07934,-0.0951 0.170299,-0.1797 0.270267,-0.2527 0.04834,-0.0353 0.07342,-0.0505 0.117823,-0.078 0.06399,-0.058 0.13506,-0.10789 0.21394,-0.14572 0.08289,-0.0397 0.106337,-0.0417 0.193787,-0.0656 0.03888,-0.008 0.078,-0.0127 0.117305,-0.016 0.08725,-0.0256 0.175543,-0.047 0.264584,-0.0656 0.150887,-0.0316 0.304527,-0.0451 0.45837,-0.0491 z m 0.551904,44.50064 v 0.002 c 0.06105,-10e-4 0.122088,0.007 0.182418,0.0165 0.07522,0.0202 0.148161,0.0434 0.21549,0.0822 5.36e-4,3.1e-4 9.51e-4,7.5e-4 0.0016,0.001 3.43e-4,1.6e-4 0.0014,4.3e-4 0.0016,5.2e-4 2.4e-5,1e-5 0.0027,0.001 0.0021,0.001 0.04044,0.0147 0.07527,0.0288 0.120406,0.0517 0.04885,0.0266 0.09628,0.0556 0.14056,0.0894 0.04212,0.0324 0.08248,0.0666 0.120406,0.10387 0.007,0.006 0.01448,0.0128 0.01292,0.0114 -0.0392,-0.0322 0.09421,0.0782 0.077,0.0692 0.0048,0.005 0.005,0.006 0.0083,0.009 -0.0063,-0.006 -0.0069,-0.006 0.0067,0.0103 0.0066,0.006 0.01356,0.0123 0.02015,0.0186 10e-4,0.001 0.0019,0.002 0.0031,0.003 2.02e-4,1.8e-4 8.55e-4,8.7e-4 0.001,0.001 0.0056,0.005 0.0095,0.009 0.02997,0.0248 -0.0088,-0.008 0.01088,0.01 0.01757,0.016 0.02056,0.0152 0.01694,0.0136 0.01033,0.009 -0.01163,-0.007 -0.03613,-0.0227 0.02274,0.0217 0.03511,0.0348 0.02492,0.0248 0.02067,0.0207 0.02626,0.0227 0.06817,0.0588 0.05271,0.0496 0.0096,0.01 0.02025,0.0219 0.03049,0.0331 7.56e-4,4.5e-4 9.44e-4,0.001 0.0021,0.002 0.0024,0.003 0.0089,0.01 0.0067,0.007 h 5.17e-4 c -6.8e-4,-7e-4 -0.05934,-0.0599 0.0098,0.0103 0.0197,0.0211 0.04022,0.0442 0.06098,0.0682 0.0039,0.003 0.0075,0.007 0.01137,0.01 0.02541,0.0228 0.05248,0.0483 0.07803,0.0755 0.0083,0.002 0.0166,0.003 0.0248,0.006 0.036,0.01 0.05898,0.0172 0.09354,0.0279 0.0089,0.003 0.01754,0.006 0.02636,0.009 0.004,4.6e-4 0.0067,9.2e-4 0.0083,10e-4 0.01172,0.001 0.02344,0.003 0.03514,0.005 0.0705,0.0136 0.140545,0.0313 0.207222,0.0584 2.1e-4,1.1e-4 0.02396,0.01 0.04444,0.0181 0.0034,3.4e-4 0.0072,1.5e-4 0.0186,0.002 0.05252,0.005 0.104899,0.0128 0.156579,0.0238 0.04017,0.009 0.07996,0.0184 0.119373,0.03 0.02523,0.006 0.03305,0.008 0.03462,0.008 4.65e-4,1e-4 0.004,0.001 0.0041,0.001 0.03643,0.006 0.07588,0.0136 0.109554,0.0248 0.03989,0.0129 0.07983,0.0262 0.118339,0.0429 0.03501,0.0151 0.05875,0.0258 0.100769,0.0475 -0.03154,-0.0154 0.0446,0.022 0.02842,0.015 0.02293,0.0106 0.07136,0.0332 0.100769,0.0522 0.05628,0.0356 0.09925,0.0681 0.147795,0.11265 0.01239,0.008 0.02521,0.0146 0.03721,0.0227 0.01031,0.007 0.02871,0.0196 0.04909,0.0331 0.04964,0.0333 0.09769,0.0695 0.14211,0.10956 0.0092,0.009 0.01819,0.0163 0.02739,0.0253 0.0016,0.001 0.0019,0.003 0.0047,0.005 0.001,8.5e-4 0.0021,0.002 0.0031,0.003 0.01647,0.0134 0.03333,0.0266 0.04909,0.0408 -0.01681,-0.014 0.01448,0.0127 0.03462,0.0305 0.006,0.004 0.02054,0.0131 0.02222,0.0139 0.0048,0.003 0.0097,0.005 0.01447,0.008 0.04368,0.0239 0.08682,0.0483 0.129191,0.0744 0.03065,0.0195 0.06249,0.0369 0.0925,0.0574 0.06113,0.0418 0.120736,0.0862 0.173116,0.13901 0.01717,0.0168 0.03416,0.0342 0.05168,0.0506 -0.01526,-0.0122 0.02569,0.022 0.02739,0.0222 0.02894,0.0221 0.05813,0.0436 0.0863,0.0667 0.0121,0.01 0.0098,0.008 0.01602,0.0129 0.13068,-0.0626 0.256733,-0.0925 0.37207,-0.0946 0.565652,-0.0103 0.876155,0.64924 0.248564,1.41077 -0.07111,0.0863 -0.153198,0.16241 -0.238228,0.23461 -0.02324,0.024 -0.05191,0.0419 -0.0801,0.0605 -0.01283,0.0224 -0.02513,0.045 -0.03927,0.0667 -0.03905,0.0609 -0.0719,0.12608 -0.119372,0.18138 -0.04408,0.0535 -0.08713,0.10238 -0.13746,0.15038 -0.04754,0.0448 -0.09636,0.0882 -0.149345,0.12661 -0.07422,0.052 -0.151441,0.0994 -0.234611,0.13591 -0.03467,0.0155 -0.06728,0.0349 -0.100769,0.0527 -0.0082,0.004 -0.01659,0.008 -0.0248,0.0119 -0.08966,0.0774 -0.19,0.12717 -0.301791,0.1695 -0.17133,0.0517 -0.358909,0.054 -0.526583,-0.015 -0.05047,-0.0208 -0.09635,-0.0507 -0.144694,-0.076 -0.0032,-0.003 -0.0056,-0.005 -0.0088,-0.008 -0.05676,-0.006 -0.113107,-0.0153 -0.168465,-0.031 -0.107329,-0.0315 -0.211985,-0.0712 -0.310575,-0.12454 -0.0904,-0.0482 -0.179016,-0.0997 -0.264583,-0.15606 -0.113036,-0.0763 -0.221775,-0.15816 -0.324012,-0.24856 -0.106497,-0.0928 -0.212902,-0.18629 -0.315743,-0.28319 -0.106492,-0.10023 -0.211033,-0.20226 -0.314192,-0.30593 -0.08997,-0.0892 -0.180868,-0.17695 -0.270268,-0.26665 -0.08902,-0.0903 -0.17697,-0.18185 -0.262,-0.27595 -0.05767,-0.0624 -0.116499,-0.12405 -0.174149,-0.18655 -0.03828,-0.0425 -0.0758,-0.0852 -0.115755,-0.12609 -0.06009,-0.0604 -0.123025,-0.11825 -0.184485,-0.17725 -0.103198,-0.10187 -0.203342,-0.20738 -0.295589,-0.31936 -0.09253,-0.11896 -0.18561,-0.24656 -0.22686,-0.39429 -0.01812,-0.0649 -0.04104,-0.13114 -0.03824,-0.19844 0.005,-0.12002 0.04104,-0.23665 0.0615,-0.35502 0.0013,-0.001 0.0023,-0.003 0.0036,-0.005 0.0024,-0.0314 0.006,-0.063 0.01189,-0.0941 0.01679,-0.0743 0.03712,-0.14665 0.07286,-0.21445 0.0071,-0.0134 0.01492,-0.0263 0.02274,-0.0393 4.42e-4,-7.3e-4 0.0011,-0.001 0.0015,-0.002 0.0064,-0.0106 0.01226,-0.0214 0.0186,-0.032 0.0021,-0.003 0.0093,-0.0143 0.0072,-0.0103 0.0078,-0.0119 0.01597,-0.0235 0.02429,-0.0351 4.52e-4,-6.3e-4 0.004,-0.005 0.0052,-0.007 0.0038,-0.005 0.01,-0.013 0.01705,-0.0222 4.06e-4,-6.6e-4 0.0012,-0.001 0.0015,-0.002 0.01384,-0.018 0.02248,-0.0296 0.0067,-0.0103 5.49e-4,-8.5e-4 9.51e-4,-0.002 0.0016,-0.003 0.0093,-0.0145 0.0178,-0.029 0.02791,-0.0429 0.02318,-0.0317 0.09818,-0.12745 0.167948,-0.17777 0.04661,-0.0493 0.09787,-0.094 0.156063,-0.12971 0.04992,-0.0313 0.102073,-0.0598 0.157613,-0.0801 0.01094,-0.004 0.0084,-0.003 0.01395,-0.005 0.0034,-5.3e-4 0.02588,-0.008 0.07028,-0.0217 -0.005,0.001 -0.01004,0.003 -0.01499,0.004 -0.0092,0.003 0.03647,-0.0105 0.02739,-0.008 0.0015,-4.3e-4 0.0031,-6.5e-4 0.0047,-0.001 0.11339,-0.023 0.09931,-0.0202 0.07286,-0.015 0.01315,-0.002 0.06332,-0.008 0.09457,-0.0109 0.0088,-9e-4 0.01281,-10e-4 0.0155,-10e-4 0.01086,-0.002 0.02165,-0.004 0.03256,-0.006 0.02031,-0.003 0.04063,-0.004 0.06098,-0.005 z m -0.116789,0.016 c -0.004,4.9e-4 -0.0079,9.2e-4 -0.01188,0.002 h -5.17e-4 c -6.95e-4,2.4e-4 -0.0014,3.1e-4 -0.0021,5.2e-4 -0.0031,9.7e-4 -0.0062,0.001 -0.0093,0.002 0.0079,-0.001 0.01584,-0.003 0.02377,-0.004 z m 0.98702,0.42013 c 0.01104,0.008 0.01128,0.009 0.01602,0.0129 -7.17e-4,-5.3e-4 -0.0032,-0.004 -0.0036,-0.004 h -5.16e-4 c -0.0066,-0.005 -0.01589,-0.0112 -0.01189,-0.009 z m -1.931665,0.92139 c 0.0087,0.035 0.01868,0.0698 0.03101,0.10387 0.01913,0.0525 0.04489,0.10204 0.07183,0.15089 -0.05185,-0.0956 -0.130575,-0.20739 -0.102836,-0.25476 z m 0.102836,0.25476 c 0.02849,0.0525 -0.0021,0.0694 0.05633,0.14005 0.04723,0.0571 0.10446,0.10358 0.167432,0.13901 -0.03067,-0.0285 -0.06111,-0.0574 -0.08888,-0.0889 -0.04676,-0.0551 -0.09212,-0.11146 -0.127641,-0.17466 -0.0028,-0.005 -0.0045,-0.0105 -0.0072,-0.0155 z" /><path
       id="path26"
       style="font-variation-settings:normal;display:inline;opacity:1;vector-effect:none;fill:#1e1e1f;fill-opacity:1;stroke:none;stroke-width:1;stroke-linecap:round;stroke-linejoin:round;stroke-miterlimit:4.3;stroke-dasharray:none;stroke-dashoffset:12.8563;stroke-opacity:1;-inkscape-stroke:none;stop-color:#000000;stop-opacity:1"
       d="m 223.10938,76.63925 -14.39757,6.56394 -1.82986,4.525305 5.00641,-1.398364 1.20819,1.359607 0.0476,1.050582 2.23138,2.231388 0.65629,0.01964 4.55735,4.078304 h 1.72599 v 5.923148 h -1.45521 v 7.83467 h -6.93962 v 2.48563 h 3.59099 v 10.64276 h -8.01036 l -0.65578,-0.29145 h -2.72748 v -1.10691 h -27.37921 v 15.96388 h -0.62166 v 6.20583 h 0.50643 v 11.07891 h -6.56239 l -0.22428,0.83767 h -3.95531 v -0.78238 h -7.10396 v -4.05143 h -13.32994 v 3.83129 h -7.49515 v -6.52312 h 7.3241 v 0.65939 h 13.50099 v -5.17694 h 1.14721 v -6.08387 h -2.19728 c 0.0313,-1.0404 -0.90126,-0.85207 -1.46503,-1.13998 l 0.14587,-1.35331 -3.28381,-1.41116 -0.79669,-0.34236 0.10179,-0.80663 -7.08794,-11.1559 -0.45113,1.603 h -3.38687 l -0.7028,-0.18862 h -6.34794 v 2.03243 h -4.10104 v 9.07749 h 1.80661 v 3.83129 h -3.66231 l -0.6103,2.40347 v 4.03696 l 0.65939,1.49707 v 2.40708 h 1.44901 v 6.62286 h -9.9782 v 11.41584 h 10.04693 v 6.56445 h -14.15573 v 3.34037 h -2.79621 v 10.36887 h -3.21737 l -8.62531,8.6248 0.31057,1.33997 -2.77502,2.83084 -0.25012,-0.25012 -5.532993,-5.53299 -11.321273,11.32179 4.662248,4.66173 -10.238135,10.23813 5.92677,5.92677 -2.355412,2.3549 11.607044,11.60756 h 3.278352 l 18.834509,18.83451 h 29.42043 l 0.75499,1.30793 h 1.33894 l 1.05368,-0.60824 h 1.95285 l 2.63705,2.82877 h 1.75545 v -3.58221 h 1.57613 l -0.12609,0.47026 h 3.52175 v -0.42065 h 5.00641 l 6.93963,-6.93963 v -1.02939 l 5.97328,-5.63221 v -11.26392 h 3.00343 v -8.23464 H 177.245 v -15.96388 h 8.14833 v -5.92315 l 6.59909,-6.66833 h 24.11739 l -0.0346,-1.1653 1.51929,-0.42737 v -22.66425 l 0.65061,-1.92288 v -22.9495 l -0.29094,-7.50704 h -11.65252 v -4.05918 h -1.31207 v -6.0787 h 1.17409 v -1.58285 h 2.86546 l 1.89911,0.20412 v 1.35909 h 11.63495 l 11.55485,-11.5843 v -16.17886 h -2.18075 V 95.25 h 1.93322 V 83.427466 l -8.48217,-2.185913 -2.14095,-0.135909 -1.27745,-1.106909 z m -76.90487,54.42097 h 2.13786 v 1.30431 h 0.97668 v 1.74436 l 4.17997,1.79458 0.009,0.41558 -4.30131,-1.82597 v 1.62316 l -1.42576,0.38189 h -6.22546 v -5.35575 h 4.639 z m 55.02403,13.46171 h 7.0435 v 6.97218 h -1.20819 v 11.22516 l -0.3452,1.06815 v 7.26364 h 0.75964 v 2.99051 h 1.82986 v 8.4677 H 189.2484 l -0.0693,0.0424 v -1.95957 h -0.93741 l -2.86029,-2.86029 v -14.58516 h 19.88716 v -11.74967 h -4.04007 z m -30.8901,15.98248 c 0.0513,2.5e-4 0.10275,0.002 0.154,0.004 0.0855,0.005 0.17089,0.0147 0.25579,0.0258 0.0563,0.008 0.11239,0.0172 0.16899,0.0222 0.053,0.002 0.10606,0.001 0.15916,0.002 0.0899,0.004 0.1798,0.0201 0.262,0.0579 0.0202,0.009 0.0392,0.0206 0.0589,0.031 0.10364,0.0645 0.18234,0.15931 0.22944,0.27182 0.009,0.0226 0.0168,0.0462 0.0248,0.0692 0.0423,0.15895 0.0424,0.32451 0.0444,0.48783 0,0.1607 -0.004,0.32093 -0.006,0.48162 -9e-4,0.11841 0.003,0.23685 0.01,0.35502 0.005,0.0871 0.0158,0.17417 0.0248,0.26097 0.012,0.10569 0.0107,0.21172 0.007,0.31781 -0.004,0.0806 -0.005,0.16114 -0.007,0.24184 1e-4,0.0654 -0.01,0.12987 -0.0248,0.19327 -0.016,0.0567 -0.0365,0.1138 -0.0693,0.1633 -0.0112,0.017 -0.0241,0.0327 -0.0362,0.0491 -0.0219,0.0207 -0.0418,0.0435 -0.0656,0.062 -0.0825,0.0642 -0.17683,0.0825 -0.2775,0.0925 -0.0899,0.009 -0.18049,0.0106 -0.27079,0.0109 -0.1084,-7.9e-4 -0.21665,-0.001 -0.32504,-5.2e-4 -0.11953,0.002 -0.23849,0.009 -0.3576,0.0191 -0.13647,0.0121 -0.27262,0.0277 -0.40877,0.0429 -0.13535,0.0153 -0.27083,0.0314 -0.40617,0.047 -0.12601,0.015 -0.25254,0.0276 -0.37931,0.0336 -0.1149,0.007 -0.22888,-0.007 -0.34209,-0.0248 -0.0868,-0.0151 -0.1732,-0.0323 -0.2589,-0.0527 -0.0641,-0.0161 -0.12792,-0.0347 -0.19172,-0.0522 -0.0639,-0.0155 -0.12617,-0.0353 -0.18707,-0.0599 -0.0982,-0.045 -0.18318,-0.11297 -0.23668,-0.20877 -0.0234,-0.042 -0.0348,-0.0711 -0.0424,-0.10077 v -5.1e-4 c -0.004,-0.004 -0.008,-0.008 -0.0114,-0.0124 -0.0179,-0.0216 -0.0304,-0.0476 -0.0455,-0.0713 -0.0579,-0.11368 -0.0684,-0.23913 -0.0724,-0.36432 -0.002,-0.12282 0.004,-0.24572 0.008,-0.36845 0.004,-0.12142 0.009,-0.24293 0.014,-0.36432 0.004,-0.0971 0.009,-0.19384 0.0119,-0.29094 0.002,-0.0811 -0.002,-0.1623 -0.002,-0.2434 -0.001,-0.0887 0.009,-0.17698 0.0217,-0.26458 0.007,-0.0425 0.0142,-0.085 0.0202,-0.12764 0.004,-0.0281 0.005,-0.0565 0.008,-0.0847 0.006,-0.0639 0.0202,-0.1272 0.0491,-0.185 0.0101,-0.0202 0.0231,-0.0389 0.0346,-0.0584 0.0232,-0.0336 0.0518,-0.0617 0.0822,-0.0873 0.0827,-0.21649 0.26488,-0.29103 0.42013,-0.22324 0.0831,-0.0215 0.16905,-0.0262 0.25476,-0.0269 0.0858,0 0.17165,0.005 0.25735,0.009 0.10884,0.004 0.21774,0.003 0.3266,5.2e-4 0.10381,-0.001 0.20723,-0.008 0.31057,-0.0181 0.10749,-0.0109 0.21501,-0.0222 0.32246,-0.0336 0.10985,-0.0123 0.22033,-0.0193 0.33073,-0.0243 0.0513,-0.002 0.1022,-0.003 0.15348,-0.003 z m -0.0599,1.21698 c 0.002,-0.002 -0.005,10e-4 -0.007,0.002 -0.009,0.003 -0.0163,0.008 -0.0238,0.014 0.0106,-0.004 0.0228,-0.009 0.031,-0.016 z m -1.01648,0.34572 c -0.004,0 -0.007,0.003 -0.01,0.004 -0.003,0.002 -0.007,0.004 -0.01,0.006 0.006,-0.002 0.0119,-0.005 0.0176,-0.007 0.001,0 0.003,-0.003 0.002,-0.003 z m 0.26768,0.27285 c -0.001,-1e-5 -0.002,4.1e-4 -0.004,0.001 -2.3e-4,0.004 -3.8e-4,0.009 -5.2e-4,0.0134 0.007,-0.004 0.012,-0.008 0.009,-0.0124 -0.001,-0.001 -0.003,-0.002 -0.005,-0.002 z m -0.003,0.0842 c 0.002,0.0161 0.004,0.0319 0.0119,0.0455 -0.002,-0.0166 -0.006,-0.0314 -0.0119,-0.0455 z m -28.61944,2.3518 h 6.54275 v 2.54713 h 14.23324 v 1.45004 h 6.01565 v -1.62781 h 4.01578 v 2.37609 h 6.61613 v 12.96665 h 2.13166 l 3.36155,3.36155 0.003,-5.2e-4 v 3.55069 l -5.4777,5.83737 h -17.57361 v -9.28316 l -2.03708,-2.85512 h -11.84269 v -3.18482 h -3.31453 v -8.48733 h -3.63853 v -6.088 h 0.96428 z m -19.37505,26.13174 h 12.56048 l 0.28318,1.05626 h 3.27887 l 0.20826,-0.77669 h 3.31453 l 0.31057,0.44286 h 3.66283 l 6.60321,6.60322 v 7.61297 h 12.01529 v 8.15712 h 0.89762 v 16.60468 h -1.65726 v 1.8836 h -1.76062 v -1.8836 l -12.18789,-0.48576 v -2.83497 h -7.38869 v -1.84537 h -3.72898 v 8.66201 H 123.374 v 3.3016 h -3.17655 v -1.16478 h -3.79202 l -0.2129,0.79581 h -2.72748 v -6.21512 l -0.27647,-0.40773 v -6.50606 h -5.80017 l -2.53886,-1.31517 -6.295739,6.29574 -6.962882,-6.96288 4.95887,-4.95939 0.23151,-0.86196 1.595769,-1.59577 0.598413,-0.0424 9.089369,-9.08885 -0.40308,-0.40308 0.43977,0.21549 -1.27744,-1.12654 0.20722,-1.26194 2.51251,-2.40089 0.90537,0.90537 1.60765,-0.0543 2.74247,-2.74247 -0.0341,-0.75757 1.48467,-1.37873 0.52606,0.15761 3.47886,-3.47834 0.077,-0.94361 z"
       sodipodi:nodetypes="ccccccccccccccccccccccccccccccccccccccccccccccccccccccccccccccccccccccccccccccccccccccccccccccccccccccccccccccccccccccccccccccccccccccccccccccccccccccccccccccccccccccccccccccccccccccccccccccccccccccccccccccccccsscccscsccccccccccccccccccccccccccccccccccccccccccccccccccccccccccccccccccccccccccccccccccccccccccccccccccccccccccccccccccc" /></g><g
     inkscape:groupmode="layer"
     id="layer5"
     inkscape:label="level1"
     style="display:inline;fill:#232325;fill-opacity:1"><path
       style="display:inline;opacity:1;fill:#232325;fill-opacity:1;fill-rule:evenodd;stroke:none;stroke-width:1;stroke-linecap:round;stroke-linejoin:round;stroke-miterlimit:4.3;stroke-dashoffset:3.40157;stroke-opacity:1"
       d="m 47.218957,176.91855 h 18.540552 l -0.02339,1.56242 5.47852,-0.28063 v -0.81568 h 1.864413 V 172.2381 H 51.154941 v -11.76911 l -4.281244,1.476 z"
       id="path21"
       sodipodi:nodetypes="ccccccccccc" /><path
       style="font-variation-settings:normal;opacity:1;vector-effect:none;fill:#232325;fill-opacity:1;stroke:none;stroke-width:1;stroke-linecap:round;stroke-linejoin:round;stroke-miterlimit:4.3;stroke-dasharray:none;stroke-dashoffset:12.8563;stroke-opacity:1;-inkscape-stroke:none;stop-color:#000000;stop-opacity:1"
       d="m 105.41418,144.0654 v -2.87014 h -2.53902 v 1.387 h -2.12399 l -0.41504,0.43945 v 0.7141 h -1.977505 v -14.57039 l -13.246409,-11.59223 1.415994,-1.35954 2.212489,2.21249 2.28497,-2.28497 -1.277905,-1.2779 -0.289912,-1.13524 v -3.46064 l 1.611304,-2.19723 h 6.957899 l 4.174745,0.19226 0.4427,-0.76679 h 11.26122 v 8.57429 h -3.12495 v 1.08488 h -8.25183 v -3.06239 H 98.354199 V 119.97 h 1.708961 l 0.556,0.96302 0.59144,0.27292 h 1.14744 l 1.09862,-1.24967 h 9.8143 v 24.2064 z"
       id="path22" /><path
       style="font-variation-settings:normal;opacity:1;vector-effect:none;fill:#232325;fill-opacity:1;stroke:none;stroke-width:1;stroke-linecap:round;stroke-linejoin:round;stroke-miterlimit:4.3;stroke-dasharray:none;stroke-dashoffset:12.8563;stroke-opacity:1;-inkscape-stroke:none;stop-color:#000000;stop-opacity:1"
       d="m 76.050248,126.74642 -14.742674,15.21633 -1.398309,-1.05844 v -10.78835 l 3.366301,-3.31127 z"
       id="path23"
       inkscape:label="path23" /><path
       style="font-variation-settings:normal;opacity:1;vector-effect:none;fill:#232325;fill-opacity:1;stroke:none;stroke-width:1;stroke-linecap:round;stroke-linejoin:round;stroke-miterlimit:4.3;stroke-dasharray:none;stroke-dashoffset:12.8563;stroke-opacity:1;-inkscape-stroke:none;stop-color:#000000;stop-opacity:1"
       d="m 126.25714,97.339657 h 8.12975 v -3.185986 l 1.97153,0.07016 -0.0234,-9.788829 -0.38567,0.02339 V 75.18882 h -1.6113 v -2.334558 h -6.32315 v 2.265896 h -1.53806 z"
       id="path24"
       sodipodi:nodetypes="ccccccccccccc" /><path
       style="font-variation-settings:normal;display:inline;opacity:1;vector-effect:none;fill:#232325;fill-opacity:1;stroke:none;stroke-width:1;stroke-linecap:round;stroke-linejoin:round;stroke-miterlimit:4.3;stroke-dasharray:none;stroke-dashoffset:12.8563;stroke-opacity:1;-inkscape-stroke:none;stop-color:#000000;stop-opacity:1"
       d="m 111.92771,188.21298 6.93968,6.21228 3.03474,-3.40676 h 12.15321 v 0.99047 h 3.93598 V 191.203 h 3.27999 v 0.57292 h 4.1595 l 6.23697,6.23697 v 7.78419 h 12.17095 v 8.15722 l 0.79288,0.21245 v 16.2082 h -1.59129 v 2.23843 h -1.6113 v -2.00498 h -9.32603 l -3.17378,-0.46691 v -2.8564 h -7.03114 v -2.07364 h -4.05267 v 8.66534 h -14.47732 v 3.06239 h -3.27143 v -0.74157 h -3.80854 v 0.8789 h -2.44137 l -0.41503,-6.56423 -0.48303,-0.12943 v -6.54466 h -6.05984 l -1.92868,-1.46941 -6.193447,6.19345 -1.435332,-1.43533 h -0.944314 l -0.568447,-0.98458 -1.579959,12.38253 2.270474,0.15106 18.525065,18.52506 h 30.06389 l 0.34721,1.29578 h 1.2641 l 3.44233,-0.4733 2.24606,2.55428 h 1.83102 v -3.28211 l 1.63572,-0.20599 v 0.52184 h 3.36909 l 0.17133,-0.63943 5.65263,0.23752 4.49212,-5.39695 2.00192,-1.56553 v -1.26341 l 5.61515,-5.34202 v -11.24708 h 2.83199 v -8.06384 h -2.67994 v -16.27325 h 8.15078 v -5.99104 l 2.34671,-2.3467 -6.91603,-6.91602 -2.3467,2.3467 h -17.73566 v -9.45585 l -1.72631,-2.4082 H 146.8003 v -3.34041 h -3.21093 v -8.48697 h -3.59073 v -24.49534 h 5.635 v -10.4679 h -4.03956 v -5.34012 h 4.13785 v -9.14728 h -2.20968 l -0.9322,-0.25247 h -6.11113 v 1.84499 h -4.24672 v 9.06959 h 1.82988 v 3.82594 h -3.38356 l -0.86315,3.14619 v 3.90362 l 0.89768,3.43751 h 1.31199 v 6.33123 18.13482 h -14.26013 v 3.41944 h -2.6855 l -0.23386,10.31883 z"
       id="path55"
       sodipodi:nodetypes="ccccccccccccccccccccccccccccccccccccccccccccccccccccccccccccccccccccccccccccccccccccccccccccccccccccccccccc"
       inkscape:label="path55" /><path
       style="font-variation-settings:normal;opacity:1;vector-effect:none;fill:#232325;fill-opacity:1;stroke:none;stroke-width:1.14946;stroke-linecap:round;stroke-linejoin:round;stroke-miterlimit:4.3;stroke-dasharray:none;stroke-dashoffset:12.8563;stroke-opacity:1;-inkscape-stroke:none;stop-color:#000000;stop-opacity:1"
       d="m 187.73858,199.80765 4.89415,-4.97023 -8.44227,-5.82821 -3.3651,3.82456 z"
       id="path56"
       sodipodi:nodetypes="ccccc" /><path
       style="font-variation-settings:normal;opacity:1;vector-effect:none;fill:#232325;fill-opacity:1;stroke:none;stroke-width:0.857758;stroke-linecap:round;stroke-linejoin:round;stroke-miterlimit:4.3;stroke-dasharray:none;stroke-dashoffset:12.8563;stroke-opacity:1;-inkscape-stroke:none;stop-color:#000000;stop-opacity:1"
       d="m 145.59383,136.42466 v 10.54559 h 1.47335 v -10.48733 z"
       id="path61" /><path
       style="font-variation-settings:normal;opacity:1;vector-effect:none;fill:#232325;fill-opacity:1;stroke:none;stroke-width:0.711764;stroke-linecap:round;stroke-linejoin:round;stroke-miterlimit:4.3;stroke-dasharray:none;stroke-dashoffset:12.8563;stroke-opacity:1;-inkscape-stroke:none;stop-color:#000000;stop-opacity:1"
       d="m 145.59383,122.04222 v 9.44644 h 1.13253 v -9.39426 z"
       id="path63" /><path
       style="font-variation-settings:normal;display:inline;opacity:1;vector-effect:none;fill:#232325;fill-opacity:1;stroke:none;stroke-width:1;stroke-linecap:round;stroke-linejoin:round;stroke-miterlimit:4.3;stroke-dasharray:none;stroke-dashoffset:12.8563;stroke-opacity:1;-inkscape-stroke:none;stop-color:#000000;stop-opacity:1"
       d="m 136.15378,84.400376 v 9.775383 h 7.29645 v -9.775383 z"
       id="path67" /></g><g
     inkscape:groupmode="layer"
     id="layer4"
     inkscape:label="level2"
     style="display:inline;opacity:1;fill:#2a2a2d;fill-opacity:1"><path
       style="display:inline;opacity:1;fill:#2a2a2d;fill-opacity:1;fill-rule:evenodd;stroke:none;stroke-width:1;stroke-linecap:round;stroke-linejoin:round;stroke-miterlimit:4.3;stroke-dashoffset:3.40157;stroke-opacity:1"
       d="m 80.188318,187.52661 -6.527065,6.52706 14.278189,14.01062 -0.01725,0.96133 -9.849937,9.70774 5.852187,5.66121 -2.088836,2.20428 11.698169,11.87754 h 3.038303 l -0.189894,-11.98274 -4.864415,-4.86441 16.833881,-16.34879 -1.78673,-1.78673 2.98166,-2.98166 0.80759,0.84536 h 1.57094 l 2.78529,-2.78529 -0.0232,-0.80759 1.29959,-1.29959 h 1.03093 l 1.9938,-2.20598 -6.75204,-6.11114 2.48773,-2.8366 -2.88021,-0.13229 -8.80148,8.80147 0.37251,1.39022 -2.7393,2.7393 -3.086319,-3.15647 -5.611716,5.77541 -4.259936,-4.11961 -1.041178,1.04118 h -0.89984 L 82.814307,194.665 v -0.89228 l 0.843154,-0.90162 0.594173,0.10224 1.090326,0.99678 1.229564,-0.062 z"
       id="path19"
       sodipodi:nodetypes="ccccccccccccccccccccccccccccccccccccccc" /><path
       style="font-variation-settings:normal;display:inline;opacity:1;vector-effect:none;fill:#2a2a2d;fill-opacity:1;stroke:none;stroke-width:1;stroke-linecap:round;stroke-linejoin:round;stroke-miterlimit:4.3;stroke-dasharray:none;stroke-dashoffset:12.8563;stroke-opacity:1;-inkscape-stroke:none;stop-color:#000000;stop-opacity:1"
       d="m 91.98583,200.82186 5.697053,-5.86187 -3.053862,-2.8551 -5.804144,5.63486 z"
       id="path60"
       sodipodi:nodetypes="ccccc" /><path
       style="font-variation-settings:normal;opacity:1;vector-effect:none;fill:#2a2a2d;fill-opacity:1;stroke:none;stroke-width:1;stroke-linecap:round;stroke-linejoin:round;stroke-miterlimit:4.3;stroke-dasharray:none;stroke-dashoffset:12.8563;stroke-opacity:1;-inkscape-stroke:none;stop-color:#000000;stop-opacity:1"
       d="m 75.163659,87.657641 9.386547,0.01169 -0.218693,-4.205195 -0.738146,-2.754794 1.513153,-1.513152 h 1.056018 l 1.984311,-1.984312 v -1.25953 l 0.466384,-0.124966 0.381294,-0.726461 h 1.46482 v -1.043686 l 0.711015,-0.04677 -0.116931,-8.257584 -10.579281,2.838745 -4.180081,4.18008 v 13.64496 z"
       id="path53"
       sodipodi:nodetypes="cccccccccccccccccc" /><path
       style="font-variation-settings:normal;opacity:1;vector-effect:none;fill:#2a2a2d;fill-opacity:1;stroke:none;stroke-width:1;stroke-linecap:round;stroke-linejoin:round;stroke-miterlimit:4.3;stroke-dasharray:none;stroke-dashoffset:12.8563;stroke-opacity:1;-inkscape-stroke:none;stop-color:#000000;stop-opacity:1"
       d="m 126.27034,100.87594 8.05651,-0.0661 v 17.69195 h -14.42849 v -1.09862 h -3.05171 v -1.41447 l -0.12207,-8.58293 V 100.869 h 9.49693 z"
       id="path54"
       sodipodi:nodetypes="ccccccccccc" /><path
       style="font-variation-settings:normal;display:inline;opacity:1;vector-effect:none;fill:#2a2a2d;fill-opacity:1;stroke:none;stroke-width:1;stroke-linecap:round;stroke-linejoin:round;stroke-miterlimit:4.3;stroke-dasharray:none;stroke-dashoffset:12.8563;stroke-opacity:1;-inkscape-stroke:none;stop-color:#000000;stop-opacity:1"
       d="m 112.14116,188.22627 6.56345,5.83738 3.11235,-3.24095 -6.80416,-5.87431 z"
       id="path64"
       sodipodi:nodetypes="ccccc" /><path
       style="font-variation-settings:normal;opacity:1;vector-effect:none;fill:#2a2a2d;fill-opacity:1;stroke:none;stroke-width:1;stroke-linecap:round;stroke-linejoin:round;stroke-miterlimit:4.3;stroke-dasharray:none;stroke-dashoffset:12.8563;stroke-opacity:1;-inkscape-stroke:none;stop-color:#000000;stop-opacity:1"
       d="m 90.896256,65.829722 v 8.292753 l 7.181443,-0.461248 v -9.987235 z"
       id="path65" /><path
       style="font-variation-settings:normal;opacity:1;vector-effect:none;fill:#2a2a2d;fill-opacity:1;stroke:none;stroke-width:1;stroke-linecap:round;stroke-linejoin:round;stroke-miterlimit:4.3;stroke-dasharray:none;stroke-dashoffset:12.8563;stroke-opacity:1;-inkscape-stroke:none;stop-color:#000000;stop-opacity:1"
       d="m 126.18971,97.333586 h 8.51628 V 100.922 h -8.48321 v -3.489194 z"
       id="path69" /><path
       style="font-variation-settings:normal;opacity:1;vector-effect:none;fill:#2a2a2d;fill-opacity:1;stroke:none;stroke-width:1;stroke-linecap:round;stroke-linejoin:round;stroke-miterlimit:4.3;stroke-dasharray:none;stroke-dashoffset:12.8563;stroke-opacity:1;-inkscape-stroke:none;stop-color:#000000;stop-opacity:1"
       d="m 113.17725,116.12215 v -8.51628 h 3.58841 l 0.11576,8.41706 -3.60495,0.0661 z"
       id="path71"
       sodipodi:nodetypes="cccccc" /></g><g
     inkscape:groupmode="layer"
     id="layer3"
     inkscape:label="level3"
     style="display:inline;fill:#2e2e31;fill-opacity:1"><path
       style="opacity:1;fill:#2e2e31;fill-opacity:1;fill-rule:evenodd;stroke:none;stroke-width:1;stroke-linecap:round;stroke-linejoin:round;stroke-miterlimit:4.3;stroke-dashoffset:3.40157;stroke-opacity:1"
       d="m 54.059023,147.90929 -3.482827,-3.48283 -10.556377,10.55638 7.099443,6.93868 v 1.14341 h 4.132836 v -2.42762 l -5.083976,-5.08398 z"
       id="path16" /><path
       style="opacity:1;fill:#2e2e31;fill-opacity:1;fill-rule:evenodd;stroke:none;stroke-width:1;stroke-linecap:round;stroke-linejoin:round;stroke-miterlimit:4.3;stroke-dashoffset:3.40157;stroke-opacity:1"
       d="m 65.872399,178.19985 h 5.29777 v -0.8377 h 5.102461 v 7.9375 l 7.482795,7.4828 -0.993331,0.99333 0.0046,0.77971 3.013564,3.01357 0.888415,0.23805 1.164815,-1.16482 4.275026,4.07659 -5.556633,6.2181 -20.489492,-20.82023 z"
       id="path17"
       sodipodi:nodetypes="ccccccccccccccc" /><path
       style="opacity:1;fill:#2e2e31;fill-opacity:1;fill-rule:evenodd;stroke:none;stroke-width:1;stroke-linecap:round;stroke-linejoin:round;stroke-miterlimit:4.3;stroke-dashoffset:3.40157;stroke-opacity:1"
       d="m 116.6885,107.31486 h 4.19915 v -2.12857 h 6.44521 v -4.33953 h -10.7176 z"
       id="path18" /><path
       style="font-variation-settings:normal;opacity:1;vector-effect:none;fill:#2e2e31;fill-opacity:1;stroke:none;stroke-width:1;stroke-linecap:round;stroke-linejoin:round;stroke-miterlimit:4.3;stroke-dasharray:none;stroke-dashoffset:12.8563;stroke-opacity:1;-inkscape-stroke:none;stop-color:#000000;stop-opacity:1"
       d="m 108.04037,205.69958 v -0.91323 l -1.61627,-1.61626 h -1.03262 l -9.769858,9.76986 2.228321,2.22832 0.737751,-0.73775 0.261683,0.26169 z"
       id="path52" /></g><g
     inkscape:groupmode="layer"
     id="layer2"
     inkscape:label="walls"
     style="display:inline;stroke:#a1a1aa;stroke-width:0.7;stroke-dasharray:none;stroke-opacity:1"><path
       style="opacity:1;fill:none;fill-rule:evenodd;stroke:#a1a1aa;stroke-width:0.7;stroke-linecap:round;stroke-linejoin:round;stroke-miterlimit:4.3;stroke-dasharray:none;stroke-dashoffset:3.40157;stroke-opacity:1"
       d="m 60.487448,129.19195 -2.256121,2.28564 -4.24407,-4.01708 v -7.62096 h 1.848035 v -10.02722 l 1.35595,-0.29841 0.268171,-1.34121 h 0.991061 v -0.69848 h 3.567816 l 1.422466,0.4427 h 9.42413 l 1.807229,-0.76402 v -2.78336 l 0.488934,-1.4068 v -1.52813 l 0.466381,-0.0885 0.09328,-0.60994 0.233191,-0.53123 v -1.131344 h -0.273998 v -2.47583 l 2.38718,-2.061388 V 91.804737 L 76.020831,90.31268 h -1.894676 v -3.82021 h 2.170478 v -2.846385 h 18.433729 l 0.361445,0.288573 0.513022,-0.03935 0.96774,1.567479 h 0.897784 v 2.643071 h -1.550718 v 6.00102 l -0.23319,1.593712 v 18.11236 h -9.56636 v 6.63369 H 71.90729 v 0.87884 h -4.302368 v -0.37383 h -6.925765 l -1.805043,1.80504 v 4.38617 l 0.300964,0.46566 z"
       id="path1"
       inkscape:label="path1"
       transform="translate(30.569548,-13.03334)" /><path
       style="opacity:1;fill:none;fill-rule:evenodd;stroke:#a1a1aa;stroke-width:0.7;stroke-linecap:round;stroke-linejoin:round;stroke-miterlimit:4.3;stroke-dasharray:none;stroke-dashoffset:3.40157;stroke-opacity:1"
       d="m 67.588563,86.558383 v 3.803923 h -3.334628 v 1.121502 h 0.886124 l 1.142634,0.583705 0.419743,1.436309 0.32647,0.341043 v 1.875727 l -1.114944,1.114943 v 2.046251 l -0.630272,0.168878 -0.761587,0.657489 -0.151572,0.721437 -0.571317,0.57131 -0.291489,0.29149 h -0.886127 l -0.101182,0.17526 h -2.35898 l -0.475305,-0.27442 v -0.5013 H 57.58468 v 0.73455 h -3.591139 v -2.984114 l -0.606295,-2.898852 -0.291489,-1.731441 1.5274,-1.462543 h 0.652933 v -0.268899 h 0.478042 l 1.785003,-1.785003 v -1.310606 l 1.094901,-1.062474 h 0.956083 l 0.227915,-0.850582 h 5.380323 v -0.526701 z"
       id="path2"
       transform="translate(30.569548,-13.03334)" /><path
       style="opacity:1;fill:none;fill-opacity:1;fill-rule:evenodd;stroke:#a1a1aa;stroke-width:0.7;stroke-linecap:round;stroke-linejoin:round;stroke-miterlimit:4.3;stroke-dasharray:none;stroke-dashoffset:3.40157;stroke-opacity:1"
       d="m 164.50911,230.39189 v -16.50671 h -0.708 v -8.11602 h -12.18243 v -7.56672 l -6.42614,-6.42614 h -3.07078 l -0.95213,-0.48141 h -3.61323 v 0.72783 h -3.3935 v -1.04368 h -12.32891 l -5.20012,5.7128 -0.3662,-0.30212 -1.66014,1.56553 0.36621,0.43945 -3.12724,3.12724 -1.48695,-0.13351 -1.01317,-1.01317 -3.07536,3.07536 1.85545,1.85544 -9.193323,9.19332 -0.646009,0.17337 -1.748632,1.74863 0.186156,0.50353 -5.248942,4.77898 4.898758,4.89876 -0.08926,0.93764 0.92772,-0.26092 1.336651,1.33665 6.362811,-6.36282 2.23691,1.49687 h 5.81045 v 6.71528 h 0.56152 v 6.89382 h 2.73433 v -1.02995 h 3.83295 v 0.97502 h 3.34468 v -3.35078 h 14.43901 v -8.67838 h 3.85736 v 1.99124 h 7.1288 v 3.19972 h 12.4754 v 2.05991 h 1.70895 v -2.12857 z"
       id="path14"
       inkscape:label="path14" /><path
       style="opacity:1;fill:none;fill-rule:evenodd;stroke:#a1a1aa;stroke-width:0.7;stroke-linecap:round;stroke-linejoin:round;stroke-miterlimit:4.3;stroke-dasharray:none;stroke-dashoffset:3.40157;stroke-opacity:1"
       d="m 96.897784,57.778149 v 3.3715 l -2.21778,0.222602 -1.121259,0.672444 -0.832697,-1.933858 h -0.502917 v -1.006351 l 1.384824,-1.384823 z"
       id="path3"
       transform="translate(30.569548,-13.03334)" /><path
       style="opacity:1;fill:none;fill-rule:evenodd;stroke:#a1a1aa;stroke-width:0.7;stroke-linecap:round;stroke-linejoin:round;stroke-miterlimit:4.3;stroke-dasharray:none;stroke-dashoffset:3.40157;stroke-opacity:1"
       d="m 155.48242,93.234373 -0.0474,3.743923 h -1.11301 l -0.0632,-3.774966 c -0.56728,-0.146171 -0.92459,-0.624005 -1.06091,-1.12409 -0.17942,-0.681705 -0.0953,-0.994781 -0.0992,-1.669731 0.14862,-0.575889 0.20224,-1.13996 1.16722,-1.597167 0.15576,-3.56105 0.15342,-6.738593 3.23037,-10.867641 -0.26045,-0.76977 -0.42298,-1.56402 -0.21078,-2.451952 0.25635,-0.640559 0.66922,-1.096136 1.25317,-1.349529 0.59119,-0.208599 1.15845,-0.237755 1.69013,0 0.62067,0.295216 1.07849,0.720706 1.25317,1.372717 0.18224,0.617848 0.14484,1.210978 0,1.79937 -0.26735,0.487409 -0.67676,0.809091 -1.12126,1.089824 -0.5235,0.173609 -1.06174,0.307923 -1.67364,0.24579 -2.58679,3.184937 -2.96598,6.651305 -2.9736,10.169303 0.69136,0.297403 1.21746,0.712847 1.49226,1.30779 0.12536,0.525828 0.27871,1.011662 0,2.114725 -0.42502,0.61119 -0.83063,0.90659 -1.72333,0.991634 z"
       id="path4"
       sodipodi:nodetypes="cccccccccccccccccccc"
       transform="translate(30.569548,-13.03334)" /><path
       style="opacity:1;fill:none;fill-rule:evenodd;stroke:#a1a1aa;stroke-width:0.7;stroke-linecap:round;stroke-linejoin:round;stroke-miterlimit:4.3;stroke-dasharray:none;stroke-dashoffset:3.40157;stroke-opacity:1"
       d="m 193.81109,89.785143 c -1.71683,0.157478 -2.16698,1.462265 -2.21142,2.323106 9.1e-4,1.498064 1.08076,2.238711 2.03272,2.211418 1.44196,-0.04346 2.32813,-1.194027 2.34544,-2.122069 0.008,-0.920434 -0.65518,-2.260347 -2.16674,-2.412455 z"
       id="path5"
       sodipodi:nodetypes="ccccc"
       transform="translate(30.569548,-13.03334)" /><path
       style="opacity:1;fill:none;fill-rule:evenodd;stroke:#a1a1aa;stroke-width:0.7;stroke-linecap:round;stroke-linejoin:round;stroke-miterlimit:4.3;stroke-dasharray:none;stroke-dashoffset:3.40157;stroke-opacity:1"
       d="m 70.407057,145.20331 c -1.245702,0.11427 -1.572324,1.06099 -1.604569,1.68561 6.61e-4,1.08697 0.784181,1.62437 1.474907,1.60456 1.046262,-0.0316 1.689252,-0.86636 1.701812,-1.53974 0.0058,-0.66784 -0.475388,-1.64006 -1.57215,-1.75043 z"
       id="path5-9"
       sodipodi:nodetypes="ccccc"
       transform="translate(30.569548,-13.03334)" /><path
       style="opacity:1;fill:none;fill-rule:evenodd;stroke:#a1a1aa;stroke-width:0.7;stroke-linecap:round;stroke-linejoin:round;stroke-miterlimit:4.3;stroke-dasharray:none;stroke-dashoffset:3.40157;stroke-opacity:1"
       d="m 52.784854,161.40342 c -1.453554,0.13334 -1.834673,1.23804 -1.872298,1.96686 7.7e-4,1.26834 0.915025,1.89541 1.721001,1.8723 1.220835,-0.0368 1.97111,-1.01092 1.985766,-1.79665 0.0068,-0.77929 -0.554708,-1.91372 -1.834469,-2.04251 z"
       id="path5-4"
       sodipodi:nodetypes="ccccc"
       transform="translate(30.569548,-13.03334)" /><path
       style="opacity:1;fill:none;fill-rule:evenodd;stroke:#a1a1aa;stroke-width:0.7;stroke-linecap:round;stroke-linejoin:round;stroke-miterlimit:4.3;stroke-dasharray:none;stroke-dashoffset:3.40157;stroke-opacity:1"
       d="m 137.07373,173.79665 h 4.15478 v 2.79219 h -4.13245 z"
       id="path6"
       transform="translate(30.569548,-13.03334)" /><path
       style="opacity:1;fill:none;fill-rule:evenodd;stroke:#a1a1aa;stroke-width:0.7;stroke-linecap:round;stroke-linejoin:round;stroke-miterlimit:4.3;stroke-dasharray:none;stroke-dashoffset:3.40157;stroke-opacity:1"
       d="m 110.9917,144.20128 v 5.2927 h 6.62262 l 0.90905,-0.52484 0.0702,-1.70143 4.37311,1.88316 -0.0708,0.15892 -4.30217,-1.7405 1e-5,-1.99076 h -1.02604 v -1.30514 z"
       id="path7"
       sodipodi:nodetypes="cccccccccccc"
       transform="translate(30.569548,-13.03334)" /><path
       style="opacity:1;fill:none;fill-rule:evenodd;stroke:#a1a1aa;stroke-width:0.7;stroke-linecap:round;stroke-linejoin:round;stroke-miterlimit:4.3;stroke-dasharray:none;stroke-dashoffset:3.40157;stroke-opacity:1"
       d="m 176.96683,187.01761 h 1.71395 v 8.60474 h -20.18266 v -1.9741 h -0.67625 l -2.96152,-2.96153 v -14.52341 h 19.79789 v -11.84124 h -3.97288 v -6.93233 h 6.94909 v 6.99791 h -1.30587 v 11.93449 l -0.24985,0.76734 v 7.07661 h 0.79285 z"
       id="path8"
       transform="translate(30.569548,-13.03334)" /><path
       style="opacity:1;fill:none;fill-rule:evenodd;stroke:#a1a1aa;stroke-width:0.7;stroke-linecap:round;stroke-linejoin:round;stroke-miterlimit:4.3;stroke-dasharray:none;stroke-dashoffset:3.40157;stroke-opacity:1"
       d="m 109.34917,178.13933 h 0.98935 v -0.36173 h 6.49669 v 2.63413 h 14.3455 v 1.34489 h 6.00202 v -1.45619 h 3.9244 v 2.32805 h 6.67808 v 12.84602 h 2.4239 l 3.13859,3.1386 v 3.68788 l -5.46355,6.01027 h -17.61034 v -9.35858 l -1.99518,-2.84746 h -12.05351 v -3.15354 h -3.19888 v -8.42923 h -3.6628 z"
       id="path9"
       transform="translate(30.569548,-13.03334)" /><path
       style="opacity:1;fill:none;fill-rule:evenodd;stroke:#a1a1aa;stroke-width:0.7;stroke-linecap:round;stroke-linejoin:round;stroke-miterlimit:4.3;stroke-dasharray:none;stroke-dashoffset:3.40157;stroke-opacity:1"
       d="m 109.35681,159.94896 v 6.82515 h 7.51942 v -4.00995 h 13.35428 v 4.00995 h 6.9579 v 0.7965 h 4.05267 v -0.81024 h 6.78701 v -11.16468 l -0.45682,0.1224 v -6.13732 h 0.48123 v -16.21832 h 27.42939 v 1.34672 h 2.73433 l 2.02634,0.24719 h 6.64053 v -10.71151 h -3.53999 v -2.40322 h 6.81142 v -7.71227 h 1.52141 v -5.90398 h -1.69178 l -7.31955,-6.3895 -0.36253,-1.32062 -1.67452,-0.912789 -2.00251,0.485519 -0.27621,1.67021 -4.60924,8.09854 h -3.00378 l -8.80417,9.15699 H 148.2938 l -0.67326,-1.17497 h -1.64 v 2.07804 h -9.62648 v -0.59282 h -4.31577 l -1.10484,1.12642 v 5.71947 h -1.51915 v 4.83582 h -0.48337 v 14.63176 l -1.54815,0.71243 -3.74218,-1.19715 -0.1175,0.29805 4.25283,1.4938 -0.0468,1.47009 0.15537,0.39813 h 1.01852 v 0.738 h 2.39957 v 6.03992 h -1.13936 v 5.34481 h -13.34502 v -0.88365 z"
       id="path10"
       transform="translate(30.569548,-13.03334)"
       sodipodi:nodetypes="ccccccccccccccccccccccccccccccccccccccccccccccccccccccccccccccccc" /><path
       style="opacity:1;fill:none;fill-rule:evenodd;stroke:#a1a1aa;stroke-width:0.7;stroke-linecap:round;stroke-linejoin:round;stroke-miterlimit:4.3;stroke-dasharray:none;stroke-dashoffset:3.40157;stroke-opacity:1"
       d="m 129.44845,110.01243 v 3.0491 h 3.64251 l 1.96907,-1.96908 h 10.68477 l 0.44884,1.39616 h 1.63999 l 0.52063,-0.90176 v -3.02128 h -0.33073 V 93.825056 l 0.32799,-1.456571 v -5.28283 h -2.73674 v 2.495595 h -1.1221 l -0.77683,0.747707 v 0.96134 l -2.71031,0.534075 h -4.8164 v -0.281604 h -3.71156 v -2.631541 h -11.22101 v -28.21446 h 0.27551 v -3.81622 h -0.44884 v -1.854703 h -15.98561 v 1.573099 l -0.23826,0.889196 -0.6691,0.386305 v 3.375821 h 0.66567 v 5.127136 l -0.41097,0.711821 v 3.240347 l 0.35901,0.621824 v 4.845177 l -0.49922,0.86469 v 2.825295 l 0.54964,0.549645 v 5.499987 h -1.03424 v 2.680094 h 1.50189 v 9.163947 h 7.38806 v 1.106992 l 0.54486,0.544867 h 1.76839 l 4.85093,-2.127676 h 10.61679 v 3.388959 h 1.39831 v 9.8173 z"
       id="path11"
       transform="translate(30.569548,-13.03334)" /><path
       style="opacity:1;fill:none;fill-opacity:1;fill-rule:evenodd;stroke:#a1a1aa;stroke-width:0.7;stroke-linecap:round;stroke-linejoin:round;stroke-miterlimit:4.3;stroke-dasharray:none;stroke-dashoffset:3.40157;stroke-opacity:1"
       d="m 87.736279,165.73294 v 4.84764 l 0.26855,3.07613 h -3.491156 l -2.685505,-1.19475 V 159.67682 H 75.2853 v 0.6729 h -3.027299 l -1.060609,0.28419 -0.965726,1.92678 h -2.58785 v -5.86387 h 2.075161 l 0.341792,-1.01622 h 2.197232 v -1.37327 h 2.465782 V 157.15 h 7.934449 V 132.87059 H 72.575379 l -0.802158,1.38938 H 70.18284 l -0.815243,-1.41203 h -1.479645 v -5.82748 h 3.955016 v 3.18599 h 7.495002 l 0.856859,-0.2296 0.209418,-0.78155 h 5.916038 v 1.23087 h 3.002883 v 1.00249 h 14.574972 v -24.21075 h 8.98332 v -1.48313 h 4.95598 v 2.19723 l -0.26321,0.26321 v 0.61568 l -0.80948,0.46736 h -0.66068 v 7.45641 h -0.90331 v 18.19583 h -2.05075 l -1.09862,-0.20599 h -6.00576 v 1.8932 h -4.36431 v 9.06959 h 1.84715 v 3.91332 h -3.746093 l -0.468262,2.57749 v 3.97159 l 0.586946,1.7673 v 2.13631 h 1.553679 v 6.42147 h -7.187298 v -0.75257 z"
       id="path12"
       transform="translate(30.569548,-13.03334)" /><path
       style="opacity:1;fill:none;fill-rule:evenodd;stroke:#a1a1aa;stroke-width:0.7;stroke-linecap:round;stroke-linejoin:round;stroke-miterlimit:4.3;stroke-dasharray:none;stroke-dashoffset:3.40157;stroke-opacity:1"
       d="m 131.95615,165.01706 v 6.41863 h -14.15573 v 3.43751 h -2.74483 v 10.38051 h -3.46988 l -8.50441,8.50441 v 0.69935 l 0.25482,0.22334 v 0.77684 l -2.57436,2.57436 -10.079483,-9.77954 V 175.3181 l 0.327999,-1.34975 v -9.3724 h -6.672723 l -0.794102,-0.26219 H 71.700976 l -6.332854,-6.33285 h -2.143319 l -0.880419,-1.05682 v -0.738 l 6.550803,-6.5508 6.67272,6.98777 h 1.070311 l 0.258948,0.17479 h 21.164539 v -3.47635 h 2.831145 v 4.77755 l 0.24168,2.20428 v 6.42835 h 14.42326 v -0.90097 h 2.95198 v 1.06815 h 6.04208 v -1.80615 z"
       id="path13" /><path
       style="opacity:1;fill:none;fill-opacity:1;fill-rule:evenodd;stroke:#a1a1aa;stroke-width:0.7;stroke-linecap:round;stroke-linejoin:round;stroke-miterlimit:4.3;stroke-dasharray:none;stroke-dashoffset:3.40157;stroke-opacity:1"
       d="m 217.93402,138.94667 h -11.66984 v -4.15608 h -1.17389 v -6.11761 h 0.96673 l 0.35837,-1.33745 4.50982,0.15277 v 1.12642 h 11.39363 l 11.877,-11.73027 v -15.7504 h -2.10609 v -5.962238 h 1.77323 V 84.522931 l -0.29296,-1.469401 v -6.591694 l 0.53709,-3.213452 v -1.661657 l -0.19144,-0.714486 V 67.48065 l -4.1786,-0.233455 h -2.09958 l -1.17186,0.24719 h -3.24702 v -6.751744 l -0.63483,0.699154 h -1.76084 l -0.618,-1.070412 v -6.921317 h -4.31924 v -0.825392 h -5.2825 v 0.844815 h -5.29977 v 7.16852 h -4.89295 v -1.136126 h -4.13451 l -0.58241,-6.100045 v -4.432835 h -8.12228 v 3.626866 l -0.75095,2.922855 -7.96869,8.616275 v 2.107174 l -0.82863,0.932206 h -1.48462 l -1.312,-1.252651 -12.51573,-6.151592 V 46.569542 h -1.89662 v -3.67542 h 0.28139 V 29.882883 l 5.5623,-17.26516 -15.39633,-5.1093336 -3.97887,-0.3203652 -29.07761,2.4457475 -8.87323,1.8644133 -3.93598,7.010969 -6.145658,6.020501 0.310737,0.650602 -5.32701,6.300161 0.552418,0.436973 -3.314512,6.42834 v 1.611942 l 3.124618,1.757598 h 1.277467 l 0.604208,0.699154 v 0.941917 l -0.932207,1.272074 v 6.894444 h -1.731216 l 3.038303,12.652438 -16.749892,4.488119 -3.744556,3.744553 v 13.875834 l -1.188362,1.446864 v 9.069591 h -1.795362 v 27.020881 h 3.491891 v 2.93257 H 63.435899 l -3.672184,3.67218 v 9.49232 l 0.249346,1.19439 0.744468,0.74447 1.085417,0.29455 1.462508,1.46251 -7.010432,7.01043 -1.739254,-1.73926 -0.08416,-0.60636 -3.793561,-3.79357 -10.23593,10.23593 v 0.61764 l 6.653543,6.65355 v 15.02997 h 18.825096 v 9.36268 l 22.021707,21.65438 v 0.86424 l -9.843492,9.84349 5.758775,5.75877 -2.059162,2.05916 2.091531,2.09154 -0.24538,0.24537 9.852017,9.60602 3.273782,0.23451 18.247076,18.41108 h 30.41815 v 1.49379 h 1.79536 l 0.96673,-0.50494 h 2.20968 l 2.10609,2.58299 h 1.81263 v -3.29186 h 10.58227 l 6.85749,-7.41784 -0.54918,-0.54918 6.03884,-5.66553 v -11.29329 h 2.93472 v -8.40232 h -2.94157 V 208.1609 h 8.16544 v -6.02729 l 6.40206,-6.40207 4.3332,-0.31532 h 19.80076 v -1.3886 l 1.82988,-0.369 v -23.42007 l 0.46859,-1.34005 v -4.9135 -17.67616 l -0.30766,-2.38878 z"
       id="path15" /><path
       style="font-variation-settings:normal;opacity:1;fill:none;fill-opacity:1;stroke:#a1a1aa;stroke-width:0.7;stroke-linecap:round;stroke-linejoin:round;stroke-miterlimit:4.3;stroke-dasharray:none;stroke-dashoffset:12.8563;stroke-opacity:1;stop-color:#000000;stop-opacity:1"
       d="m 84.924229,129.84347 0.01654,1.56117 -0.04865,0.51344 -2.600231,0.0157 0.01654,-0.47692 2.628798,-0.0165 -0.01654,6.0591 h 7.409556 v -7.64225 z"
       id="path40"
       sodipodi:nodetypes="cccccccccc" /><path
       style="font-variation-settings:normal;opacity:1;fill:none;fill-opacity:1;stroke:#a1a1aa;stroke-width:0.7;stroke-linecap:round;stroke-linejoin:round;stroke-miterlimit:4.3;stroke-dasharray:none;stroke-dashoffset:12.8563;stroke-opacity:1;stop-color:#000000;stop-opacity:1"
       d="m 85.348036,193.85101 h 1.220685 l 1.806612,1.51059 v 0.8171 l -1.62351,1.62046 -1.000961,-0.24719 -2.970459,-2.97046 -0.06905,-0.77857 1.017365,-1.01736 0.557318,0.008 z"
       id="path41" /></g><g
     inkscape:groupmode="layer"
     id="layer7"
     inkscape:label="spawns"
     style="display:inline;stroke:#bef264;stroke-opacity:0.803922"><path
       style="font-variation-settings:normal;opacity:1;vector-effect:none;fill:none;fill-opacity:1;stroke:#bef264;stroke-width:1;stroke-linecap:round;stroke-linejoin:round;stroke-miterlimit:4.3;stroke-dasharray:none;stroke-dashoffset:12.8563;stroke-opacity:0.803922;-inkscape-stroke:none;filter:url(#filter36);stop-color:#000000;stop-opacity:1"
       d="m 99.169997,241.30114 8.349483,-8.45934 6.22549,4.16101 h 41.23472 v 20.37932 h -39.72107 z"
       id="path34" /><path
       style="font-variation-settings:normal;opacity:1;vector-effect:none;fill:none;fill-opacity:1;stroke:#bef264;stroke-width:1;stroke-linecap:round;stroke-linejoin:round;stroke-miterlimit:4.3;stroke-dasharray:none;stroke-dashoffset:12.8563;stroke-opacity:0.803922;-inkscape-stroke:none;filter:url(#filter38);stop-color:#000000;stop-opacity:1"
       d="m 93.444607,72.65536 h 13.427523 v -2.004972 h 18.40792 l 2.36813,2.101101 h 7.71473 V 45.189962 h -7.86121 v 2.979997 h -2.24606 l -1.19627,0.906357 -1.56248,-2.49935 -6.93348,4.902573 H 93.85964 l 3.100538,12.67528 -3.512275,0.941112 z"
       id="path35" /><path
       style="font-variation-settings:normal;opacity:1;vector-effect:none;fill:none;fill-opacity:1;stroke:#bef264;stroke-width:1;stroke-linecap:round;stroke-linejoin:round;stroke-miterlimit:4.3;stroke-dasharray:none;stroke-dashoffset:12.8563;stroke-opacity:0.803922;-inkscape-stroke:none;filter:url(#filter44);stop-color:#000000;stop-opacity:1"
       d="m 211.94239,69.383086 h 7.34852 V 54.785228 h -12.15802 v 6.646626 c -5.10875,-0.422216 -9.39037,0.100195 -12.35333,2.128568 -3.65745,2.624481 -4.69381,5.001686 -5.32825,9.622029 L 189.256,83.871085 c 3.72104,-0.03433 6.31352,0.16635 11.16312,-0.185391 4.35057,-0.05482 10.37848,-3.927113 11.52327,-10.787036 z"
       id="path38"
       sodipodi:nodetypes="ccccccccccc" /><path
       style="font-variation-settings:normal;opacity:1;vector-effect:none;fill:none;fill-opacity:1;stroke:#bef264;stroke-width:1;stroke-linecap:round;stroke-linejoin:round;stroke-miterlimit:4.3;stroke-dasharray:none;stroke-dashoffset:12.8563;stroke-opacity:0.803922;-inkscape-stroke:none;filter:url(#filter42);stop-color:#000000;stop-opacity:1"
       d="m 98.151203,131.08151 v 11.51663 H 79.386231 v -17.93526 h 12.291316 z"
       id="path39" /></g></svg>
