<?xml version="1.0" standalone="no"?>
<!DOCTYPE svg PUBLIC "-//W3C//DTD SVG 20010904//EN"
 "http://www.w3.org/TR/2001/REC-SVG-20010904/DTD/svg10.dtd">
<svg version="1.0" xmlns="http://www.w3.org/2000/svg"
 width="1024.000000pt" height="1024.000000pt" viewBox="0 0 1024.000000 1024.000000"
 preserveAspectRatio="xMidYMid meet">

<g transform="translate(0.000000,1024.000000) scale(0.100000,-0.100000)"
fill="#000000" stroke="none">
<path d="M0 5120 l0 -5120 5120 0 5120 0 0 5120 0 5120 -5120 0 -5120 0 0
-5120z m6200 3510 c0 -7 277 -10 810 -10 l810 0 0 -170 0 -170 -35 0 c-32 0
-35 -2 -35 -30 l0 -30 520 0 520 0 0 -145 0 -145 230 0 230 0 0 -440 0 -440
65 0 65 0 0 -540 0 -540 -45 0 -45 0 0 -880 c0 -580 -3 -880 -10 -880 -6 0
-10 -75 -10 -205 l0 -205 -360 0 -360 0 0 -240 0 -240 50 0 50 0 0 -170 c0
-163 -1 -170 -20 -170 -11 0 -20 -7 -20 -15 0 -8 9 -15 20 -15 19 0 20 -7 20
-220 l0 -220 -25 0 c-23 0 -25 -4 -25 -45 0 -41 2 -45 25 -45 l25 0 0 -215 0
-215 -295 0 -295 0 0 50 0 50 -45 0 c-41 0 -45 -2 -45 -25 l0 -25 -365 0 -365
0 0 -25 0 -25 -120 0 -120 0 0 25 c0 18 -5 25 -20 25 -15 0 -20 -7 -20 -25 l0
-25 -265 0 -265 0 0 200 0 200 -55 0 -55 0 0 -220 0 -220 -338 0 -339 0 -12
27 -12 26 -37 -36 c-28 -28 -107 -67 -327 -165 -160 -71 -340 -146 -401 -166
l-111 -37 8 -46 c5 -25 8 -48 6 -50 -2 -1 -100 30 -218 71 -1053 364 -1059
366 -1132 366 l-68 0 -161 328 c-88 180 -171 351 -185 380 l-24 52 -325 0
-324 0 0 330 0 330 278 0 278 0 57 58 57 58 0 942 0 942 -230 0 -230 0 0 50 0
50 -130 0 -130 0 0 -50 0 -50 -305 0 -305 0 0 455 0 455 -60 0 -60 0 0 223 0
223 30 29 c30 28 30 30 30 137 l0 108 -250 0 -250 0 0 426 0 427 42 53 43 53
203 1 202 0 0 295 0 295 640 0 640 0 0 25 0 25 310 0 310 0 0 -45 0 -45 510 0
510 0 0 -200 0 -200 490 0 490 0 0 270 0 270 355 0 c230 0 355 -4 355 -10z
m-4730 -7096 c101 -55 150 -141 150 -263 -1 -138 -85 -240 -228 -276 -56 -15
-68 -15 -122 -1 -132 34 -213 124 -226 253 -15 139 67 266 198 309 67 22 164
13 228 -22z m-782 -694 c7 0 12 -12 12 -27 l-1 -28 -22 28 c-26 30 -42 34 -51
12 -4 -10 5 -22 27 -35 62 -36 73 -62 41 -94 -21 -21 -52 -22 -34 -1 15 18 7
31 -35 51 -18 8 -36 23 -39 31 -15 39 25 78 69 68 11 -3 26 -5 33 -5z m77 -11
c0 -7 -8 -15 -17 -17 -18 -3 -25 18 -11 32 10 10 28 1 28 -15z m447 -64 c3
-85 3 -85 -22 -85 -25 0 -25 1 -25 77 0 43 5 81 10 85 27 20 34 6 37 -77z
m295 74 c47 -18 53 -38 21 -69 -12 -11 -17 -20 -12 -20 6 0 18 -16 27 -35 l17
-35 -36 0 c-19 0 -33 4 -29 9 6 11 -15 61 -27 61 -12 0 -10 -44 4 -58 9 -9 2
-12 -32 -12 -34 0 -41 3 -32 12 15 15 16 112 2 139 -10 17 -7 19 29 19 22 0
52 -5 68 -11z m315 -73 l3 -84 -55 0 c-62 1 -70 7 -70 60 0 45 27 66 61 47 21
-11 22 -9 16 19 -6 30 1 39 30 41 8 1 13 -27 15 -83z m-1050 -26 c3 -58 2 -60
-22 -60 -24 0 -25 3 -25 60 0 55 2 60 22 60 19 0 22 -6 25 -60z m143 49 c3 -5
14 -3 25 4 33 20 54 -2 60 -62 5 -49 5 -51 -20 -51 -24 0 -25 3 -22 41 4 41
-8 66 -26 55 -5 -3 -6 -25 -2 -51 l7 -45 -31 0 c-30 0 -31 1 -31 45 0 25 -4
45 -10 45 -5 0 -10 -20 -10 -45 0 -41 -2 -45 -25 -45 -24 0 -25 3 -25 59 l0
60 52 0 c29 0 55 -5 58 -10z m220 -6 c36 -35 8 -110 -38 -101 -21 4 -27 1 -27
-11 0 -10 5 -22 12 -29 9 -9 4 -12 -22 -12 l-35 0 0 84 0 85 48 -1 c28 0 54
-6 62 -15z m187 5 c8 -7 18 -21 21 -30 5 -15 0 -18 -35 -18 -36 0 -39 -2 -27
-16 7 -9 22 -14 36 -11 25 5 29 -3 11 -21 -17 -17 -64 -15 -82 4 -50 49 21
135 76 92z m337 3 c8 -5 17 -32 21 -60 l6 -51 -54 3 c-38 1 -58 7 -65 19 -14
22 7 48 39 48 18 0 24 6 24 22 0 21 0 21 -21 2 -17 -15 -22 -16 -29 -4 -16 26
46 42 79 21z m273 -3 c10 -8 18 -32 20 -60 l3 -47 -55 2 c-50 2 -55 4 -58 26
-4 26 12 41 46 41 15 0 22 6 22 20 0 25 -9 25 -26 3 -10 -15 -15 -16 -26 -5
-26 26 42 44 74 20z m151 5 c15 -9 -14 -31 -33 -26 -17 5 -20 0 -20 -35 0 -23
5 -43 13 -45 6 -3 -4 -6 -23 -6 l-35 -1 0 60 0 59 45 -1 c25 0 49 -2 53 -5z
m-1465 -88 l22 -25 -25 0 c-20 0 -25 5 -25 25 0 14 1 25 3 25 2 0 13 -11 25
-25z"/>
<path d="M5518 8343 l-3 -268 -515 0 -515 0 -3 198 -2 197 -495 0 -495 0 0
-70 c0 -56 -3 -70 -15 -70 -12 0 -15 19 -15 115 l0 115 -279 0 -280 0 -3 -22
c-3 -22 -6 -23 -145 -26 l-143 -3 0 -94 c0 -78 -3 -95 -15 -95 -12 0 -15 17
-15 95 l0 95 -145 0 -145 0 0 -200 0 -200 145 0 145 0 0 45 c0 33 4 45 15 45
11 0 15 -12 15 -45 l0 -45 425 0 425 0 0 25 c0 16 6 25 15 25 9 0 15 -9 15
-25 l0 -25 273 -2 272 -3 3 -265 2 -265 37 -37 37 -38 108 0 108 0 0 155 0
155 730 0 c480 0 730 -3 730 -10 0 -6 -101 -10 -282 -10 -156 0 -421 -3 -590
-7 l-308 -6 0 -139 0 -138 785 0 785 0 0 380 c0 209 -4 380 -8 380 -4 0 -22
-15 -40 -33 -32 -32 -32 -34 -32 -130 0 -58 -4 -97 -10 -97 -6 0 -10 43 -10
108 l0 108 33 32 c18 18 40 32 49 32 9 0 18 7 22 15 5 13 46 15 286 15 l280 0
0 30 c0 20 5 30 15 30 10 0 15 -10 15 -30 l0 -30 413 -2 412 -3 0 -55 0 -55
-102 -3 -103 -3 0 -114 0 -115 308 2 307 3 3 112 3 112 -148 3 -148 3 0 55 c0
55 0 55 33 58 l32 3 0 140 0 139 -505 0 -505 0 0 -35 c0 -24 -5 -35 -15 -35
-10 0 -15 11 -15 35 l0 35 -284 0 c-179 0 -287 4 -291 10 -4 6 -85 10 -211 10
l-204 0 0 -215 c0 -184 -2 -215 -15 -215 -13 0 -15 31 -15 215 l0 215 -105 0
-105 0 -2 -267z"/>
<path d="M1620 8488 c0 -20 1 -20 18 -5 10 10 25 17 34 17 19 0 48 -31 48 -52
0 -18 -31 -48 -50 -48 -7 0 -22 7 -32 17 -17 15 -18 14 -18 -24 l0 -41 48 -6
c94 -13 328 -47 350 -52 22 -4 23 -8 16 -62 -17 -147 -13 -141 -86 -129 -35 5
-36 4 -43 -29 -5 -27 -10 -34 -23 -30 -9 2 -38 7 -65 11 -38 5 -48 3 -53 -10
-5 -11 -15 -15 -33 -11 -14 3 -45 8 -68 11 l-43 7 0 -51 0 -51 96 0 c94 0 96
0 121 31 18 21 29 27 37 19 7 -7 2 -19 -19 -40 l-30 -30 -311 -7 -311 -6 -37
-45 -36 -45 0 -403 0 -404 248 -2 247 -3 3 -130 3 -131 -31 -29 -30 -29 0
-197 0 -198 58 -3 57 -3 3 -452 2 -453 138 1 c75 0 131 3 125 6 -8 3 -13 23
-13 49 l0 44 308 -3 307 -2 3 -47 3 -48 315 0 c272 0 314 -2 314 -15 0 -12
-16 -15 -85 -15 l-85 0 0 -465 0 -466 58 3 57 3 3 83 c4 114 22 104 22 -13 l0
-95 -70 0 -70 0 0 -350 0 -350 258 -2 257 -3 3 -617 2 -618 -192 -2 c-106 0
-201 -1 -211 0 -22 2 -24 9 117 -280 l107 -218 63 0 c55 0 107 -15 367 -104
167 -57 443 -152 612 -210 170 -58 309 -106 310 -106 1 0 2 17 2 37 l0 37 135
46 c74 26 254 100 400 165 221 98 273 125 311 162 52 50 77 52 97 8 10 -22 18
-25 67 -25 42 0 54 3 49 13 -4 6 -24 37 -44 67 -20 30 -40 60 -44 67 -4 8 18
29 64 60 57 37 70 51 67 67 -3 12 -8 35 -12 52 l-6 30 97 22 c54 12 98 21 99
20 5 -9 55 -211 53 -213 -2 -2 -37 -8 -78 -14 -41 -7 -76 -13 -78 -15 -2 -2 6
-22 17 -45 l21 -40 -22 -14 c-13 -8 -39 -24 -58 -35 l-35 -22 237 0 238 0 2
218 3 217 33 3 32 3 0 305 0 304 25 0 c24 0 25 3 25 60 0 57 -1 60 -25 60 -24
0 -25 3 -25 60 l0 60 30 0 c22 0 30 5 30 18 0 17 13 19 152 25 83 4 184 7 224
7 l73 0 3 132 3 133 75 0 75 0 3 -113 3 -114 47 6 c26 3 145 8 264 12 195 6
218 5 224 -10 5 -14 37 -16 290 -16 l284 0 2 433 3 432 413 3 413 2 -3 118 -3
117 -107 3 -108 3 0 -36 0 -35 -375 0 -375 0 0 -510 c0 -333 -3 -510 -10 -510
-7 0 -10 180 -10 520 l0 520 370 0 369 0 7 35 6 34 117 3 116 3 2 55 c1 30 3
368 4 750 1 382 4 677 5 655 2 -22 8 -418 14 -880 7 -510 15 -845 21 -852 6
-6 9 -38 7 -70 l-3 -58 -382 -3 -383 -2 -2 -578 -3 -577 -627 -3 -628 -2 0
-189 c0 -180 1 -189 20 -194 17 -4 20 -14 20 -72 0 -58 -3 -68 -20 -72 -15 -4
-20 -15 -22 -57 l-3 -51 -140 0 -140 0 0 175 0 175 53 3 52 3 0 184 0 184 -97
3 -98 3 -3 58 -3 57 -84 0 -84 0 -3 -62 c-3 -60 -4 -63 -30 -66 l-28 -3 0
-289 0 -289 38 -3 37 -3 3 -197 2 -198 235 0 234 0 3 23 c3 19 9 22 48 22 39
0 45 -3 48 -22 3 -22 8 -23 92 -23 84 0 89 1 92 23 l3 22 362 3 362 2 3 23 c3
20 8 22 73 22 l70 0 3 -47 3 -48 265 0 264 0 0 184 c0 184 0 185 -22 188 -21
3 -23 8 -23 73 0 65 2 70 23 73 22 3 22 4 22 192 0 179 -1 188 -20 193 -29 7
-29 77 0 84 19 5 20 14 20 144 l0 138 -47 3 -48 3 0 265 0 265 358 3 357 2 0
198 c0 118 4 202 10 208 6 6 11 321 12 884 l3 875 43 3 c23 2 42 7 42 12 0 5
-148 9 -342 9 -188 0 -345 4 -350 9 -4 4 -9 246 -11 537 -1 292 -3 21 -5 -600
l-2 -1131 -38 -37 -38 -37 -352 0 -352 0 0 -52 c0 -29 -3 -104 -7 -165 l-6
-113 -94 0 -93 0 0 -40 c0 -36 -2 -40 -25 -40 -18 0 -25 -5 -25 -20 0 -16 -7
-20 -30 -20 l-30 0 -2 -282 -3 -283 -65 0 -65 0 -5 35 -5 35 -167 3 c-98 1
-168 6 -168 12 0 6 70 11 168 12 l167 3 3 78 3 77 -526 0 -525 0 0 -70 0 -70
-40 0 -40 0 0 -120 0 -120 -155 0 -155 0 0 80 0 80 90 0 c50 0 90 3 90 8 0 4
-103 6 -230 4 l-230 -3 0 -134 0 -135 -155 0 -155 0 0 320 c0 207 4 320 10
320 6 0 10 -110 10 -310 l0 -310 135 0 135 0 0 125 0 124 -72 3 -73 3 -3 217
-2 217 -123 3 -122 3 0 35 0 35 88 3 87 3 0 284 0 284 -72 3 -73 3 -3 108 c-2
86 -6 107 -17 107 -13 0 -15 -41 -15 -285 0 -183 -4 -285 -10 -285 -6 0 -10
113 -10 319 0 266 2 320 14 324 23 9 1506 -5 1506 -15 0 -4 -241 -8 -535 -8
l-535 0 0 -120 0 -120 440 0 440 0 0 60 0 60 80 0 80 0 0 -60 0 -60 385 0 385
0 0 795 0 794 -102 3 -103 3 -3 471 -2 472 101 88 c55 49 117 99 136 111 43
26 139 36 238 26 67 -8 70 -9 73 -35 l3 -28 258 0 258 0 161 -172 161 -173 1
-78 0 -78 88 3 87 3 3 233 c1 143 6 232 12 232 6 0 10 -86 10 -229 l0 -229 23
-6 c29 -8 271 -8 291 0 14 5 16 50 16 395 l0 389 -227 2 -228 3 -3 143 -3 142
-239 0 -240 0 0 -115 0 -115 -120 0 c-73 0 -120 -4 -120 -10 0 -6 -117 -10
-330 -10 -287 0 -330 2 -330 15 0 11 -12 15 -51 15 l-51 0 7 110 7 110 -266 0
-266 0 0 -110 0 -109 58 -3 57 -3 0 -290 0 -290 -52 -3 -53 -3 0 -54 0 -54 73
-3 72 -3 3 -68 c2 -53 0 -68 -13 -73 -11 -5 -15 -22 -15 -75 l0 -68 -70 -37
-70 -36 0 -83 c0 -65 3 -84 15 -89 13 -5 15 -35 13 -213 l-3 -208 -165 -82
-164 -83 -433 0 c-277 0 -434 -4 -438 -10 -4 -6 -78 -10 -191 -10 l-184 0 -33
53 c-19 28 -59 102 -90 164 l-57 111 0 506 0 506 -205 0 -205 0 0 -255 0 -255
85 0 85 0 0 -95 0 -95 -85 0 -85 0 0 -293 c0 -162 3 -362 7 -445 l6 -152 44 0
43 0 0 -49 0 -50 -47 -4 c-27 -2 390 -4 925 -5 640 -1 972 -5 972 -12 0 -7
-335 -10 -985 -10 l-985 0 0 160 0 160 -145 0 -145 0 0 -295 0 -295 25 0 c25
0 25 -1 25 -85 0 -84 0 -85 -25 -85 -24 0 -25 -3 -25 -60 l0 -60 175 0 175 0
0 45 0 45 110 0 110 0 0 -45 0 -44 68 -3 67 -3 3 -327 c1 -217 -1 -328 -8
-328 -6 0 -10 101 -10 290 l0 290 -75 0 -75 0 0 -224 0 -225 38 -3 37 -3 0
-53 c0 -42 3 -52 17 -52 20 0 24 -17 19 -82 l-3 -50 -59 7 -59 7 0 -56 0 -55
83 -3 82 -3 0 -35 0 -35 -167 -3 -167 -2 -3 -58 -3 -57 -70 0 -70 0 -3 57 -3
57 -117 3 -117 3 -3 52 -3 52 -57 3 -57 3 0 40 0 40 58 3 57 3 0 469 c0 307 3
470 10 470 6 0 10 67 10 180 0 113 -4 180 -10 180 -6 0 -10 35 -10 85 l0 85
-95 0 -95 0 0 -80 0 -80 -80 0 -80 0 0 -240 0 -239 73 -3 72 -3 0 -65 0 -65
-72 -3 -72 -3 -3 -82 -3 -82 -57 -3 c-43 -2 -58 -7 -58 -17 0 -31 -28 -14 -34
20 l-7 35 -84 0 -85 0 0 84 c0 47 -4 88 -10 91 -5 3 -10 37 -10 75 l0 69 -92
3 -93 3 -3 243 -2 242 -205 0 -205 0 0 -85 c0 -78 -2 -85 -20 -85 -18 0 -20 7
-20 85 l0 84 -62 3 -63 3 -52 125 c-51 121 -52 128 -53 221 0 111 2 109 -102
109 l-57 0 -3 -37 -3 -38 -157 -3 -158 -3 -2 -167 -3 -167 -155 0 -155 0 0
215 0 215 380 1 c209 1 548 2 752 3 l373 1 2 343 3 342 458 3 457 2 0 245 0
245 -160 0 -160 0 0 215 0 215 -307 2 -308 3 -3 93 -3 92 -97 2 c-53 1 -305 0
-559 -1 l-463 -3 0 211 0 211 -325 0 -325 0 0 -22z m600 -757 c0 -5 -45 -11
-99 -13 -55 -1 -103 -7 -108 -11 -4 -5 -10 -56 -11 -113 -2 -57 -8 -104 -13
-104 -5 0 -9 56 -9 125 l0 125 120 0 c66 0 120 -4 120 -9z m540 -116 c0 -77
-4 -125 -10 -125 -6 0 -10 43 -10 109 0 90 -3 110 -16 115 -9 3 -58 6 -110 6
-56 0 -94 4 -94 10 0 6 47 10 120 10 l120 0 0 -125z m-510 -35 l0 -120 -115 0
-115 0 0 120 0 120 115 0 115 0 0 -120z m470 5 l0 -115 -115 0 -115 0 0 115 0
115 115 0 115 0 0 -115z m-1120 -160 c0 -104 -2 -125 -15 -125 -13 0 -15 21
-15 125 0 104 2 125 15 125 13 0 15 -21 15 -125z m1957 101 c4 -8 17 -15 28
-18 17 -3 20 -11 20 -58 0 -47 -3 -55 -20 -59 -11 -2 -24 -10 -30 -18 -8 -10
-28 -13 -75 -11 l-65 3 -3 74 c-2 41 -1 80 2 88 8 19 132 18 143 -1z m-837
-421 l0 -175 -155 0 -155 0 0 100 0 100 40 0 40 0 0 75 0 75 115 0 115 0 0
-175z m-710 -75 l0 -110 105 0 c87 0 105 -3 105 -15 0 -12 -20 -15 -120 -15
l-120 0 0 125 c0 104 2 125 15 125 12 0 15 -19 15 -110z m750 -15 l0 -125
-120 0 c-100 0 -120 3 -120 15 0 12 19 15 110 15 l110 0 0 110 c0 67 4 110 10
110 6 0 10 -48 10 -125z m638 -79 c6 -50 -6 -76 -33 -76 -23 0 -25 4 -25 48 0
55 5 64 35 60 14 -2 21 -12 23 -32z m-1758 -266 c0 -27 -3 -30 -30 -30 -27 0
-30 3 -30 30 0 27 3 30 30 30 27 0 30 -3 30 -30z m870 -575 l0 -85 -140 0
-140 0 0 85 0 85 140 0 140 0 0 -85z m4645 -342 l57 -67 -63 -57 -64 -56 38
-49 38 -49 -21 -17 c-12 -10 -34 -26 -48 -37 l-27 -20 43 -1 42 0 0 -90 0 -90
-90 0 -90 0 0 71 0 71 -34 -26 c-19 -14 -39 -26 -45 -26 -10 0 -101 125 -101
139 0 4 21 23 48 41 26 18 63 49 82 69 19 20 49 45 65 57 l29 21 -28 34 -28
33 63 58 c35 31 67 57 70 58 4 0 32 -30 64 -67z m-3625 -1023 l0 -320 63 1
c34 1 50 4 34 6 -26 4 -27 6 -20 46 10 64 19 92 30 90 5 -1 33 -5 61 -9 l51
-6 3 138 3 139 40 0 40 0 3 -187 2 -187 43 -3 c40 -3 42 -5 45 -36 3 -27 -1
-35 -17 -39 -21 -5 -21 -10 -21 -319 l0 -314 75 0 74 0 3 68 3 67 85 0 85 0 3
-67 3 -68 282 0 282 0 43 -39 43 -40 -3 -130 c-2 -72 0 -131 5 -131 4 0 7 -67
7 -150 l0 -150 -40 0 c-33 0 -40 -3 -40 -20 0 -18 2 -19 20 -8 22 14 45 5 64
-25 21 -34 -30 -81 -64 -59 -18 11 -20 10 -20 -13 0 -23 4 -25 40 -25 l40 0 0
-150 c0 -93 -4 -150 -10 -150 -6 0 -10 -39 -10 -98 l0 -99 -77 -61 c-43 -34
-86 -62 -95 -62 -15 0 -18 -9 -18 -50 l0 -50 -110 0 -110 0 0 54 c0 58 -10 75
-30 51 -16 -20 -39 -19 -62 2 -22 20 -23 46 -1 64 14 12 -31 15 -303 19 l-319
5 -3 97 -3 97 -67 3 -67 3 0 445 0 445 68 3 67 3 0 104 0 104 -152 3 -153 3 0
340 0 340 43 3 42 3 0 320 c0 206 4 319 10 319 6 0 10 -113 10 -320z m1904
-1952 c3 -13 6 -55 6 -94 0 -80 -3 -84 -71 -84 -33 0 -54 -10 -126 -65 -47
-36 -89 -65 -93 -65 -8 0 -118 143 -126 164 -3 8 24 34 68 68 104 77 98 75
125 42 l23 -29 0 37 c0 43 4 45 111 47 72 1 77 -1 83 -21z m568 -51 l77 -72
-40 -42 c-22 -24 -43 -43 -47 -43 -5 0 -23 16 -42 35 -19 19 -37 35 -42 35 -4
0 1 -23 12 -50 11 -28 20 -55 20 -59 0 -11 -144 -65 -160 -59 -14 4 -83 200
-73 208 5 4 38 18 75 30 43 15 79 36 100 57 17 18 34 33 37 33 4 -1 41 -33 83
-73z m1363 -262 l0 -70 -70 0 -70 0 -3 59 c-4 86 -3 87 75 84 l68 -3 0 -70z
m370 0 l0 -70 -70 0 -70 0 -3 59 c-4 86 -3 87 75 84 l68 -3 0 -70z m350 0 l0
-70 -70 0 -70 0 -3 59 c-4 86 -3 87 75 84 l68 -3 0 -70z m-3326 -525 c6 -28
11 -62 11 -75 0 -20 5 -25 24 -25 19 0 24 -6 30 -37 3 -21 6 -59 6 -84 l0 -46
-46 -7 c-26 -3 -62 -6 -80 -6 -30 0 -34 3 -35 28 -1 15 -2 32 -4 37 -1 6 -3
29 -3 52 -2 42 -2 42 -35 36 l-34 -5 -10 73 c-6 41 -9 75 -8 77 2 3 138 29
162 31 6 1 16 -22 22 -49z"/>
<path d="M3440 7450 l0 -60 45 0 c33 0 45 4 45 15 0 9 9 15 25 15 21 0 25 5
25 30 0 25 -4 30 -25 30 -16 0 -25 6 -25 15 0 11 -12 15 -45 15 l-45 0 0 -60z"/>
<path d="M3780 4585 l0 -205 -165 0 -165 0 0 -315 0 -315 155 0 155 0 0 -135
0 -135 -70 0 -70 0 0 -420 0 -420 70 0 70 0 0 -100 0 -100 355 0 355 0 0 -45
0 -45 108 0 109 0 71 56 72 55 0 80 0 79 -30 0 -30 0 0 400 0 400 35 0 35 0 0
109 0 110 -37 30 -38 31 -287 0 -288 0 0 70 0 70 -60 0 -60 0 0 -70 0 -70
-105 0 -105 0 0 345 c0 338 0 345 20 345 11 0 20 5 20 10 0 6 -20 10 -45 10
l-45 0 0 190 c0 162 -2 190 -15 190 -13 0 -15 -29 -15 -205z"/>
<path d="M3741 4424 c0 -11 3 -14 6 -6 3 7 2 16 -1 19 -3 4 -6 -2 -5 -13z"/>
<path d="M4410 2406 c0 -2 7 -9 15 -16 12 -10 15 -10 15 4 0 9 -7 16 -15 16
-8 0 -15 -2 -15 -4z"/>
<path d="M7250 2465 l0 -45 45 0 45 0 0 45 0 45 -45 0 -45 0 0 -45z"/>
<path d="M7620 2465 l0 -45 45 0 45 0 0 45 0 45 -45 0 -45 0 0 -45z"/>
<path d="M7970 2465 l0 -45 45 0 45 0 0 45 0 45 -45 0 -45 0 0 -45z"/>
<path d="M6210 7875 l0 -405 -580 0 -580 0 0 -499 0 -500 67 -128 c36 -70 75
-140 85 -155 l19 -28 165 0 c103 0 164 4 164 10 0 7 155 10 443 11 l442 0 155
78 155 78 3 186 c2 162 0 187 -13 187 -13 0 -15 30 -15 220 l0 220 85 0 85 0
0 45 0 45 -75 0 -75 0 0 85 0 85 55 0 55 0 0 265 0 265 -60 0 -60 0 0 140 0
140 425 0 425 0 0 30 0 30 -685 0 -685 0 0 -405z"/>
<path d="M8040 8085 l0 -106 108 3 107 3 3 103 3 102 -111 0 -110 0 0 -105z"/>
<path d="M3420 8005 l0 -75 295 0 295 0 0 75 0 75 -295 0 -295 0 0 -75z"/>
<path d="M4357 7784 c-4 -4 -7 -70 -7 -146 l0 -138 50 0 51 0 -3 143 -3 142
-40 3 c-23 2 -44 0 -48 -4z"/>
<path d="M4480 7640 l0 -140 55 0 55 0 0 140 0 140 -55 0 -55 0 0 -140z"/>
<path d="M7562 7623 c-17 -10 -77 -58 -132 -106 l-100 -88 0 -449 0 -450 105
0 105 0 0 -825 0 -825 -935 0 -935 0 0 135 0 135 -190 0 c-120 0 -190 -4 -190
-10 0 -5 9 -10 20 -10 19 0 20 -7 20 -110 l0 -110 75 0 75 0 0 -315 0 -315
-90 0 c-53 0 -90 -4 -90 -10 0 -6 48 -10 125 -10 l125 0 0 -220 0 -220 285 0
285 0 0 105 0 105 660 0 660 0 0 -130 0 -130 40 0 40 0 0 415 0 415 155 0 155
0 0 95 0 95 358 0 358 0 32 33 32 33 0 1132 0 1132 25 0 c24 0 25 2 25 64 l0
63 -156 167 -156 166 -264 0 -264 0 0 30 0 30 -113 0 c-88 0 -119 -4 -145 -17z"/>
<path d="M4350 7225 l0 -245 120 0 120 0 0 245 0 245 -120 0 -120 0 0 -245z"/>
<path d="M6750 7030 l0 -89 28 12 c90 41 92 43 92 107 l0 60 -60 0 -60 0 0
-90z"/>
<path d="M8924 7075 c-5 -12 -27 -15 -120 -15 l-114 0 0 -505 0 -505 310 0
310 0 0 430 c0 411 -1 430 -18 430 -29 0 -55 35 -48 63 5 21 3 24 -19 20 -25
-5 -30 4 -37 67 l-3 25 -128 3 c-107 2 -128 0 -133 -13z"/>
<path d="M3440 6605 l0 -345 -355 0 -355 0 0 -89 c0 -84 3 -95 51 -210 l51
-121 289 0 289 0 0 -245 0 -245 95 0 95 0 0 -75 0 -75 95 0 95 0 0 -105 0
-105 50 0 50 0 0 85 0 85 75 0 75 0 0 40 0 40 -75 0 -75 0 0 350 0 350 55 0
55 0 0 405 0 405 165 0 165 0 0 100 0 100 -445 0 -445 0 0 -345z"/>
<path d="M4354 6850 c0 -58 1 -81 3 -52 2 28 2 76 0 105 -2 28 -3 5 -3 -53z"/>
<path d="M4390 6850 l0 -100 95 0 95 0 0 100 0 100 -95 0 -95 0 0 -100z"/>
<path d="M4030 6330 l0 -390 120 0 120 0 0 210 0 210 31 0 c30 0 30 1 27 48
-3 46 -4 47 -38 50 -19 1 -50 5 -67 8 l-33 5 0 124 0 125 -80 0 -80 0 0 -390z"/>
<path d="M4210 6605 l0 -115 38 0 c20 0 47 -3 60 -6 22 -6 22 -6 22 115 l0
121 -60 0 -60 0 0 -115z"/>
<path d="M4350 6600 c0 -107 2 -120 18 -122 9 0 22 -2 27 -3 6 -2 16 -3 23 -4
8 -1 12 -19 12 -56 l0 -55 75 0 75 0 0 95 c0 57 4 95 10 95 6 0 10 35 10 85
l0 85 -125 0 -125 0 0 -120z"/>
<path d="M4350 6405 c0 -43 1 -45 30 -45 29 0 30 2 30 45 0 43 -1 45 -30 45
-29 0 -30 -2 -30 -45z"/>
<path d="M4300 6215 c0 -96 3 -115 15 -115 12 0 15 19 15 115 0 96 -3 115 -15
115 -12 0 -15 -19 -15 -115z"/>
<path d="M4350 6215 l0 -115 115 0 115 0 0 115 0 115 -115 0 -115 0 0 -115z"/>
<path d="M1930 6070 l0 -190 130 0 130 0 0 170 0 170 160 0 c153 0 160 1 160
20 0 20 -7 20 -290 20 l-290 0 0 -190z"/>
<path d="M4300 5395 c0 -51 3 -65 15 -65 12 0 15 14 15 65 0 51 -3 65 -15 65
-12 0 -15 -14 -15 -65z"/>
<path d="M4300 4785 l0 -375 -60 0 c-47 0 -60 -3 -60 -15 0 -12 13 -15 60 -15
l60 0 0 -55 0 -55 120 0 120 0 0 -60 0 -60 45 0 45 0 0 60 0 60 170 0 c107 0
170 4 170 10 0 6 -35 10 -85 10 l-85 0 0 145 0 145 45 0 c41 0 45 2 45 25 0
23 -4 25 -40 25 l-40 0 0 255 0 255 85 0 c50 0 85 4 85 10 0 6 -120 10 -340
10 l-340 0 0 -375z"/>
<path d="M7550 4510 l0 -60 140 0 140 0 0 60 0 60 -140 0 -140 0 0 -60z"/>
<path d="M7550 4380 c0 -43 3 -50 20 -50 17 0 20 7 20 50 0 43 -3 50 -20 50
-17 0 -20 -7 -20 -50z"/>
<path d="M7610 4400 c0 -16 5 -30 10 -30 6 0 10 14 10 30 0 17 -4 30 -10 30
-5 0 -10 -13 -10 -30z"/>
<path d="M8170 3755 l0 -435 -315 0 c-275 0 -315 2 -315 15 0 13 -16 15 -112
11 -62 -3 -184 -8 -270 -12 l-158 -6 0 116 0 116 -50 0 -50 0 0 -135 0 -135
-130 0 -130 0 0 -125 0 -125 100 0 100 0 0 -215 0 -215 -55 0 -55 0 0 -150 0
-150 115 0 115 0 0 55 c0 48 2 55 20 55 17 0 20 7 20 45 0 38 -3 45 -20 45
-19 0 -20 7 -20 220 l0 220 630 0 630 0 0 580 0 580 385 0 385 0 0 40 0 40
-410 0 -410 0 0 -435z"/>
<path d="M3050 3562 l0 -118 -73 -72 -72 -72 -263 0 -262 0 0 -265 0 -265 310
0 309 0 12 -22 c7 -13 15 -25 18 -28 3 -3 31 -53 61 -113 l55 -107 182 0 183
0 0 590 0 590 -230 0 -230 0 0 -118z"/>
<path d="M3100 2515 c0 -5 5 -17 10 -25 5 -8 10 -10 10 -5 0 6 -5 17 -10 25
-5 8 -10 11 -10 5z"/>
<path d="M1252 1444 c-33 -32 -34 -34 -7 -16 38 24 75 44 75 39 0 -2 -27 -23
-60 -47 -33 -24 -60 -47 -60 -52 0 -11 4 -9 97 54 103 69 101 59 -3 -17 -103
-76 -127 -108 -33 -44 44 30 74 43 99 43 31 1 36 -2 32 -18 -4 -15 -2 -17 14
-8 10 6 27 17 38 25 18 13 18 14 1 35 -18 20 -19 20 -44 3 -37 -25 -60 -36
-36 -16 11 9 27 20 35 25 24 14 5 23 -55 26 -53 3 -59 1 -93 -32z"/>
<path d="M1316 1361 c-19 -21 -12 -48 15 -56 42 -14 68 44 30 65 -25 13 -25
13 -45 -9z"/>
<path d="M1239 1319 c-19 -16 -25 -26 -14 -20 32 16 60 39 54 45 -3 3 -21 -8
-40 -25z"/>
<path d="M1245 1285 c-16 -13 -25 -24 -20 -24 6 0 24 11 40 24 17 14 26 25 20
25 -5 0 -23 -11 -40 -25z"/>
<path d="M1405 1274 c-16 -13 -25 -24 -20 -24 14 1 61 38 55 43 -3 3 -18 -6
-35 -19z"/>
<path d="M1417 1244 c-21 -14 -36 -28 -33 -31 5 -6 76 43 76 53 0 7 -4 5 -43
-22z"/>
<path d="M1289 1234 c-17 -21 0 -49 31 -49 27 0 46 25 37 49 -8 21 -51 21 -68
0z"/>
<path d="M1365 1172 c-117 -76 -127 -81 -85 -44 38 33 24 44 -20 16 l-25 -16
24 21 c33 29 19 38 -24 15 -32 -17 -43 -43 -16 -36 7 1 10 -2 6 -8 -3 -5 7
-15 22 -21 15 -6 36 -15 46 -21 13 -6 26 -4 44 7 14 10 22 12 19 6 -16 -26 27
-8 62 25 37 36 32 37 -23 1 l-30 -19 25 22 c14 12 36 31 49 41 50 40 12 26
-63 -22 -43 -27 -80 -48 -82 -46 -2 2 30 27 71 57 66 47 105 80 94 80 -2 0
-44 -26 -94 -58z"/>
<path d="M1460 800 c0 -43 13 -52 30 -20 8 14 8 26 0 40 -17 32 -30 23 -30
-20z"/>
<path d="M1744 767 c-9 -25 0 -62 16 -62 10 0 15 10 15 34 0 36 -21 54 -31 28z"/>
<path d="M1070 735 c0 -37 10 -44 30 -20 14 17 4 55 -16 55 -9 0 -14 -11 -14
-35z"/>
<path d="M1277 783 c-13 -12 -7 -33 8 -33 8 0 15 9 15 20 0 20 -11 26 -23 13z"/>
<path d="M1607 725 c-7 -16 8 -29 23 -20 15 9 12 35 -4 35 -8 0 -16 -7 -19
-15z"/>
<path d="M1887 733 c-13 -12 -7 -33 8 -33 8 0 15 9 15 20 0 20 -11 26 -23 13z"/>
</g>
</svg>
