<?xml version="1.0" standalone="no"?>
<!DOCTYPE svg PUBLIC "-//W3C//DTD SVG 20010904//EN"
 "http://www.w3.org/TR/2001/REC-SVG-20010904/DTD/svg10.dtd">
<svg version="1.0" xmlns="http://www.w3.org/2000/svg"
 width="1024.000000pt" height="1024.000000pt" viewBox="0 0 1024.000000 1024.000000"
 preserveAspectRatio="xMidYMid meet">

<g transform="translate(0.000000,1024.000000) scale(0.100000,-0.100000)"
fill="#000000" stroke="none">
<path d="M0 5120 l0 -5120 5120 0 5120 0 0 5120 0 5120 -5120 0 -5120 0 0
-5120z m6138 2233 l3 -143 86 0 c84 0 88 -1 120 -32 l33 -32 0 -383 0 -383
168 -2 167 -3 3 -302 2 -303 1648 -2 1647 -3 0 -625 0 -625 -305 0 -305 0 -3
288 -2 287 -310 0 -310 0 -58 58 c-161 160 -430 199 -635 90 -141 -76 -239
-205 -287 -380 l-17 -63 -107 -3 -106 -3 0 -139 0 -139 138 -3 137 -3 3 -337
2 -337 93 -3 92 -3 0 -560 0 -560 -402 -3 -402 -2 -3 -83 -3 -82 -241 -3
c-231 -2 -242 -3 -247 -22 -5 -19 -14 -20 -327 -20 l-322 0 -705 232 -704 232
-93 151 c-51 82 -182 294 -291 470 -108 176 -213 345 -232 375 -19 30 -69 111
-112 180 l-77 125 -291 3 -292 2 -3 -22 -3 -23 -387 -3 -387 -2 -3 -48 -3 -47
-155 0 -155 0 -3 153 -3 152 -244 0 -244 0 -3 -97 -3 -98 -545 0 -545 0 0 565
0 565 370 0 370 0 3 -202 2 -203 613 -2 612 -3 3 -157 3 -158 194 0 194 0 3
143 3 142 355 0 355 0 5 -33 c5 -32 8 -30 310 288 l305 320 5 133 5 132 342 3
343 2 2 308 3 307 153 3 152 3 0 381 0 382 32 33 c32 33 32 33 130 33 l98 0 0
138 c0 76 3 142 7 145 4 4 131 6 282 5 l276 -3 3 -142z m-4746 -5784 c98 -20
185 -97 216 -188 17 -49 15 -162 -4 -207 -64 -154 -247 -224 -396 -151 -62 30
-106 74 -140 140 -31 59 -31 184 -1 243 47 89 119 146 204 163 62 12 62 12
121 0z m-177 -886 c-1 -1 -12 1 -26 5 -23 7 -24 11 -24 84 0 70 2 78 20 80 18
3 20 -4 25 -82 3 -47 5 -86 5 -87z m607 70 l3 -62 -60 2 -60 2 0 50 0 50 38 0
c36 0 38 1 33 27 -4 22 -1 27 17 30 24 3 25 2 29 -99z m-1124 67 l4 -25 -26
24 c-14 13 -32 21 -40 18 -23 -9 -11 -29 32 -52 73 -39 41 -115 -42 -99 -31 5
-36 10 -36 33 l0 26 23 -29 c16 -20 29 -27 40 -23 29 11 19 36 -22 57 -48 24
-60 53 -35 81 13 15 28 19 58 17 35 -3 42 -7 44 -28z m68 19 c10 -17 -13 -36
-27 -22 -12 12 -4 33 11 33 5 0 12 -5 16 -11z m768 -5 c22 -21 20 -40 -6 -58
-12 -9 -18 -16 -12 -16 6 0 18 -16 27 -35 14 -29 14 -35 3 -35 -8 0 -21 -3
-30 -6 -10 -4 -16 -1 -16 9 0 23 -22 67 -32 67 -6 0 -7 -17 -3 -40 7 -39 6
-40 -24 -40 l-30 0 6 70 c4 49 2 74 -7 85 -11 13 -5 15 48 15 42 0 65 -5 76
-16z m-759 -90 c0 -35 -5 -55 -13 -59 -32 -12 -38 -5 -37 53 0 48 3 58 20 63
28 8 30 4 30 -57z m144 50 c1 -1 13 1 26 6 35 13 52 -7 57 -67 5 -52 5 -53
-22 -53 -26 0 -27 1 -22 50 4 43 2 50 -13 50 -14 0 -16 -8 -13 -50 3 -50 3
-50 -27 -50 -30 0 -30 0 -27 50 3 42 1 50 -13 50 -15 0 -17 -7 -13 -51 4 -41
2 -49 -9 -45 -8 4 -20 6 -26 6 -8 0 -12 21 -12 60 l0 60 55 -7 c30 -3 57 -7
59 -9z m151 8 c0 -5 14 -6 31 -4 36 5 49 -8 49 -53 0 -45 -13 -58 -49 -53 -27
4 -31 2 -31 -18 0 -12 6 -25 13 -27 6 -3 -4 -6 -23 -6 l-35 -1 0 77 c0 43 5
81 10 85 14 10 35 10 35 0z m254 -13 c35 -27 33 -37 -9 -45 -19 -3 -35 -10
-35 -14 0 -12 28 -20 46 -13 11 4 15 2 12 -7 -8 -25 -56 -34 -83 -16 -33 22
-35 78 -3 100 29 21 40 20 72 -5z m706 10 c0 -8 5 -8 15 1 12 10 18 10 30 0
21 -17 8 -33 -22 -25 -24 6 -25 5 -21 -40 2 -30 -1 -45 -9 -45 -6 0 -17 -2
-25 -5 -10 -4 -13 8 -13 52 0 32 5 61 10 65 15 11 35 9 35 -3z m-410 -8 c0 -5
-6 -14 -14 -20 -10 -8 -16 -8 -25 2 -6 8 -8 17 -4 20 9 10 43 8 43 -2z m47 -3
c6 -7 13 -35 16 -61 l5 -48 -56 6 c-50 4 -71 16 -72 37 0 12 43 38 63 38 14 0
18 5 14 20 -6 23 15 28 30 8z m218 -8 c-14 -16 -20 -17 -27 -8 -13 22 -9 28
19 28 26 0 26 0 8 -20z m60 8 c2 -7 6 -35 8 -61 l5 -48 -51 5 c-28 3 -55 10
-60 15 -18 18 -2 46 31 56 21 6 32 15 32 27 0 20 29 25 35 6z"/>
<path d="M5600 7325 l0 -145 -103 0 c-100 0 -104 -1 -130 -28 l-27 -28 0 -387
0 -387 -155 0 -155 0 0 -310 0 -310 -55 0 -55 0 0 -65 c0 -51 -3 -65 -15 -65
-12 0 -15 14 -15 65 l0 65 -175 0 -175 0 0 -285 0 -285 50 0 c28 0 50 -4 50
-10 0 -5 -22 -10 -50 -10 l-50 0 0 -195 c0 -119 -4 -195 -10 -195 -5 0 -11 54
-12 128 -3 123 -4 127 -25 130 -13 2 -23 7 -23 12 0 5 10 10 23 12 l22 3 3
348 2 347 -90 0 -90 0 0 -127 -1 -128 -311 -325 c-209 -219 -318 -326 -334
-328 -22 -3 -24 -8 -24 -58 0 -41 -4 -54 -15 -54 -12 0 -15 17 -15 90 l0 90
-320 0 -320 0 0 -145 0 -145 -225 0 -225 0 0 160 0 160 -615 0 -615 0 0 205 0
205 -345 0 -345 0 0 -540 0 -540 520 0 520 0 0 100 0 100 275 0 275 0 0 -155
0 -155 130 0 130 0 0 50 0 50 390 0 390 0 0 25 0 25 190 0 189 0 3 75 c2 42 7
75 13 75 6 0 11 -33 13 -75 l3 -75 112 0 112 -1 176 -287 c298 -486 621 -1007
628 -1015 5 -4 322 -111 707 -237 l699 -230 303 0 302 0 0 35 c0 19 5 35 10
35 6 0 10 -7 10 -15 0 -13 33 -15 235 -15 l235 0 0 75 0 75 -202 2 c-199 1
-192 14 10 17 l82 1 0 170 0 170 -180 0 -180 0 0 -95 c0 -57 -4 -95 -10 -95
-6 0 -10 41 -10 104 l0 105 48 3 47 3 3 43 c4 54 20 54 24 0 l3 -43 128 -3
127 -3 0 46 c0 33 4 45 15 45 13 0 15 -32 15 -225 l0 -225 445 0 445 0 0 535
0 535 -155 0 c-131 0 -155 2 -155 15 0 12 13 15 60 15 l60 0 0 325 0 325 -140
0 -140 0 0 170 0 170 113 1 c61 1 104 3 94 6 -12 3 -16 10 -13 20 4 9 -1 21
-9 27 -21 15 -9 46 16 46 10 0 19 7 19 15 0 8 6 12 15 9 10 -4 22 13 43 58 35
77 97 157 157 200 24 18 44 39 45 46 0 18 -4 16 -69 -28 -32 -22 -61 -40 -65
-40 -3 0 -5 118 -4 263 l3 262 500 0 500 0 3 -232 2 -233 50 0 50 0 0 -55 0
-55 -55 0 -55 0 0 45 0 45 -78 0 c-76 0 -79 1 -112 35 -34 35 -65 50 -39 18 8
-9 12 -18 11 -21 -2 -2 17 -22 43 -43 26 -21 56 -50 67 -64 l19 -25 320 0 319
0 0 -290 0 -290 280 0 280 0 0 40 0 40 -230 0 -230 0 0 100 c0 124 18 134 22
13 l3 -88 218 -3 217 -2 0 373 0 374 -22 -3 c-13 -2 -72 -13 -133 -24 -60 -11
-112 -16 -115 -12 -8 9 -32 143 -27 148 4 4 273 54 290 54 4 0 7 43 7 95 l0
95 -1345 0 -1345 0 0 -125 0 -125 -70 0 c-84 0 -94 18 -12 22 l57 3 3 82 3 81
-45 -3 c-30 -2 -50 2 -57 11 -20 24 6 42 56 39 25 -2 45 1 45 6 0 5 -73 9
-170 9 l-170 0 0 -115 c0 -70 -4 -115 -10 -115 -6 0 -10 45 -10 115 l0 115
-115 0 -115 0 0 305 0 305 -170 0 -170 0 0 388 0 388 -28 27 c-26 25 -34 27
-120 27 l-92 0 0 145 0 145 -255 0 -255 0 0 -145z m190 -40 l0 -55 -55 0 -55
0 0 55 0 55 55 0 55 0 0 -55z m-110 -500 l0 -195 175 0 175 0 0 190 c0 120 4
190 10 190 6 0 10 -75 10 -205 l0 -205 -195 0 -195 0 0 210 c0 133 4 210 10
210 6 0 10 -72 10 -195z m-40 -225 c0 -6 30 -10 70 -10 l70 0 0 -70 0 -70 -37
0 c-21 0 -75 -3 -120 -7 -80 -6 -83 -5 -83 16 0 12 -6 21 -15 21 -12 0 -15 14
-15 65 l0 65 65 0 c37 0 65 -4 65 -10z m740 -625 c0 -176 2 -205 15 -205 13 0
15 -31 15 -220 l0 -220 140 0 c87 0 140 -4 140 -10 0 -6 -53 -10 -140 -10
l-140 0 0 -145 0 -145 255 0 255 0 0 145 0 145 -55 0 c-30 0 -55 5 -55 10 0 6
25 10 55 10 42 0 55 3 55 15 0 8 5 15 10 15 6 0 10 -67 10 -180 l0 -180 -25 0
c-16 0 -25 -6 -25 -15 0 -8 -9 -15 -20 -15 -11 0 -20 7 -20 15 0 8 -9 15 -20
15 -11 0 -23 -7 -26 -15 -4 -10 -20 -15 -44 -15 -24 0 -40 5 -44 15 -4 12 -31
15 -156 15 l-150 0 0 -525 0 -525 -115 0 -115 0 0 -25 c0 -14 -4 -25 -10 -25
-5 0 -10 11 -10 25 l0 25 -255 0 -256 0 3 -157 3 -158 250 0 250 0 3 28 c5 42
22 32 22 -13 l0 -40 -275 0 -275 0 0 151 c0 118 -3 148 -12 142 -7 -4 -39 -8
-71 -8 -64 -1 -89 14 -67 40 11 13 5 15 -40 15 -46 0 -51 -2 -40 -16 11 -12
10 -18 -3 -32 -16 -15 -18 -15 -34 0 -13 14 -14 20 -3 32 11 14 9 16 -14 16
l-26 0 -2 108 c-1 59 -3 90 -5 70 l-4 -38 -97 -1 -97 0 53 -20 c193 -75 255
-336 117 -496 -32 -38 -35 -46 -35 -107 l0 -66 -95 0 -95 0 0 35 c0 33 -2 35
-35 35 -104 0 -225 89 -264 195 -60 160 18 345 169 403 l55 21 -47 0 -48 1 0
35 0 35 -185 0 -185 0 0 160 0 160 -155 0 -155 0 0 295 0 295 30 0 c34 0 40
-15 10 -23 -20 -5 -20 -12 -18 -274 l3 -268 139 -3 c105 -2 142 1 148 10 8 10
11 10 15 1 2 -7 13 -13 24 -13 16 0 19 7 19 55 l0 55 160 0 160 0 0 -55 c0
-30 5 -55 10 -55 6 0 10 -4 10 -10 0 -6 -70 -10 -190 -10 l-190 0 0 -150 0
-150 70 0 70 0 0 30 0 30 100 0 100 0 0 -30 0 -30 205 0 c198 0 205 1 205 20
0 11 7 20 15 20 8 0 15 -7 15 -15 0 -8 7 -15 15 -15 12 0 15 -18 15 -105 l0
-105 515 0 515 0 0 375 0 375 -35 0 -35 0 0 -350 0 -350 -450 0 -450 0 0 201
0 201 -59 -7 -59 -7 -4 29 c-3 28 -3 28 -85 31 l-83 3 0 304 0 305 -35 0 c-35
0 -35 0 -35 45 l0 45 -115 0 c-70 0 -115 4 -115 10 0 6 19 10 41 10 l42 0 -8
120 c-6 106 -5 120 9 120 14 0 16 -17 16 -120 l0 -120 200 0 200 0 0 188 c0
103 3 319 7 480 5 234 9 292 20 292 8 0 13 -13 14 -37 1 -22 3 -29 6 -18 8 32
16 35 63 21 38 -12 45 -17 42 -37 -2 -22 -2 -23 11 -5 13 18 15 17 55 -9 23
-15 42 -34 42 -41 0 -8 9 -14 20 -14 16 0 20 -7 20 -35 0 -28 4 -35 20 -35 17
0 20 -7 20 -40 0 -38 2 -40 30 -40 29 0 30 -1 30 -50 l0 -50 315 0 315 0 0
110 0 110 -55 0 -55 0 0 55 0 55 55 0 55 0 0 40 c0 29 4 40 15 40 13 0 15 -29
15 -205z m721 -222 c23 -23 -6 -39 -70 -38 -65 1 -92 15 -73 37 14 17 127 17
143 1z m1999 -53 l0 -70 -70 0 -70 0 0 70 0 70 70 0 70 0 0 -70z m250 0 l0
-70 -115 0 -115 0 0 70 0 70 115 0 115 0 0 -70z m60 54 c11 -12 10 -18 -3 -32
-16 -15 -18 -15 -34 0 -13 14 -14 20 -3 32 7 9 16 16 20 16 4 0 13 -7 20 -16z
m-2720 -249 l0 -95 -65 0 -65 0 0 95 0 95 65 0 65 0 0 -95z m-1980 27 c0 -4
-16 -6 -35 -4 -34 4 -35 3 -35 -31 0 -29 4 -36 23 -40 19 -4 18 -4 -5 -6 -27
-1 -28 1 -28 44 l0 45 40 0 c22 0 40 -4 40 -8z m-12 -149 c-24 -4 -28 -9 -28
-38 0 -29 4 -34 28 -38 25 -4 25 -4 -5 -6 -33 -1 -33 0 -33 44 0 44 0 45 33
44 30 -2 30 -2 5 -6z m2602 -518 c0 -323 -3 -495 -10 -495 -7 0 -10 168 -10
485 l0 485 -60 0 c-33 0 -60 4 -60 10 0 6 30 10 70 10 l70 0 0 -495z m1750
359 c11 -12 10 -18 -3 -32 -16 -15 -18 -15 -34 0 -13 14 -14 20 -3 32 7 9 16
16 20 16 4 0 13 -7 20 -16z m-2202 -66 l-3 -43 -102 -3 -103 -3 0 46 0 45 106
0 105 0 -3 -42z m790 -83 c3 -2 1 -30 -3 -61 l-7 -57 -56 7 c-31 4 -58 9 -60
11 -3 2 -1 30 3 61 l7 57 56 -7 c31 -4 58 -9 60 -11z m1852 0 c10 -12 10 -18
0 -30 -10 -12 -10 -18 0 -31 11 -12 10 -18 -3 -32 -16 -15 -18 -15 -34 0 -13
14 -14 20 -3 32 10 13 10 19 0 31 -10 12 -10 18 0 30 7 8 16 15 20 15 4 0 13
-7 20 -15z m-4536 -71 c21 -20 20 -53 -1 -76 -33 -36 -93 -13 -93 37 0 13 7
31 16 39 8 9 26 16 39 16 13 0 31 -7 39 -16z m-2442 -236 c3 -160 3 -163 26
-166 21 -3 22 -6 22 -127 0 -116 1 -123 21 -128 15 -4 20 -12 17 -29 -4 -28
-45 -38 -54 -14 -5 14 -28 16 -145 16 l-138 0 -3 103 -3 102 -302 3 -303 2 0
-90 0 -90 -40 0 -40 0 0 290 0 290 470 0 470 0 2 -162z m1118 92 l0 -60 -60 0
-60 0 0 60 0 60 60 0 60 0 0 -60z m774 -16 c17 -7 22 -44 6 -44 -5 0 -10 9
-10 20 0 13 -7 20 -20 20 -13 0 -20 -7 -20 -20 0 -11 -4 -20 -10 -20 -5 0 -10
9 -10 19 0 26 30 38 64 25z m550 -30 c34 -34 9 -94 -39 -94 -30 0 -55 25 -55
55 0 13 7 31 16 39 8 9 26 16 39 16 13 0 31 -7 39 -16z m-594 -144 c0 -5 -4
-10 -10 -10 -5 0 -10 5 -10 10 0 6 5 10 10 10 6 0 10 -4 10 -10z m60 0 c0 -5
-4 -10 -10 -10 -5 0 -10 5 -10 10 0 6 5 10 10 10 6 0 10 -4 10 -10z m5390 -36
c11 -12 10 -18 -3 -32 -16 -15 -18 -15 -34 0 -13 14 -14 20 -3 32 7 9 16 16
20 16 4 0 13 -7 20 -16z m-6190 -214 l0 -80 -235 0 -235 0 0 80 0 80 235 0
235 0 0 -80z m2970 20 l0 -60 -60 0 -60 0 0 60 0 60 60 0 60 0 0 -60z m-2186
-62 c3 -46 8 -129 12 -185 l5 -103 -79 0 -80 0 -6 73 c-3 39 -9 123 -12 185
l-7 112 81 0 80 0 6 -82z m360 6 c34 -34 9 -94 -39 -94 -30 0 -55 25 -55 55 0
13 7 31 16 39 8 9 26 16 39 16 13 0 31 -7 39 -16z m320 0 c34 -34 9 -94 -39
-94 -30 0 -55 25 -55 55 0 13 7 31 16 39 8 9 26 16 39 16 13 0 31 -7 39 -16z
m1847 -425 c26 -90 45 -165 44 -167 -5 -5 -147 -44 -149 -40 -6 7 -94 333 -91
336 6 7 131 40 140 38 6 -1 31 -76 56 -167z m459 -104 c0 -13 -22 -15 -135
-15 l-135 0 1 -47 1 -48 10 43 c10 44 10 44 46 37 80 -14 78 -11 61 -81 -9
-34 -15 -43 -28 -40 -9 3 -33 8 -53 12 l-38 6 0 -61 c0 -48 -3 -61 -15 -61
-10 0 -15 10 -15 30 l0 31 -127 -3 -128 -3 -3 -27 c-5 -43 -22 -33 -22 12 l0
40 140 0 140 0 0 95 0 95 150 0 c127 0 150 -2 150 -15z m-1520 -75 l0 -50 -35
0 -35 0 0 50 0 50 35 0 35 0 0 -50z m80 0 l0 -50 -35 0 -35 0 0 50 0 50 35 0
35 0 0 -50z m2050 -15 l0 -65 -65 0 -65 0 0 65 0 65 65 0 65 0 0 -65z m-1032
-187 c7 -7 12 -24 12 -38 0 -14 -5 -31 -12 -38 -7 -7 -24 -12 -38 -12 -14 0
-31 5 -38 12 -7 7 -12 24 -12 38 0 14 5 31 12 38 7 7 24 12 38 12 14 0 31 -5
38 -12z m1032 -83 l0 -75 -75 0 -75 0 0 75 0 75 75 0 75 0 0 -75z m-3020 -130
l0 -55 -55 0 -55 0 0 55 0 55 55 0 55 0 0 -55z m370 -55 l0 -70 -30 0 c-28 0
-30 -2 -30 -40 l0 -40 -40 0 -40 0 0 110 0 110 70 0 70 0 0 -70z m510 -170 l0
-100 90 0 90 0 0 -80 0 -80 -190 0 -190 0 0 80 0 80 40 0 40 0 0 60 c0 53 2
60 20 60 17 0 20 7 20 40 l0 40 40 0 40 0 0 -100z m1420 -130 l0 -230 -75 0
-75 0 0 230 0 230 75 0 75 0 0 -230z m720 95 l0 -75 -75 0 -75 0 0 75 0 75 75
0 75 0 0 -75z m-1205 -35 c0 -18 -6 -26 -23 -28 -13 -2 -25 3 -28 12 -10 26 4
48 28 44 17 -2 23 -10 23 -28z m115 5 c0 -23 -3 -25 -50 -25 -47 0 -50 2 -50
25 0 23 3 25 50 25 47 0 50 -2 50 -25z m710 -220 l0 -75 -75 0 -75 0 0 75 0
75 75 0 75 0 0 -75z"/>
<path d="M5350 5270 l0 -430 35 0 35 0 0 395 0 395 95 0 95 0 0 35 0 35 -130
0 -130 0 0 -430z"/>
<path d="M5730 5665 l0 -35 290 0 290 0 0 -460 0 -460 35 0 35 0 0 495 0 495
-325 0 -325 0 0 -35z"/>
<path d="M5430 5225 l0 -385 100 0 100 0 0 -175 0 -175 45 0 c25 0 45 -4 45
-10 0 -5 11 -10 24 -10 23 0 36 -16 36 -46 0 -21 -48 -18 -53 4 -4 14 -5 13
-6 -4 -1 -19 -9 -22 -68 -27 -38 -4 -103 -7 -145 -7 l-78 0 0 -190 0 -190 50
0 50 0 0 50 0 50 50 0 50 0 0 -50 0 -50 225 0 225 0 0 50 0 50 50 0 50 0 0
-50 0 -50 60 0 60 0 0 800 0 800 -285 0 -285 0 0 -25 c0 -24 -3 -25 -60 -25
-57 0 -60 1 -60 25 0 25 -1 25 -90 25 l-90 0 0 -385z m481 -34 l29 -29 29 29
c22 21 39 29 66 29 51 0 95 -44 95 -95 0 -51 -44 -95 -95 -95 -27 0 -44 8 -66
29 l-29 29 -29 -29 c-22 -21 -39 -29 -66 -29 -51 0 -95 44 -95 95 0 27 8 44
29 66 22 21 39 29 66 29 27 0 44 -8 66 -29z"/>
<path d="M5070 5100 l0 -30 115 0 115 0 0 30 0 30 -115 0 -115 0 0 -30z"/>
<path d="M5130 4937 c0 -63 3 -196 7 -295 l6 -182 84 0 c67 0 83 3 83 15 0 9
9 15 25 15 23 0 25 -4 25 -40 l0 -40 120 0 120 0 0 205 0 205 -135 0 -135 0 0
-75 c0 -43 -4 -75 -10 -75 -6 0 -10 30 -10 70 l0 70 -65 0 c-51 0 -65 3 -65
15 0 8 5 15 10 15 6 0 10 -4 10 -10 0 -5 23 -10 50 -10 l50 0 0 60 0 60 -50 0
c-27 0 -50 -4 -50 -10 0 -5 -4 -10 -10 -10 -5 0 -10 7 -10 15 0 12 14 15 65
15 l65 0 0 50 0 50 -90 0 -90 0 0 -113z"/>
<path d="M5515 3900 c4 -6 11 -8 16 -5 14 9 11 15 -7 15 -8 0 -12 -5 -9 -10z"/>
<path d="M5565 3900 c4 -6 11 -8 16 -5 14 9 11 15 -7 15 -8 0 -12 -5 -9 -10z"/>
<path d="M6582 5468 l3 -73 40 0 40 0 3 73 3 72 -46 0 -46 0 3 -72z"/>
<path d="M6652 5118 l3 -33 90 0 90 0 0 30 0 30 -93 3 -93 3 3 -33z"/>
<path d="M4886 4952 c-10 -12 -14 -26 -9 -38 13 -36 42 -44 67 -18 26 26 18
56 -20 68 -14 4 -26 0 -38 -12z"/>
<path d="M1600 4595 c0 -170 4 -265 10 -265 6 0 10 37 10 90 l0 90 330 0 329
0 7 -35 c3 -19 4 -67 2 -105 l-4 -70 128 0 128 0 0 114 c0 111 -1 115 -22 118
-23 3 -23 6 -26 166 l-2 162 -445 0 -445 0 0 -265z"/>
<path d="M4898 4769 c-23 -13 -24 -65 -2 -73 22 -8 66 21 62 41 -5 25 -40 44
-60 32z"/>
<path d="M4702 4334 c-28 -19 -28 -39 0 -58 15 -11 26 -12 40 -5 23 12 25 64
2 73 -20 8 -16 9 -42 -10z"/>
<path d="M5022 4334 c-28 -19 -28 -39 0 -58 15 -11 26 -12 40 -5 23 12 25 64
2 73 -20 8 -16 9 -42 -10z"/>
<path d="M5814 3766 c-11 -28 0 -61 21 -61 16 0 20 7 20 35 0 25 -5 36 -18 38
-9 2 -20 -3 -23 -12z"/>
<path d="M5894 3766 c-11 -28 0 -61 21 -61 16 0 20 7 20 35 0 25 -5 36 -18 38
-9 2 -20 -3 -23 -12z"/>
<path d="M6900 3515 c-10 -12 -10 -18 0 -30 20 -25 55 -15 55 15 0 30 -35 40
-55 15z"/>
<path d="M7910 5457 c0 -257 -8 -240 80 -172 25 19 70 47 100 62 53 27 61 28
251 31 190 3 197 2 252 -22 31 -13 78 -45 105 -70 47 -44 51 -46 111 -46 l61
0 0 220 0 220 -480 2 -480 3 0 -228z"/>
<path d="M8141 5336 c-26 -9 -30 -14 -20 -23 11 -9 28 -8 69 4 64 17 264 13
319 -7 25 -10 35 -10 40 -1 4 6 15 9 24 5 9 -3 17 -2 17 4 0 23 -69 32 -239
31 -111 0 -188 -5 -210 -13z"/>
<path d="M1275 1472 c-31 -19 -63 -52 -51 -52 9 0 96 59 96 65 0 9 -16 5 -45
-13z"/>
<path d="M1290 1449 c-67 -49 -91 -71 -86 -77 3 -2 36 17 75 42 39 25 71 44
71 41 0 -2 -29 -24 -64 -50 -67 -48 -116 -95 -66 -64 102 63 190 123 190 129
0 8 -36 20 -55 19 -5 0 -35 -18 -65 -40z"/>
<path d="M1380 1430 c-19 -16 -29 -29 -21 -30 18 0 81 39 81 51 0 18 -26 9
-60 -21z"/>
<path d="M1417 1418 c-26 -19 -36 -38 -19 -38 4 0 20 11 36 23 36 29 21 43
-17 15z"/>
<path d="M1314 1366 c-12 -31 0 -51 31 -51 27 0 30 3 30 30 0 25 -4 30 -28 33
-17 2 -29 -2 -33 -12z"/>
<path d="M1235 1325 c-16 -14 -25 -25 -20 -25 6 0 24 11 40 25 17 13 26 24 20
24 -5 0 -23 -11 -40 -24z"/>
<path d="M1250 1295 c-19 -14 -30 -25 -26 -25 13 0 66 34 66 42 0 12 -3 10
-40 -17z"/>
<path d="M1408 1282 c-16 -9 -28 -20 -28 -24 0 -12 3 -10 40 17 38 28 29 33
-12 7z"/>
<path d="M1418 1253 c-15 -10 -30 -23 -32 -30 -3 -7 13 -1 34 13 22 15 40 28
40 30 0 8 -16 3 -42 -13z"/>
<path d="M1290 1240 c-9 -16 -8 -25 1 -36 16 -19 58 -18 66 2 16 41 -46 73
-67 34z"/>
<path d="M1445 1231 c-6 -5 -50 -34 -100 -65 -49 -31 -78 -46 -62 -33 31 26
26 43 -7 25 -19 -10 -20 -10 -7 6 8 9 11 19 8 22 -9 9 -67 -29 -67 -43 0 -16
12 -17 30 0 12 10 12 9 1 -6 -12 -15 -11 -20 5 -32 30 -22 73 -29 91 -13 14
11 16 11 9 -1 -7 -10 -3 -12 15 -6 32 10 79 44 79 56 0 6 -12 2 -27 -9 -45
-31 -57 -36 -49 -24 4 7 27 26 52 42 80 56 46 51 -41 -5 -47 -30 -85 -53 -85
-51 0 3 41 35 90 72 50 36 90 68 90 70 0 7 -16 4 -25 -5z"/>
<path d="M1744 766 c-9 -24 0 -51 19 -54 14 -3 17 4 17 32 0 26 -4 36 -15 36
-9 0 -18 -6 -21 -14z"/>
<path d="M1460 828 c0 -24 12 -58 20 -58 12 0 21 31 15 51 -7 21 -35 26 -35 7z"/>
<path d="M1070 745 c0 -37 22 -49 34 -19 9 23 -2 54 -20 54 -9 0 -14 -11 -14
-35z"/>
<path d="M1274 785 c-3 -8 -3 -19 1 -25 11 -18 25 -11 25 15 0 27 -17 34 -26
10z"/>
<path d="M1617 743 c-13 -12 -7 -33 8 -33 8 0 15 9 15 20 0 20 -11 26 -23 13z"/>
<path d="M1887 743 c-13 -12 -7 -33 8 -33 8 0 15 9 15 20 0 20 -11 26 -23 13z"/>
</g>
</svg>
