<?xml version="1.0" standalone="no"?>
<!DOCTYPE svg PUBLIC "-//W3C//DTD SVG 20010904//EN"
 "http://www.w3.org/TR/2001/REC-SVG-20010904/DTD/svg10.dtd">
<svg version="1.0" xmlns="http://www.w3.org/2000/svg"
 width="1024.000000pt" height="1024.000000pt" viewBox="0 0 1024.000000 1024.000000"
 preserveAspectRatio="xMidYMid meet">

<rect width="100%" height="100%" fill="#222222" />
  
<g transform="translate(0.000000,1024.000000) scale(0.100000,-0.100000)"
fill="#000000" stroke="none">
<path d="M4050 9757 l0 -333 120 -59 c77 -38 120 -65 120 -75 0 -9 14 -24 31
-34 18 -11 27 -21 21 -25 -6 -4 -41 -69 -77 -145 l-65 -138 -33 6 c-17 3 -55
8 -84 12 l-52 6 -133 -109 c-73 -61 -169 -143 -213 -183 -44 -40 -98 -81 -120
-90 -24 -10 -62 -43 -93 -79 -30 -34 -66 -68 -82 -76 -18 -9 -47 -47 -82 -107
-29 -51 -54 -96 -56 -100 -2 -4 20 -19 48 -33 47 -24 50 -27 39 -48 -6 -12
-19 -29 -29 -37 -28 -23 -323 -608 -316 -626 7 -19 -20 -74 -37 -74 -14 0
-240 -447 -232 -460 3 -5 -2 -25 -12 -44 -13 -29 -22 -35 -42 -33 -17 1 -200
-88 -547 -268 l-522 -270 -4 -1405 -4 -1405 406 -817 405 -817 320 158 c176
87 338 170 359 184 21 15 42 27 46 27 10 0 30 -51 27 -70 -1 -8 135 -288 303
-623 234 -465 309 -607 321 -604 9 3 332 176 719 386 576 312 711 381 742 381
36 0 38 2 38 30 0 25 4 30 25 30 21 0 25 -5 25 -30 l0 -30 223 2 222 3 3 163
c1 97 6 162 12 162 6 0 10 -7 10 -14 0 -13 71 -15 505 -16 l505 0 0 228 c0
164 3 231 12 240 15 15 848 18 848 2 0 -6 -69 -11 -172 -12 l-173 -3 -3 -250
-2 -250 -227 -227 c-201 -201 -225 -229 -211 -240 16 -12 15 -15 -9 -42 -22
-26 -27 -28 -45 -17 -19 12 -31 3 -144 -110 -117 -117 -123 -124 -107 -141 16
-18 15 -20 -9 -44 -22 -23 -28 -24 -47 -13 -20 13 -29 6 -148 -113 -121 -121
-126 -128 -110 -146 16 -17 15 -20 -11 -45 -26 -25 -29 -26 -45 -10 -16 17
-24 11 -144 -109 -101 -101 -124 -129 -115 -140 6 -8 9 -23 7 -34 -4 -14 60
-85 260 -289 242 -247 266 -269 284 -258 13 8 22 9 26 3 15 -25 48 -2 162 112
116 116 122 123 106 140 -16 18 -15 20 10 45 25 25 27 26 45 10 17 -16 24 -10
145 111 121 121 126 128 110 145 -17 16 -16 19 9 44 26 25 28 26 46 10 17 -16
24 -10 145 111 119 119 126 129 111 144 -16 16 -16 19 0 42 19 30 38 33 57 10
11 -13 56 28 348 320 l336 336 183 0 c175 0 184 1 189 20 3 11 9 20 14 20 5 0
9 7 9 15 0 8 9 15 20 15 18 0 20 7 20 65 0 58 -2 65 -20 65 -19 0 -20 7 -20
260 l0 260 -25 0 c-24 0 -25 2 -25 68 0 73 22 124 43 103 6 -6 14 -11 17 -11
4 0 47 43 95 96 75 82 87 99 77 114 -9 14 -6 22 12 39 18 17 35 21 84 21 48 0
62 -3 62 -15 0 -11 13 -15 53 -15 28 0 89 -3 135 -7 79 -6 83 -5 89 15 5 20
12 22 80 22 l75 0 -3 88 c-4 84 -3 87 19 90 22 3 22 5 22 158 l0 154 -25 0
c-14 0 -25 4 -25 10 0 6 -149 11 -412 12 l-412 3 -168 330 c-92 182 -168 336
-168 343 0 6 6 12 13 12 7 0 32 -38 55 -85 l42 -85 475 0 475 0 0 487 0 486
-202 398 -203 399 -172 0 -173 0 0 305 0 305 78 0 77 0 305 609 c167 336 302
612 300 615 -8 7 -823 406 -831 406 -4 0 -49 -81 -101 -180 l-93 -180 -182 0
-183 0 0 190 0 190 -505 0 -505 0 -311 155 c-170 86 -315 152 -321 149 -7 -5
-8 -2 -3 6 6 10 4 12 -9 7 -9 -4 -15 -3 -12 1 3 5 -38 29 -90 55 l-94 47 0
590 0 590 -475 0 c-310 0 -475 -3 -475 -10 0 -5 -4 -10 -10 -10 -6 0 -10 45
-10 115 l0 115 -127 2 c-91 1 -105 3 -50 5 l77 4 0 234 0 235 -430 0 -430 0 0
-333z m650 298 c0 -24 -2 -25 -65 -25 -63 0 -65 1 -65 25 0 24 2 25 65 25 63
0 65 -1 65 -25z m140 -5 c0 -27 -3 -30 -30 -30 -27 0 -30 3 -30 30 0 27 3 30
30 30 27 0 30 -3 30 -30z m60 0 c0 -25 -4 -30 -25 -30 -21 0 -25 5 -25 30 0
25 4 30 25 30 21 0 25 -5 25 -30z m-2 -342 c-3 -60 -4 -63 -30 -66 l-28 -3 0
65 0 66 30 0 31 0 -3 -62z m-548 -34 c0 -30 27 -44 84 -44 43 0 56 -3 56 -15
0 -9 10 -15 26 -15 25 0 26 -1 22 -64 l-3 -63 168 -87 c92 -48 167 -92 167
-97 0 -5 -15 -40 -34 -77 -66 -132 -81 -173 -65 -183 24 -15 28 -11 69 71 l40
80 60 0 c47 0 60 3 60 15 0 30 29 15 35 -19 6 -29 -5 -57 -71 -190 -42 -86
-81 -156 -87 -156 -20 0 -117 51 -117 61 0 6 11 33 25 60 l24 49 -32 16 c-18
9 -33 18 -35 19 -2 2 25 58 58 126 59 117 61 123 44 137 -11 7 -94 52 -186 99
-93 47 -165 89 -162 94 3 5 -7 9 -21 9 -15 0 -35 5 -45 10 -14 8 -21 6 -28 -6
-8 -14 -16 -12 -70 15 l-62 31 0 70 0 70 40 0 c30 0 40 -4 40 -16z m650 -169
c0 -63 -1 -65 -25 -65 -24 0 -25 2 -25 65 0 63 1 65 25 65 24 0 25 -2 25 -65z
m-805 -593 l120 -17 -3 -95 c-2 -52 -7 -99 -12 -104 -4 -4 -121 7 -260 26
l-252 33 112 92 c99 82 115 91 143 87 18 -3 86 -13 152 -22z m1669 -143 c59
-28 105 -53 103 -55 -3 -3 -52 18 -111 45 -75 35 -108 46 -113 38 -5 -7 -10
-75 -13 -152 l-5 -140 -56 2 -56 3 -23 -50 c-13 -28 -22 -52 -19 -54 2 -2 90
-43 194 -92 166 -77 280 -136 235 -121 -43 14 -449 211 -446 216 1 3 45 97 96
209 51 111 97 202 100 202 4 0 56 -23 114 -51z m-1169 -127 c-3 -3 -11 0 -18
7 -9 10 -8 11 6 5 10 -3 15 -9 12 -12z m-98 -386 c8 -3 4 -28 -14 -83 -15 -43
-28 -80 -30 -82 -6 -8 -153 43 -154 53 0 6 -4 2 -9 -9 -6 -16 -26 -25 -81 -38
-41 -10 -77 -17 -80 -17 -4 0 -14 33 -24 73 -9 39 -18 77 -20 83 -2 7 30 20
80 33 47 12 86 21 89 21 2 0 9 -30 16 -66 7 -36 16 -62 20 -57 4 4 15 33 24
63 9 30 19 60 21 67 4 11 57 -3 162 -41z m640 -137 c24 -35 43 -67 43 -71 0
-8 -163 -118 -174 -118 -12 0 -97 143 -89 151 21 21 159 107 168 105 6 -1 29
-31 52 -67z m1013 -54 c0 -10 -50 -105 -56 -105 -2 0 -22 9 -44 20 -54 28 -68
25 -87 -15 -26 -53 -59 -45 -44 11 7 27 16 31 112 61 114 34 119 35 119 28z
m-2477 -85 c27 -10 37 -20 37 -36 0 -17 22 -31 126 -80 70 -32 128 -64 131
-70 2 -6 -73 -166 -168 -355 l-172 -344 -5 -197 -5 -198 142 0 141 0 0 -50 c0
-47 -2 -50 -25 -50 -25 0 -25 -1 -25 -90 l0 -90 35 0 c31 0 35 -3 35 -25 l0
-25 111 0 112 0 53 -46 54 -46 0 -164 0 -164 -40 0 -40 0 0 -180 0 -180 43 0
43 0 -4 -161 -4 -160 -47 -44 -46 -45 -122 0 -123 0 0 -30 0 -30 -75 0 c-60 0
-75 3 -75 15 0 13 -38 15 -282 15 l-283 0 -97 97 -98 98 0 137 0 138 -290 0
-290 0 0 -40 c0 -36 -2 -40 -25 -40 l-25 0 0 195 0 195 -100 0 -100 0 0 60 0
60 94 0 c103 0 126 5 126 26 0 12 50 14 295 14 l295 0 1 103 c1 56 4 180 8
276 6 161 5 174 -12 186 -18 12 -18 14 2 54 12 23 26 41 32 41 14 0 222 429
221 454 -1 24 26 78 46 90 14 8 312 606 312 626 0 15 33 81 39 78 3 -2 23 -10
44 -18z m2206 7 c-2 -2 -164 -53 -359 -112 -195 -60 -358 -111 -362 -114 -4
-3 2 -46 11 -94 l19 -88 -35 -14 c-45 -19 -64 -19 -89 0 -22 17 -12 20 17 4
14 -7 30 -7 54 1 30 10 35 16 35 43 0 25 -3 29 -10 17 -8 -11 -9 -9 -5 10 3
14 1 47 -5 74 -6 27 -9 51 -6 53 3 3 52 20 111 37 58 18 102 36 98 40 -4 4 -1
5 7 2 8 -3 121 27 250 68 203 64 285 86 269 73z m-51 -289 c2 -9 -22 -70 -52
-134 -31 -64 -56 -118 -56 -119 0 -1 23 -12 51 -25 50 -24 51 -25 43 -60 -9
-42 -12 -456 -3 -465 5 -4 215 -44 237 -45 6 0 1 -50 -6 -50 -5 0 -57 9 -117
20 -60 11 -110 20 -112 20 -2 0 -3 -22 -3 -50 l0 -50 -45 0 -45 0 0 114 c0 66
4 117 10 121 15 9 13 292 -2 301 -7 4 -8 3 -4 -4 4 -7 -2 -32 -13 -57 l-20
-45 -58 26 c-32 14 -75 32 -95 41 -41 16 -53 36 -38 63 14 26 13 29 -9 23 -10
-3 -28 0 -38 5 -17 9 -21 6 -32 -24 -7 -19 -19 -34 -27 -34 -27 0 -134 60
-134 75 0 28 50 115 66 115 8 0 37 -11 64 -25 27 -14 52 -25 55 -25 3 0 24 38
45 85 21 47 45 85 52 85 7 0 33 -11 57 -25 23 -14 46 -25 50 -25 3 0 -2 5 -11
11 -22 12 -23 42 -3 59 15 12 55 5 55 -11 0 -26 20 -2 50 61 30 63 37 71 60
68 14 -2 26 -10 28 -20z m-949 -23 c16 -8 31 -11 35 -8 3 4 6 1 6 -6 0 -7 5
-9 10 -6 6 3 10 2 10 -3 0 -5 23 -19 50 -32 28 -13 50 -29 50 -35 0 -7 -40
-99 -90 -204 -49 -106 -90 -194 -90 -196 0 -6 367 -195 378 -195 5 0 17 20 26
45 13 32 23 45 37 45 24 0 24 -21 -1 -70 l-20 -40 45 0 45 0 0 -115 0 -115
-60 0 -60 0 0 -217 c0 -120 -3 -228 -6 -240 -6 -22 -4 -23 60 -23 l66 0 0
-115 0 -114 -62 -3 -63 -3 -2 -65 c-3 -63 0 -72 86 -260 86 -188 90 -195 120
-198 31 -3 31 -4 31 -63 l0 -59 119 0 119 0 7 128 c5 70 5 268 1 440 l-6 312
45 0 45 0 0 -60 c0 -54 2 -60 21 -60 16 0 19 4 14 23 -4 12 -8 29 -10 37 -2 8
-6 27 -9 42 -6 24 -3 28 31 37 52 15 50 16 58 -26 3 -21 9 -48 12 -60 4 -18 1
-23 -13 -24 -11 0 -14 -3 -8 -5 5 -2 110 20 232 51 123 30 227 55 232 55 6 0
10 -15 10 -33 l0 -32 -282 -69 c-185 -45 -287 -74 -295 -85 -9 -12 -12 -131
-13 -493 l0 -478 -210 0 -209 0 -3 98 -3 97 -42 3 c-24 2 -43 1 -43 -3 0 -3
18 -42 41 -86 22 -45 39 -83 37 -85 -2 -2 -24 37 -48 86 -24 50 -47 90 -50 90
-3 0 -53 95 -110 210 -58 119 -109 210 -116 210 -20 0 -19 89 1 96 13 5 15 56
15 375 0 321 -2 369 -15 369 -21 0 -21 76 0 88 13 7 15 31 13 151 l-3 143
-227 116 c-165 84 -228 121 -228 134 0 9 48 118 106 240 58 123 110 235 116
251 11 31 26 33 67 12z m554 -422 c-7 -2 -19 -2 -25 0 -7 3 -2 5 12 5 14 0 19
-2 13 -5z m1457 -38 l0 -45 -65 0 -65 0 0 45 0 45 65 0 65 0 0 -45z m610 -128
c52 -27 90 -90 90 -149 0 -186 -254 -242 -331 -74 -23 50 -24 85 -4 134 44
103 148 141 245 89z m-590 -407 l0 -120 -75 0 -75 0 0 120 0 120 75 0 75 0 0
-120z m-2447 -134 l137 -144 0 -246 0 -246 60 0 c33 0 60 -4 60 -10 0 -6 -28
-10 -65 -10 l-65 0 0 257 0 258 -142 142 c-79 79 -138 143 -133 143 6 0 72
-65 148 -144z m3597 -516 l0 -500 -70 0 -70 0 0 -210 0 -210 -510 0 -510 0 0
225 0 225 330 0 330 0 0 130 0 130 -60 0 -60 0 0 50 0 50 60 0 60 0 0 305 0
305 250 0 250 0 0 -500z m-5853 424 c8 -21 -13 -42 -28 -27 -13 13 -5 43 11
43 6 0 13 -7 17 -16z m4628 -215 c193 -17 352 -33 354 -35 5 -5 -26 -375 -32
-381 -6 -5 -756 63 -763 70 -3 3 1 81 10 174 9 92 16 176 16 186 0 23 2 23
415 -14z m-911 -185 c14 -38 6 -51 -36 -62 -47 -12 -52 -10 -62 30 -5 24 -3
28 21 34 16 3 33 7 38 9 22 7 33 4 39 -11z m-4156 -261 c-5 -26 -38 -29 -38
-4 0 15 6 21 21 21 14 0 19 -5 17 -17z m4158 -135 c-3 -29 -6 -81 -6 -115 l0
-63 -55 0 -55 0 0 115 0 115 61 0 62 0 -7 -52z m-1260 -5 l-59 -4 6 -246 5
-247 -146 -153 -147 -153 -67 0 c-39 0 -68 4 -68 10 0 6 27 10 62 10 l63 0
142 142 143 143 0 252 0 253 63 -2 62 -2 -59 -3z m1164 -263 c0 -64 -3 -80
-15 -80 -12 0 -15 16 -15 80 0 64 3 80 15 80 12 0 15 -16 15 -80z m-3410 -227
l0 -68 97 -97 98 -98 572 0 573 0 0 25 c0 24 2 25 75 25 l75 0 0 -55 0 -55
-442 0 -443 0 3 -731 3 -731 120 -232 c65 -128 119 -239 119 -247 0 -9 -98
-63 -245 -137 -135 -67 -247 -122 -250 -122 -3 0 -30 49 -60 110 l-55 110 0
450 c0 443 0 450 -20 450 -17 0 -20 7 -20 39 0 30 4 40 20 44 19 5 20 14 20
276 0 264 0 271 -20 271 -17 0 -20 7 -20 39 0 30 4 40 20 44 19 5 20 14 20
191 l0 186 -120 0 c-79 0 -120 -4 -120 -11 0 -6 -10 -9 -22 -7 -23 3 -23 4
-26 201 l-2 197 25 0 c24 0 25 -2 25 -67z m2984 -141 l25 -49 -57 -54 c-118
-112 -144 -130 -52 -37 l94 98 -22 45 c-12 25 -20 45 -17 45 3 0 16 -22 29
-48z m2506 -375 l0 -193 -344 -168 -343 -168 30 -119 29 -119 64 -1 c35 -1 69
-3 74 -4 6 -1 28 -3 50 -4 l40 -1 0 -175 0 -174 -59 -3 -58 -3 144 -210 c79
-115 148 -211 154 -213 5 -2 9 -8 9 -14 0 -5 32 -57 72 -114 l71 -104 104 0
c96 0 103 -1 103 -20 0 -20 -7 -20 -950 -20 l-950 0 -1 53 c0 28 0 175 1 325
l1 272 -125 0 -126 0 0 198 c0 109 -3 334 -7 500 l-6 302 44 0 44 0 0 37 c1
21 2 72 3 114 l2 76 450 -1 450 -1 0 73 0 72 515 0 515 0 0 -193z m-2670 8 l0
-115 -168 0 -169 0 -80 -75 c-45 -41 -84 -75 -88 -75 -19 0 9 34 85 103 l84
77 62 0 c45 0 63 4 66 14 4 17 184 186 198 186 6 0 10 -44 10 -115z m-3232 72
c2 -12 -3 -17 -17 -17 -12 0 -21 6 -21 13 0 31 32 34 38 4z m3632 -152 c0 -70
-4 -115 -10 -115 -6 0 -10 45 -10 115 0 70 4 115 10 115 6 0 10 -45 10 -115z
m3108 50 c14 -29 -2 -34 -18 -6 -12 24 -13 31 -2 31 5 0 14 -11 20 -25z
m-3811 -111 c-3 -3 -12 -4 -19 -1 -8 3 -5 6 6 6 11 1 17 -2 13 -5z m323 -54
c0 -27 -4 -50 -10 -50 -5 0 -10 23 -10 50 0 28 5 50 10 50 6 0 10 -22 10 -50z
m-3472 -26 c24 -17 30 -61 12 -95 -8 -14 -21 -19 -55 -19 -50 0 -65 16 -65 69
0 33 30 61 65 61 11 0 31 -7 43 -16z m50 -190 c-6 -70 -27 -94 -83 -94 -61 0
-80 18 -80 77 0 48 0 48 44 63 24 8 61 14 83 12 l40 -4 -4 -54z m3562 -64 l0
-40 125 0 126 0 -3 -127 -3 -128 -132 -3 -133 -3 0 -304 0 -305 40 0 40 0 0
-85 0 -85 108 0 c60 0 157 -3 215 -7 l107 -6 0 -264 0 -263 135 0 c128 0 135
-1 135 -20 0 -16 7 -20 35 -20 19 0 35 5 35 10 0 6 5 10 11 10 6 0 9 -6 6 -13
-3 -8 4 -13 22 -12 26 0 26 -1 29 -82 l3 -83 -301 0 c-260 0 -300 -2 -300 -15
0 -8 -9 -15 -20 -15 -19 0 -20 7 -20 193 l-1 192 -502 507 -502 506 -190 -93
c-104 -52 -195 -94 -202 -94 -13 -1 -163 293 -163 319 0 12 93 64 303 172 242
124 303 159 305 176 l3 22 345 0 344 0 0 -40z m-1596 -711 c53 -99 96 -188 96
-197 0 -19 -257 -158 -279 -151 -7 3 -30 38 -53 79 -79 149 -148 287 -148 298
0 7 26 25 58 41 31 16 88 47 127 70 38 23 77 41 87 41 11 0 46 -56 112 -181z
m-1956 34 c5 -17 -26 -29 -40 -15 -6 6 -7 15 -3 22 9 14 37 9 43 -7z m582 -28
c0 -6 14 -24 30 -40 26 -25 30 -36 30 -80 0 -28 5 -56 11 -62 6 -6 8 -17 4
-23 -11 -17 -92 65 -115 116 -10 23 -21 56 -25 73 -7 31 -6 32 29 29 20 -1 36
-7 36 -13z m3710 -50 l0 -35 -105 0 -106 0 3 35 2 35 103 0 103 0 0 -35z
m-1782 -381 c40 -45 25 -115 -30 -138 -85 -36 -164 58 -112 132 34 48 102 51
142 6z m882 -844 l0 -300 -29 0 -28 0 -18 111 c-17 102 -23 119 -77 213 l-59
102 -119 53 -119 53 -91 -12 c-71 -9 -122 -9 -230 0 -110 10 -183 10 -347 0
-155 -9 -235 -9 -312 -1 -166 18 -265 15 -303 -9 -44 -27 -55 -25 -73 10 -21
40 -19 47 13 64 23 13 147 15 910 16 l882 0 0 -300z m1460 100 l0 -70 -30 0
-30 0 0 70 0 70 30 0 30 0 0 -70z m-1742 -286 c10 -35 9 -48 -4 -80 -9 -22
-20 -41 -23 -44 -4 -3 -13 -14 -20 -25 -11 -19 -12 -19 -6 3 6 20 3 22 -31 22
-79 0 -115 90 -58 147 21 21 32 25 65 20 30 -4 39 -2 39 10 0 26 25 -8 38 -53z
m-298 -52 c25 -16 28 -21 17 -35 -11 -15 -18 -13 -74 19 -51 28 -60 38 -51 48
14 14 48 4 108 -32z m-450 -170 c0 -18 -97 -226 -107 -229 -11 -4 -153 184
-153 203 0 7 36 15 93 21 123 13 167 15 167 5z"/>
<path d="M5770 7530 c-9 -6 -10 -10 -3 -10 6 0 15 5 18 10 8 12 4 12 -15 0z"/>
<path d="M5615 7359 c-4 -6 -4 -13 -1 -16 3 -4 6 -1 6 6 0 8 8 10 23 6 17 -5
19 -4 7 4 -19 14 -27 14 -35 0z"/>
<path d="M5968 6153 c7 -3 16 -2 19 1 4 3 -2 6 -13 5 -11 0 -14 -3 -6 -6z"/>
</g>
</svg>