<?xml version="1.0" standalone="no"?>
<!DOCTYPE svg PUBLIC "-//W3C//DTD SVG 20010904//EN"
 "http://www.w3.org/TR/2001/REC-SVG-20010904/DTD/svg10.dtd">
<svg version="1.0" xmlns="http://www.w3.org/2000/svg"
 width="1024.000000pt" height="1024.000000pt" viewBox="0 0 1024.000000 1024.000000"
 preserveAspectRatio="xMidYMid meet">

<g transform="translate(0.000000,1024.000000) scale(0.100000,-0.100000)"
fill="#000000" stroke="none">
<path d="M4530 9546 c0 -3 11 -51 25 -107 20 -83 23 -110 15 -140 -13 -46 -57
-85 -113 -99 -23 -6 -48 -13 -54 -15 -7 -2 -13 -20 -13 -40 0 -33 -2 -35 -34
-35 -24 0 -35 -5 -38 -18 -4 -13 -99 -42 -459 -140 -402 -109 -490 -129 -771
-177 -298 -52 -328 -55 -483 -55 l-165 0 0 50 0 50 -1075 0 -1075 0 0 -315 0
-315 300 0 299 0 3 -102 3 -103 468 -3 467 -2 0 110 0 110 460 0 460 0 0 -45
0 -45 190 0 190 0 0 60 0 60 125 0 c104 0 125 -2 125 -15 0 -12 -19 -15 -110
-15 l-110 0 1 -160 c0 -147 1 -159 16 -145 32 32 79 -6 55 -45 -6 -11 -12 -22
-12 -24 0 -3 28 -7 63 -9 50 -2 44 -4 -30 -5 l-93 -2 0 -1670 c0 -1478 2
-1670 15 -1670 9 0 15 -9 15 -24 0 -35 -10 -56 -26 -56 -8 0 -14 -6 -15 -12 0
-8 -3 -7 -7 3 -18 41 -51 69 -81 69 -17 0 -31 -4 -31 -8 0 -4 25 -32 55 -62
38 -37 55 -62 55 -79 0 -22 -11 -13 -81 62 l-81 87 -299 0 -299 0 0 -430 0
-430 200 0 200 0 0 -1215 0 -1215 170 0 170 0 0 -40 0 -40 -40 0 -40 0 0 -175
0 -175 305 0 c264 0 305 2 305 15 0 11 11 15 40 15 29 0 40 -4 40 -15 0 -13
32 -15 231 -15 187 0 230 2 226 13 -4 11 20 13 119 13 96 0 124 -3 124 -13 0
-10 24 -13 99 -13 79 0 100 -3 105 -15 8 -23 516 -23 516 0 0 12 18 15 100 15
l100 0 0 175 0 175 423 0 422 0 -3 -175 -3 -175 1076 0 c710 0 1075 3 1075 10
0 6 58 10 155 10 97 0 155 -4 155 -10 0 -6 38 -10 95 -10 l95 0 0 -25 c0 -26
0 -26 83 -23 81 3 82 3 85 31 3 26 5 27 68 27 57 0 64 2 64 20 0 15 7 20 25
20 18 0 25 -5 25 -20 0 -19 7 -20 210 -20 203 0 210 1 210 20 0 15 7 20 25 20
18 0 25 -5 25 -20 0 -19 7 -20 200 -20 l200 0 0 195 0 195 -40 0 c-22 0 -40 4
-40 9 0 19 53 125 57 114 2 -6 -5 -30 -17 -52 l-20 -41 30 0 30 0 0 254 0 254
-27 7 c-39 9 -42 19 -25 87 11 43 21 62 34 66 16 4 18 15 18 83 l0 79 -195 0
-195 0 0 200 0 200 195 0 195 0 0 690 0 690 -80 0 -80 0 0 35 0 35 80 0 80 0
0 320 0 320 -80 0 -80 0 -2 348 -3 347 -147 3 -148 3 0 389 0 389 28 3 27 3 3
318 c2 317 2 317 -19 317 -12 0 -23 8 -26 20 -5 19 -16 20 -517 22 -503 3
-511 3 -511 23 0 18 8 20 90 25 l90 5 3 133 3 132 -156 0 -155 0 0 365 0 365
73 0 72 0 -3 270 -3 270 -65 0 -64 0 2 183 3 182 188 3 187 2 0 430 0 430
-115 0 -115 0 0 -35 c0 -31 -3 -35 -25 -35 -22 0 -25 4 -25 35 l0 35 -315 0
-315 0 0 -40 0 -40 -85 0 -85 0 0 40 0 40 -345 0 -345 0 0 -40 0 -40 -85 0
c-78 0 -85 2 -85 20 0 18 -7 20 -79 20 -61 0 -80 -3 -85 -15 -3 -8 -15 -15
-26 -15 -11 0 -23 7 -26 15 -5 11 -23 15 -75 15 l-69 0 0 -45 c0 -39 -3 -45
-21 -45 -18 0 -20 -5 -17 -37 l3 -38 -390 0 -390 0 -3 38 c-3 35 -5 37 -37 37
-20 0 -35 6 -39 15 -3 9 -19 15 -41 15 l-35 0 0 95 0 95 -525 0 c-289 0 -525
-2 -525 -4z m2073 -603 c8 -16 33 -83 58 -151 28 -81 47 -121 56 -118 12 5 15
-2 27 -56 l6 -28 265 0 265 0 0 40 0 40 -40 0 -40 0 0 60 0 60 39 0 c35 0 40
3 43 26 l3 25 152 2 152 2 3 -125 3 -125 238 -3 237 -2 0 -820 0 -820 40 0 41
0 -3 -157 -3 -158 -282 -3 -283 -2 0 -25 c0 -18 -5 -25 -19 -25 -15 0 -21 -8
-23 -32 -3 -29 -7 -33 -35 -36 -32 -3 -33 -2 -33 32 0 29 -4 36 -20 36 -17 0
-20 7 -20 40 l0 40 -45 0 -45 0 0 178 0 177 -377 -2 -378 -2 -3 -181 -2 -181
-48 3 -47 3 -3 43 -3 42 -360 0 -359 0 0 -46 0 -45 -47 3 -48 3 -3 113 -3 112
-625 0 -625 0 3 -120 c3 -112 4 -120 23 -120 11 0 31 -3 44 -7 23 -6 24 -7 18
-97 -3 -50 -24 -205 -47 -343 -29 -185 -40 -283 -40 -363 l0 -110 30 0 30 0 0
-155 c0 -141 -2 -155 -17 -155 -10 0 -35 19 -55 42 l-37 43 -1 -32 c0 -22 8
-37 25 -51 l25 -20 0 -456 0 -456 30 0 c25 0 30 -4 30 -24 0 -13 7 -26 15 -30
8 -3 15 -15 15 -26 0 -11 7 -20 15 -20 8 0 15 -4 15 -10 0 -6 -38 -10 -95 -10
l-95 0 -1 33 c0 17 0 362 1 765 l1 733 -25 20 c-14 11 -26 29 -26 40 0 23 15
25 24 4 3 -8 12 -15 21 -15 11 0 15 10 14 43 -2 29 -3 34 -6 15 -2 -16 -9 -28
-14 -28 -5 0 -9 123 -9 305 l0 305 -25 0 c-22 0 -25 4 -25 35 0 33 2 35 35 35
l35 0 -2 178 -3 177 -32 3 -33 3 0 75 0 74 35 0 35 0 0 70 0 70 -35 0 -35 0 0
72 c0 56 3 69 12 60 7 -7 25 -12 40 -12 27 0 35 9 21 24 -5 4 -8 13 -8 19 0 9
-114 13 -445 15 l-446 2 4 40 4 40 78 0 c44 0 82 4 85 10 3 5 3 149 -1 320
l-7 310 -44 0 c-32 0 -43 4 -43 15 0 12 13 15 60 15 l60 0 0 -335 0 -335 360
0 360 0 0 305 0 305 60 0 60 0 0 155 0 155 70 0 70 0 0 60 0 60 105 0 105 0 2
-217 3 -218 2 203 3 202 415 0 415 0 2 -257 3 -258 313 0 313 0 -1 268 -1 267
86 0 c49 0 85 4 85 10 0 5 -22 71 -49 145 -28 75 -48 142 -45 150 6 15 156 74
191 74 15 1 27 -8 36 -26z m1124 -205 c6 -46 7 -86 4 -89 -3 -4 -27 -9 -52
-12 l-47 -6 -6 57 c-4 31 -10 71 -13 89 -5 30 -3 32 29 36 80 10 74 15 85 -75z
m-7235 30 c-15 -15 -26 -4 -18 18 5 13 9 15 18 6 9 -9 9 -15 0 -24z m313 2
c-5 -8 -11 -8 -17 -2 -6 6 -7 16 -3 22 5 8 11 8 17 2 6 -6 7 -16 3 -22z m318
15 c8 -18 -11 -31 -25 -17 -11 11 -3 32 12 32 4 0 10 -7 13 -15z m309 -17
c-15 -15 -26 -4 -18 18 5 13 9 15 18 6 9 -9 9 -15 0 -24z m316 15 c-4 -22 -22
-20 -26 1 -2 10 3 16 13 16 10 0 15 -7 13 -17z m322 -3 c0 -5 -5 -12 -11 -16
-14 -8 -33 11 -25 25 7 11 36 4 36 -9z m360 -6 c0 -9 -5 -14 -12 -12 -18 6
-21 28 -4 28 9 0 16 -7 16 -16z m-1980 -499 c26 -32 -13 -81 -47 -59 -24 15
-27 38 -8 58 20 20 39 20 55 1z m88 -32 c3 -31 1 -33 -27 -33 -29 0 -31 3 -31
36 0 33 2 35 28 32 22 -2 28 -8 30 -35z m72 1 c0 -33 -2 -35 -27 -32 -22 2
-27 8 -26 31 1 15 1 29 2 32 1 3 12 5 26 5 22 0 25 -4 25 -36z m78 -1 c3 -31
1 -33 -27 -33 -29 0 -31 3 -31 36 0 33 2 35 28 32 22 -2 28 -8 30 -35z m76 2
c0 -25 -4 -31 -27 -33 -25 -3 -27 -1 -27 33 0 34 2 36 27 33 23 -2 27 -8 27
-33z m76 -1 c0 -33 -2 -35 -27 -32 -47 5 -45 68 2 68 22 0 25 -4 25 -36z
m1100 1 c0 -32 -2 -35 -30 -35 -28 0 -30 3 -30 35 0 32 2 35 30 35 28 0 30 -3
30 -35z m74 0 c0 -25 -4 -31 -27 -33 -25 -3 -27 -1 -27 33 0 34 2 36 27 33 23
-2 27 -8 27 -33z m76 0 c0 -32 -2 -35 -30 -35 -26 0 -30 4 -30 28 0 35 6 42
37 42 20 0 23 -5 23 -35z m75 0 c0 -25 -4 -30 -27 -33 -26 -3 -28 -1 -28 33 0
34 2 36 28 33 23 -3 27 -8 27 -33z m80 0 c0 -25 -4 -30 -27 -33 -26 -3 -28 -1
-28 33 0 34 2 36 28 33 23 -3 27 -8 27 -33z m-1255 -153 l0 -68 -40 4 -40 4 0
64 0 64 40 0 40 0 0 -68z m2338 -230 c3 -18 -1 -22 -22 -22 -19 0 -26 5 -26
18 0 39 43 43 48 4z m162 -622 l0 -230 80 0 c64 0 80 -3 80 -15 0 -12 -18 -15
-100 -15 l-100 0 0 245 c0 238 1 245 20 245 19 0 20 -7 20 -230z m1710 -520
c0 -5 5 -10 11 -10 5 0 8 4 5 8 -3 5 8 6 24 4 34 -5 44 -25 29 -55 -9 -16 -9
-22 0 -25 16 -5 14 -47 -4 -62 -8 -7 -22 -9 -32 -5 -10 4 -55 7 -100 6 l-83
-3 0 76 0 76 75 0 c43 0 75 -4 75 -10z m-1700 -90 c0 -23 17 -47 78 -112 42
-46 140 -152 216 -236 126 -138 142 -152 172 -152 l34 0 0 -75 0 -75 -42 0
c-42 1 -45 3 -181 153 -76 84 -169 186 -207 227 l-70 75 0 -37 c0 -33 11 -49
113 -160 301 -326 298 -323 280 -327 -18 -3 -20 -1 -248 247 -136 148 -140
152 -143 122 -4 -37 -3 -38 170 -227 93 -100 123 -139 111 -142 -10 -2 -33 14
-57 40 -22 24 -82 89 -133 144 l-93 99 0 -36 c0 -32 11 -48 96 -140 75 -81 91
-104 77 -107 -12 -2 -42 23 -95 80 l-78 84 0 -36 c0 -28 9 -46 40 -82 46 -52
37 -77 -11 -31 l-29 28 0 -35 c0 -24 9 -45 30 -69 24 -29 29 -44 30 -87 l0
-53 65 0 65 0 0 -420 0 -420 -65 0 -65 0 0 -52 0 -53 -57 1 -58 2 -3 946 -2
946 30 0 c27 0 30 -3 30 -30z m202 -127 c78 -86 162 -178 186 -205 27 -29 42
-55 40 -67 -2 -15 -42 23 -163 155 -254 277 -251 274 -227 274 13 0 68 -52
164 -157z m94 16 c86 -94 130 -149 132 -167 3 -24 2 -25 -10 -12 -8 8 -61 67
-118 130 -57 63 -120 132 -139 153 -31 33 -33 37 -14 37 13 0 63 -47 149 -141z
m-6 126 c7 -8 28 -15 47 -15 30 0 34 2 23 15 -11 13 -5 15 49 15 l61 0 0 -34
c0 -30 -4 -34 -31 -40 -17 -3 -42 -6 -55 -6 -32 0 -30 -10 11 -50 20 -19 35
-44 35 -57 0 -19 -12 -11 -72 52 -40 42 -83 89 -96 105 -22 28 -23 30 -4 30
11 0 25 -7 32 -15z m3702 -457 l3 -233 103 -3 102 -3 0 -94 0 -95 -120 0 -120
0 0 330 c0 285 2 330 15 330 12 0 15 -35 17 -232z m-3494 -248 c21 -28 21 -30
4 -30 -10 0 -31 14 -47 30 l-29 30 25 0 c16 0 33 -11 47 -30z m5162 -370 l0
-390 -532 0 -533 0 3 105 3 106 -45 20 -46 20 0 140 0 140 45 19 45 19 0 106
0 105 530 0 530 0 0 -390z m-5134 -280 l0 -420 -58 0 -58 0 0 420 0 420 58 0
58 0 0 -420z m3674 -15 l0 -95 -100 0 -100 0 0 -275 c0 -177 4 -275 10 -275 6
0 10 -17 10 -39 0 -21 3 -53 6 -70 l7 -31 1018 0 1019 0 0 -870 0 -870 -210 0
-210 0 0 235 0 235 -290 0 -290 0 0 -35 0 -35 -114 0 -115 0 -3 33 -3 32 -445
5 -445 5 1 45 c1 55 21 130 35 130 6 0 8 -17 3 -45 -6 -41 -5 -45 15 -45 21 0
21 2 21 235 l0 235 -470 0 -470 0 2 328 3 327 198 3 197 2 0 -165 0 -165 235
0 235 0 0 175 c0 149 -2 175 -15 175 -11 0 -15 11 -15 40 0 37 2 40 26 40 l27
0 -5 415 -6 415 119 0 119 0 0 -95z m-2440 -137 l0 -88 -30 0 -30 0 0 89 0 88
30 -1 30 -1 0 -87z m1458 -130 c8 -8 12 -54 12 -143 0 -89 -4 -135 -12 -143
-7 -7 -44 -12 -98 -12 -54 0 -91 5 -98 12 -13 13 -18 252 -6 282 5 13 23 16
98 16 58 0 96 -4 104 -12z m-1758 -488 l0 -120 305 0 305 0 0 40 0 40 60 0
c57 0 60 -1 60 -25 l0 -25 145 0 145 0 0 -354 0 -355 56 -122 c52 -115 56
-128 58 -203 l1 -81 483 -3 482 -2 0 60 0 60 56 0 56 0 -4 -59 c-1 -33 0 -57
5 -54 4 2 7 20 7 39 0 19 4 34 9 34 4 0 9 -40 10 -90 l1 -90 -1385 0 -1385 0
0 -40 c0 -39 -1 -40 -34 -40 -19 0 -36 5 -38 11 -5 15 -101 15 -106 0 -2 -6
-19 -11 -38 -11 -31 0 -34 3 -34 30 l0 30 -320 0 c-313 0 -320 0 -320 -20 0
-16 -7 -20 -35 -20 l-35 0 3 223 2 222 428 3 427 2 2 223 c1 122 3 243 3 270
l0 47 38 0 37 0 0 -50 0 -50 310 0 311 0 -3 158 -3 157 -144 3 -143 3 6 31 c3
17 6 79 6 139 l0 109 105 0 105 0 0 -120z m-1166 -46 c3 -9 6 -30 6 -47 l0
-31 -29 28 c-20 19 -37 27 -55 24 -25 -3 -25 -4 29 -60 40 -42 55 -65 55 -85
0 -26 -7 -21 -83 61 -70 75 -86 88 -109 85 -27 -4 -23 -9 83 -121 91 -97 110
-122 107 -144 -3 -24 -15 -13 -128 111 -69 75 -128 141 -131 147 -3 5 -20 8
-37 6 -30 -3 -29 -5 103 -148 114 -124 130 -146 112 -149 -17 -2 -41 17 -102
85 -44 49 -106 116 -137 149 l-58 60 0 -33 c0 -27 16 -49 105 -145 92 -97 103
-112 83 -115 -17 -3 -41 16 -104 85 l-83 88 -1 -33 c0 -27 10 -44 51 -88 47
-49 50 -54 28 -54 -12 0 -36 12 -51 27 l-28 27 0 -32 0 -32 335 0 335 0 0 -98
0 -99 -152 -6 c-191 -9 -451 -9 -511 -1 -38 5 -46 10 -50 31 -4 19 0 27 15 31
19 5 20 13 16 218 -2 153 -7 217 -15 226 -21 20 -15 28 22 28 19 0 35 5 35 10
0 6 63 10 169 10 145 0 170 -2 175 -16z m-655 -256 c7 1 11 -36 11 -108 l0
-110 30 0 c28 0 30 -3 30 -35 l0 -35 -254 0 c-140 0 -257 4 -260 8 -2 4 -2 52
1 105 l6 97 218 0 c121 0 219 3 219 8 0 4 -47 58 -105 121 -58 63 -105 117
-105 121 0 28 27 9 107 -77 50 -54 97 -97 102 -95z m1231 62 c0 -4 -7 -10 -15
-14 -12 -4 -15 4 -15 42 l1 47 14 -34 c8 -18 15 -37 15 -41z m-1316 -128 c-29
-7 -132 107 -118 130 5 8 29 -11 71 -58 48 -52 60 -70 47 -72z m3096 33 l0
-85 -80 0 -80 0 0 85 0 85 80 0 80 0 0 -85z m-1780 -22 c0 -7 -7 -13 -15 -13
-11 0 -15 11 -15 38 l1 37 14 -25 c8 -14 14 -31 15 -37z m5520 -23 l0 -80 80
0 c47 0 80 -4 80 -10 0 -6 -37 -10 -90 -10 l-90 0 0 90 c0 53 4 90 10 90 6 0
10 -33 10 -80z m-6935 20 c3 -5 -1 -10 -10 -10 -9 0 -13 5 -10 10 3 6 8 10 10
10 2 0 7 -4 10 -10z m7085 -435 l0 -35 -57 0 -58 0 2 32 c1 18 2 34 2 36 1 1
26 2 56 2 l55 0 0 -35z m-3503 -351 c9 -24 -10 -49 -38 -49 -24 0 -36 23 -25
51 7 19 55 18 63 -2z m-3397 -69 l0 -45 -55 0 -55 0 0 45 0 45 55 0 55 0 0
-45z m4738 -112 c9 -16 11 -16 27 0 31 32 75 15 75 -30 0 -12 -8 -27 -17 -33
-17 -10 -17 -10 0 -20 26 -16 22 -58 -8 -72 -21 -9 -28 -8 -45 7 -18 16 -20
16 -35 1 -21 -20 -34 -20 -57 1 -22 20 -23 37 -2 58 15 15 15 17 0 34 -20 22
-20 35 0 55 20 21 51 20 62 -1z m-4838 -989 c0 -534 -3 -803 -10 -799 -11 7
-15 1587 -3 1598 3 4 8 7 10 7 2 0 3 -363 3 -806z m4750 691 l0 -75 -45 0 -45
0 0 75 0 75 45 0 45 0 0 -75z m-153 15 c41 0 42 0 38 -32 -3 -18 -7 -54 -10
-80 l-6 -47 -72 6 c-40 3 -73 7 -75 8 -2 2 0 37 4 80 l7 77 36 -6 c20 -3 55
-6 78 -6z m-3387 -50 c0 -5 22 -10 49 -10 28 0 53 5 56 10 3 6 22 10 41 10
l34 0 0 -250 c0 -216 2 -250 15 -250 11 0 15 -11 15 -40 0 -31 -3 -38 -15 -34
-13 5 -15 -68 -15 -620 l0 -626 -40 0 c-22 0 -40 5 -40 10 0 13 -77 13 -85 0
-10 -16 -72 -12 -79 5 -8 23 -456 23 -456 0 0 -11 -11 -15 -40 -15 -29 0 -40
4 -40 15 0 12 -19 15 -115 15 l-115 0 0 40 c0 38 2 40 30 40 l30 0 2 808 c2
444 0 811 -4 817 -5 5 -8 24 -8 42 0 31 2 33 35 33 24 0 35 -5 35 -15 0 -13
42 -15 320 -15 313 0 320 0 320 20 0 16 7 20 35 20 19 0 35 -4 35 -10z m3005
-64 c2 -36 1 -36 -37 -36 -37 0 -38 1 -38 38 0 36 1 37 36 36 35 -1 37 -3 39
-38z m1325 14 l0 -30 145 0 145 0 0 -25 0 -25 -145 0 -145 0 2 -187 3 -188 33
-3 32 -3 0 -390 0 -389 -35 0 -35 0 0 -205 0 -205 585 0 585 0 -25 50 c-14 28
-22 50 -17 50 8 0 62 -104 62 -120 0 -6 -25 -10 -55 -10 -48 0 -55 -2 -55 -20
0 -15 -7 -20 -25 -20 -18 0 -25 5 -25 20 0 19 -7 20 -210 20 -203 0 -210 -1
-210 -20 0 -15 -7 -20 -25 -20 -18 0 -25 5 -25 20 0 20 -7 20 -280 20 -242 0
-280 -2 -280 -15 0 -12 -20 -15 -120 -15 l-120 0 0 870 0 870 120 0 120 0 0
-30z m-5408 -459 c4 -3 3 -22 -1 -41 -7 -34 -9 -35 -47 -32 -21 2 -40 5 -42 6
-1 2 0 22 4 45 7 41 7 41 43 35 20 -4 39 -9 43 -13z m2465 -260 c25 -12 48
-32 57 -50 22 -42 23 -114 2 -146 -10 -15 -15 -29 -12 -32 7 -8 46 59 40 69
-8 12 10 10 29 -4 14 -12 14 -17 -9 -55 -25 -41 -26 -42 -49 -27 -22 14 -26
14 -47 0 -28 -20 -110 -21 -147 -2 -43 23 -65 64 -65 123 -1 60 22 98 75 125
43 23 74 22 126 -1z m-207 -191 c19 -36 -14 -56 -40 -25 -10 12 -10 18 0 30
17 20 27 19 40 -5z m3340 -513 c0 -8 -3 -17 -7 -20 -9 -9 -34 13 -27 24 8 14
34 11 34 -4z m-1526 -293 c19 -7 22 -60 4 -67 -10 -4 -10 -7 0 -18 15 -16 16
-55 1 -64 -5 -4 -21 -4 -35 -1 -26 7 -33 43 -12 64 9 9 9 15 0 24 -21 21 -8
68 19 68 4 0 14 -3 23 -6z"/>
<path d="M4673 8483 c26 -2 68 -2 95 0 26 2 4 3 -48 3 -52 0 -74 -1 -47 -3z"/>
<path d="M4389 6574 c19 -3 31 -13 34 -25 4 -15 4 -14 3 3 -1 18 -8 24 -33 26
-31 2 -32 2 -4 -4z"/>
<path d="M4422 6490 c0 -14 2 -19 5 -12 2 6 2 18 0 25 -3 6 -5 1 -5 -13z"/>
<path d="M4412 6440 c0 -14 2 -19 5 -12 2 6 2 18 0 25 -3 6 -5 1 -5 -13z"/>
<path d="M4402 6375 c0 -16 2 -22 5 -12 2 9 2 23 0 30 -3 6 -5 -1 -5 -18z"/>
<path d="M4392 6315 c0 -16 2 -22 5 -12 2 9 2 23 0 30 -3 6 -5 -1 -5 -18z"/>
<path d="M4382 6250 c0 -14 2 -19 5 -12 2 6 2 18 0 25 -3 6 -5 1 -5 -13z"/>
<path d="M4372 6185 c0 -16 2 -22 5 -12 2 9 2 23 0 30 -3 6 -5 -1 -5 -18z"/>
<path d="M4362 6125 c0 -16 2 -22 5 -12 2 9 2 23 0 30 -3 6 -5 -1 -5 -18z"/>
<path d="M4352 6060 c0 -14 2 -19 5 -12 2 6 2 18 0 25 -3 6 -5 1 -5 -13z"/>
<path d="M4360 5579 c0 -30 6 -41 41 -68 67 -54 66 -17 -1 59 l-39 45 -1 -36z"/>
<path d="M5201 6652 c-1 -25 20 -26 27 -1 3 12 2 12 -6 0 -8 -11 -11 -10 -15
5 -4 16 -5 15 -6 -4z"/>
<path d="M3500 6517 c0 -32 10 -47 78 -119 42 -46 137 -150 211 -231 74 -81
136 -147 138 -147 2 0 3 15 3 33 0 35 -49 94 -337 402 l-93 99 0 -37z"/>
<path d="M7872 3134 c-11 -12 -10 -17 3 -31 15 -14 18 -14 32 0 13 13 14 19 3
31 -15 19 -21 19 -38 0z"/>
<path d="M7521 2794 c0 -11 3 -14 6 -6 3 7 2 16 -1 19 -3 4 -6 -2 -5 -13z"/>
<path d="M3160 7835 c0 -8 7 -15 16 -15 14 0 14 3 4 15 -7 8 -14 15 -16 15 -2
0 -4 -7 -4 -15z"/>
</g>
</svg>
