<?xml version="1.0" standalone="no"?>
<!DOCTYPE svg PUBLIC "-//W3C//DTD SVG 20010904//EN"
 "http://www.w3.org/TR/2001/REC-SVG-20010904/DTD/svg10.dtd">
<svg version="1.0" xmlns="http://www.w3.org/2000/svg"
 width="1024.000000pt" height="1024.000000pt" viewBox="0 0 1024.000000 1024.000000"
 preserveAspectRatio="xMidYMid meet">

<g transform="translate(0.000000,1024.000000) scale(0.100000,-0.100000)"
fill="#000000" stroke="none">
<path d="M0 5120 l0 -5120 5120 0 5120 0 0 5120 0 5120 -5120 0 -5120 0 0
-5120z m8618 3578 l2 -277 -45 -26 -44 -27 -3 -116 -3 -117 -132 -3 -133 -3 0
-654 0 -654 153 -3 152 -3 3 -177 2 -178 478 -2 477 -3 3 -942 2 -942 38 -3
37 -3 3 -167 c2 -164 3 -167 25 -170 l22 -3 0 -670 0 -670 -262 -3 -263 -2 0
-115 0 -115 88 0 c137 -1 306 -11 315 -19 4 -4 6 -94 5 -201 l-3 -193 -35 -12
c-38 -13 -37 -5 -25 -127 l7 -67 91 -3 92 -3 3 -193 c2 -186 2 -194 -18 -199
-18 -5 -20 -15 -22 -182 l-3 -176 -670 -3 c-447 -1 -677 1 -690 8 -14 7 -865
11 -2655 13 l-2635 2 -3 447 -2 447 -123 3 -122 3 0 905 0 905 27 3 c26 3 27
6 30 65 l3 62 153 3 152 3 0 1078 c0 950 -2 1080 -15 1085 -13 5 -15 96 -15
741 l0 735 -359 0 -360 0 -3 -37 -3 -38 -172 -3 -173 -2 -2 -178 -3 -177 -425
0 -425 0 -1 45 c0 25 3 83 8 129 5 46 7 85 5 87 -4 5 -205 28 -332 39 -44 4
-89 9 -100 10 -11 2 -71 9 -134 15 -63 6 -118 13 -123 16 -4 3 -8 82 -8 175 0
146 2 170 16 176 14 5 261 -10 356 -22 l37 -5 3 132 3 133 410 6 c329 4 448
10 605 27 107 13 236 27 285 32 50 5 216 23 370 39 154 16 312 32 350 36 39 3
102 10 140 15 101 13 191 19 350 25 412 14 470 17 472 18 1 1 -3 68 -9 148 -6
80 -9 153 -6 161 8 19 434 106 448 92 6 -6 24 -86 41 -179 18 -94 33 -172 35
-173 1 -2 60 5 131 17 119 19 179 29 498 82 66 11 174 29 240 40 271 45 354
59 440 73 85 13 704 25 1352 26 l192 0 3 48 3 47 353 3 352 2 0 53 c0 30 3 57
7 60 4 4 160 6 347 5 l341 -3 3 -277z m-7159 -7161 c100 -47 164 -148 163
-255 -1 -89 -25 -153 -78 -208 -61 -62 -121 -88 -209 -88 -117 -1 -208 54
-263 159 -22 42 -26 63 -26 130 0 86 16 130 69 193 78 93 229 124 344 69z
m-254 -859 c-5 -4 -17 -8 -25 -8 -12 0 -15 16 -15 85 0 77 2 85 20 87 18 3 20
-4 25 -77 3 -48 1 -83 -5 -87z m618 -7 c-2 -2 -13 1 -26 6 -15 7 -29 7 -40 2
-11 -7 -24 -6 -37 1 -18 9 -21 19 -18 58 l3 47 38 0 c36 0 38 1 33 27 -4 22
-1 27 17 30 21 3 22 -1 27 -82 3 -47 4 -87 3 -89z m-1125 139 l4 -25 -26 24
c-15 14 -31 21 -41 17 -21 -8 -12 -21 36 -52 33 -20 40 -30 37 -52 -4 -34 -43
-54 -87 -46 -25 5 -31 11 -31 33 l0 26 23 -29 c16 -20 29 -27 40 -23 29 11 19
36 -22 57 -48 24 -60 53 -35 81 13 15 28 19 58 17 35 -3 42 -7 44 -28z m68 19
c10 -17 -13 -36 -27 -22 -12 12 -4 33 11 33 5 0 12 -5 16 -11z m768 -5 c22
-21 20 -40 -6 -58 -12 -9 -18 -16 -12 -16 9 0 44 -60 44 -75 0 -3 -13 -5 -30
-5 -20 0 -30 5 -30 15 0 21 -22 65 -33 65 -6 0 -7 -16 -3 -40 6 -39 5 -40 -23
-40 l-28 0 5 70 c3 48 1 74 -8 85 -11 13 -5 15 48 15 42 0 65 -5 76 -16z
m-759 -95 c0 -57 -1 -59 -25 -59 -24 0 -25 3 -25 58 0 48 3 58 20 63 11 3 22
4 25 2 2 -2 5 -31 5 -64z m220 47 c2 -6 6 -33 8 -59 5 -47 4 -48 -21 -45 -25
3 -26 6 -23 51 2 37 -1 47 -13 47 -11 0 -16 -13 -18 -47 -3 -42 -6 -48 -27
-51 -22 -4 -24 -1 -18 33 7 43 0 65 -20 65 -12 0 -14 -10 -11 -45 2 -31 -1
-46 -10 -50 -32 -12 -37 -4 -37 55 l0 61 68 -2 c37 -1 70 0 73 3 8 9 45 -3 49
-16z m104 13 c39 2 51 -10 51 -54 0 -45 -13 -58 -49 -53 -27 4 -31 2 -31 -18
0 -12 6 -25 13 -27 6 -3 -4 -6 -23 -6 l-35 -1 0 85 c0 80 1 84 20 78 11 -3 35
-5 54 -4z m227 -12 c32 -28 25 -47 -17 -47 -16 0 -29 -4 -29 -9 0 -13 27 -21
48 -15 12 4 10 0 -7 -15 -28 -25 -39 -26 -69 -5 -43 30 -18 114 35 114 6 0 24
-11 39 -23z m689 14 c11 -5 25 -4 33 1 8 7 17 6 27 -2 21 -17 7 -33 -22 -25
-25 6 -26 5 -21 -44 5 -49 4 -51 -21 -51 -25 0 -26 2 -26 65 0 36 2 65 5 64 3
0 14 -4 25 -8z m-395 -10 c0 -5 -6 -14 -14 -20 -10 -8 -16 -8 -25 2 -6 8 -8
17 -4 20 9 10 43 8 43 -2z m48 -3 c6 -7 12 -33 13 -58 l4 -45 -49 0 c-45 -1
-76 13 -76 35 0 14 42 40 63 40 14 0 18 5 14 20 -6 23 14 27 31 8z m217 -8
c-14 -16 -20 -17 -27 -8 -13 22 -9 28 19 28 26 0 26 0 8 -20z m66 -40 c3 -30
5 -56 4 -58 -1 -1 -26 1 -56 5 -49 8 -54 11 -54 33 0 20 7 27 33 35 21 6 32
15 32 28 0 12 6 17 18 15 13 -2 18 -17 23 -58z"/>
<path d="M7950 8890 l0 -60 -355 0 -355 0 0 -48 0 -49 -277 -6 c-153 -4 -482
-7 -732 -7 l-454 0 -720 -120 c-465 -78 -723 -117 -727 -110 -3 6 -21 88 -39
184 -28 147 -35 173 -49 170 -9 -2 -89 -17 -177 -34 -88 -18 -170 -34 -183
-37 -21 -5 -23 -9 -18 -62 3 -31 8 -104 12 -162 l7 -107 -79 -6 c-44 -3 -187
-8 -319 -11 -132 -3 -303 -12 -380 -20 -77 -8 -246 -26 -375 -40 -129 -13
-266 -27 -303 -31 -62 -6 -68 -8 -65 -28 2 -13 11 -22 26 -24 34 -5 31 -52 -3
-52 -14 0 -25 -4 -25 -10 0 -5 -4 -10 -10 -10 -5 0 -10 25 -10 56 l0 57 -67
-7 c-38 -3 -198 -19 -358 -36 -265 -27 -321 -30 -657 -30 l-368 0 0 -136 0
-136 -72 6 c-40 3 -118 8 -173 11 -55 3 -115 8 -132 11 l-33 5 0 -150 0 -149
63 -6 c34 -4 132 -13 217 -22 85 -9 215 -21 288 -28 72 -7 134 -15 136 -17 3
-4 -8 -150 -18 -226 l-6 -43 400 0 400 0 0 180 0 180 175 0 175 0 0 40 0 40
425 0 c418 0 425 0 425 -20 0 -16 -7 -20 -35 -20 l-35 0 0 -720 c0 -633 2
-720 15 -720 13 0 15 -129 15 -1100 l0 -1100 95 0 95 0 0 220 0 220 150 0 150
0 0 -95 0 -95 60 0 60 0 0 -55 0 -55 45 0 45 0 0 -95 c0 -78 -3 -95 -15 -95
-8 0 -15 7 -15 15 0 13 -61 15 -490 15 l-490 0 0 -65 0 -65 -30 0 -30 0 0
-880 0 -880 115 0 115 0 0 590 c0 583 0 590 -20 590 -19 0 -20 7 -20 90 0 83
1 90 20 90 19 0 20 7 20 145 0 129 2 145 17 145 15 0 16 -89 10 -1275 l-7
-1275 565 0 565 0 0 25 c0 16 6 25 15 25 9 0 15 -9 15 -25 l0 -25 1370 0 1370
0 -2 163 -3 162 -395 3 c-217 2 -833 0 -1367 -4 -943 -6 -973 -7 -973 -25 0
-11 -7 -19 -15 -19 -9 0 -15 9 -15 25 l0 25 -370 0 -370 0 0 740 0 740 370 0
370 0 0 35 c0 19 5 35 10 35 6 0 10 -16 10 -35 l0 -35 1860 0 1860 0 0 140 0
140 -135 0 -135 0 0 280 0 280 -475 0 -475 0 0 255 0 255 230 0 230 0 0 -105
0 -105 120 0 120 0 0 140 0 140 900 0 900 0 0 -160 0 -160 30 0 c20 0 30 -5
30 -15 0 -10 -10 -15 -30 -15 l-30 0 0 -425 0 -425 -150 0 -150 0 0 -85 c0
-84 0 -85 -25 -85 -18 0 -25 5 -25 20 0 11 7 20 15 20 12 0 15 17 15 95 l0 95
-416 0 -415 0 15 -22 c51 -72 -30 -153 -102 -102 l-22 15 0 -85 0 -86 196 0
195 0 -1 23 c-4 48 -9 47 165 47 140 0 165 -2 165 -15 0 -13 -22 -15 -140 -15
l-140 0 2 -747 c2 -586 6 -747 16 -751 9 -3 12 14 12 62 l0 66 100 0 100 0 0
-65 0 -65 390 0 c340 0 390 -2 390 -15 0 -13 -64 -15 -515 -15 -508 0 -515 0
-515 -20 0 -11 -7 -20 -15 -20 -9 0 -15 9 -15 25 l0 25 -637 0 c-519 0 -633
-3 -613 -13 32 -16 47 -58 34 -94 -18 -53 -101 -56 -128 -5 -14 25 -15 19 -16
-95 l0 -123 675 0 c668 0 675 0 675 20 0 11 5 20 10 20 6 0 10 -13 10 -30 l0
-30 655 0 655 0 0 170 c0 163 -1 170 -20 170 -11 0 -20 5 -20 10 0 6 18 10 40
10 l40 0 0 170 0 170 -94 0 -94 0 -6 27 c-3 16 -8 70 -12 120 -7 100 -9 95 49
107 l27 6 0 175 0 175 -107 1 c-60 1 -126 2 -148 3 -22 1 -66 3 -97 4 l-58 2
0 145 0 145 265 0 265 0 0 645 0 645 -25 0 -25 0 0 170 0 170 -40 0 -40 0 0
945 0 945 -550 0 -550 0 0 25 c0 24 2 25 70 25 l70 0 0 155 0 155 -155 0 -155
0 0 380 0 380 -55 0 -55 0 0 90 0 90 55 0 55 0 0 215 0 215 135 0 135 0 0 118
0 118 45 22 45 22 0 255 0 255 -320 0 -320 0 0 -60z m30 -125 l0 -54 -175 0
-175 0 0 54 0 55 175 0 175 0 0 -55z m-630 -500 l0 -105 270 0 270 0 0 -685 0
-685 25 0 25 0 0 -170 0 -170 -285 0 -285 0 0 140 0 140 -610 0 -610 0 0 -130
0 -130 -425 0 -425 0 0 75 0 75 -570 0 -570 0 0 -95 c0 -78 -3 -95 -15 -95
-13 0 -15 -26 -15 -170 0 -144 2 -170 15 -170 13 0 15 -95 15 -795 l0 -795 25
0 c14 0 25 -4 25 -10 0 -5 -11 -10 -25 -10 l-25 0 0 -145 0 -145 220 0 220 0
0 140 0 140 -59 0 c-33 0 -61 3 -63 8 -2 4 -2 35 0 70 l4 62 99 0 99 0 0 -55
0 -55 700 0 c693 0 700 0 700 -20 0 -19 7 -20 105 -20 l105 0 0 -85 0 -85
-105 0 -105 0 0 -295 0 -295 620 0 620 0 0 -140 0 -140 -1580 0 c-1047 0
-1580 -3 -1580 -10 0 -5 -7 -10 -15 -10 -8 0 -15 5 -15 10 0 7 -153 10 -440
10 l-440 0 0 225 0 225 270 0 c263 0 270 0 270 20 0 11 7 20 15 20 8 0 15 -9
15 -20 0 -19 7 -20 150 -20 l150 0 0 305 c0 197 -4 305 -10 305 -6 0 -10 60
-10 160 l0 160 -25 0 c-23 0 -25 3 -25 50 0 47 2 50 25 50 l25 0 0 1165 0
1165 -380 0 -380 0 0 -205 c0 -130 -4 -205 -10 -205 -6 0 -10 115 -10 325 l0
325 75 0 75 0 0 150 0 150 -60 0 c-47 0 -60 3 -60 15 0 12 15 15 75 15 l75 0
0 -275 0 -275 300 0 300 0 0 240 0 240 248 2 247 3 -232 2 -233 3 0 195 0 195
170 0 170 0 0 -87 c0 -74 2 -84 13 -69 19 26 61 18 65 -13 3 -15 -3 -30 -14
-38 -16 -12 -14 -13 15 -13 l33 0 -7 139 -7 140 44 5 c23 3 95 8 158 11 276
13 348 16 395 20 28 2 105 7 171 11 l122 7 6 -69 c3 -38 8 -153 12 -256 l6
-188 154 0 154 0 0 220 0 220 434 0 433 0 69 100 69 99 278 1 277 0 0 -105z
m-1580 -290 l0 -85 -55 0 -55 0 0 85 0 85 55 0 55 0 0 -85z m-2430 -1269 c0
-59 4 -108 10 -111 17 -10 11 -25 -10 -25 -19 0 -20 7 -20 120 0 73 4 120 10
120 6 0 10 -41 10 -104z m4600 -272 c0 -9 -41 -148 -45 -152 -1 -2 -37 7 -79
20 -85 25 -84 23 -51 101 l15 37 80 0 c44 0 80 -3 80 -6z m-2420 -219 l0 -135
-570 0 -570 0 0 135 0 135 570 0 570 0 0 -135z m1570 0 l0 -135 -570 0 -570 0
0 135 0 135 570 0 570 0 0 -135z m-3250 95 c0 -17 -7 -20 -45 -20 l-45 0 0
-265 0 -265 -155 0 c-97 0 -155 -4 -155 -10 0 -6 -27 -10 -60 -10 l-60 0 0
295 0 295 260 0 c253 0 260 -1 260 -20z m5180 -745 l0 -395 -825 0 -825 0 0
70 0 70 40 0 40 0 0 255 0 255 -40 0 -40 0 0 70 0 70 825 0 825 0 0 -395z
m-2910 60 l0 -135 -570 0 -570 0 0 135 0 135 570 0 570 0 0 -135z m-2760 -345
l0 -450 185 0 c178 0 185 1 185 20 0 18 -8 20 -152 22 l-153 3 -3 428 c-2 375
0 427 13 427 12 0 15 -19 15 -110 l0 -110 95 0 c78 0 95 -3 95 -15 0 -12 -17
-15 -95 -15 l-95 0 0 -135 0 -135 95 0 c78 0 95 -3 95 -15 0 -12 -17 -15 -95
-15 l-95 0 0 -140 0 -140 155 0 155 0 0 -30 c0 -30 1 -30 55 -30 48 0 55 -2
55 -20 0 -20 -7 -20 -270 -20 l-270 0 0 465 c0 407 2 465 15 465 13 0 15 -57
15 -450z m3660 140 c12 -30 37 -96 55 -146 l33 -92 -121 -45 c-67 -25 -312
-118 -545 -206 l-423 -159 -18 41 c-34 79 -94 247 -90 251 2 2 166 65 364 140
198 75 441 167 540 204 99 38 181 68 182 68 1 -1 11 -26 23 -56z m2180 -105
l0 -45 -80 0 -80 0 0 45 0 45 80 0 80 0 0 -45z m-4230 -85 l0 -100 -50 0 -50
0 0 100 0 100 50 0 50 0 0 -100z m4000 -415 l0 -145 -550 0 -550 0 0 145 0
145 550 0 550 0 0 -145z m-5580 -2275 l0 -100 -60 0 -60 0 0 100 0 100 60 0
60 0 0 -100z m-550 -265 c0 -45 0 -45 -35 -45 -35 0 -35 0 -35 45 0 45 0 45
35 45 35 0 35 0 35 -45z m300 -185 l0 -100 -60 0 -60 0 0 100 0 100 60 0 60 0
0 -100z"/>
<path d="M6760 8258 c-30 -45 -63 -90 -72 -100 -17 -17 -47 -18 -443 -18
l-425 0 -2 -217 -3 -218 -174 -3 c-96 -1 -178 1 -182 5 -5 5 -13 118 -18 252
-6 134 -12 245 -13 246 -2 1 -55 -1 -118 -5 -63 -5 -182 -11 -265 -14 -82 -4
-177 -9 -210 -11 -33 -3 -98 -7 -145 -10 -46 -3 -85 -7 -85 -8 -1 -1 1 -63 4
-137 3 -74 6 -175 6 -225 l0 -90 -242 -3 -243 -2 0 -525 0 -525 598 -2 597 -3
3 -72 3 -73 394 0 394 0 3 128 3 127 635 0 635 0 3 -137 3 -138 254 0 255 0 0
139 c0 137 0 140 -22 143 l-23 3 -3 682 -2 683 -268 2 -267 3 -3 103 -3 102
-252 0 -252 -1 -55 -81z"/>
<path d="M4470 7935 c0 -9 7 -18 15 -22 23 -8 24 0 3 20 -15 14 -18 15 -18 2z"/>
<path d="M3350 7350 l0 -90 60 0 60 0 0 90 0 90 -60 0 -60 0 0 -90z"/>
<path d="M4080 4850 c0 -11 5 -20 10 -20 6 0 10 9 10 20 0 11 -4 20 -10 20 -5
0 -10 -9 -10 -20z"/>
<path d="M4628 4318 l-3 -153 -232 -3 -233 -2 0 -355 0 -355 1565 0 1565 0 0
110 0 110 -617 2 -618 3 -3 398 -2 397 -710 0 -709 0 -3 -152z"/>
<path d="M6100 4375 l0 -65 85 0 85 0 0 65 0 65 -85 0 -85 0 0 -65z"/>
<path d="M3280 3645 l0 -195 425 0 425 0 0 195 0 195 -425 0 -425 0 0 -195z"/>
<path d="M3350 6035 l0 -265 30 0 c17 0 30 5 30 10 0 6 58 10 155 10 l155 0 0
255 0 255 -185 0 -185 0 0 -265z"/>
<path d="M7400 5891 c0 -39 1 -40 38 -43 l37 -3 0 -280 0 -280 -37 -3 c-37 -3
-38 -4 -38 -43 l0 -39 795 0 795 0 0 365 0 365 -795 0 -795 0 0 -39z"/>
<path d="M6754 5306 c-45 -17 -82 -35 -83 -39 -4 -14 44 -137 53 -137 6 0 47
14 92 31 l83 31 -21 52 c-11 28 -24 61 -29 74 -5 12 -10 22 -11 21 -2 -1 -40
-15 -84 -33z"/>
<path d="M6198 5096 c-42 -17 -80 -34 -83 -37 -3 -3 7 -37 21 -76 l26 -70 86
33 c47 19 87 36 90 39 7 6 -44 139 -54 141 -5 1 -44 -12 -86 -30z"/>
<path d="M3340 4340 l0 -200 225 0 225 0 0 50 0 49 -102 3 -103 3 -3 148 -3
147 -119 0 -120 0 0 -200z"/>
<path d="M7378 4383 l-3 -138 -122 -3 -123 -3 0 -99 0 -100 -88 0 -88 0 -54
55 -54 55 -83 0 -83 0 0 -75 0 -75 473 -2 472 -3 3 -277 2 -278 613 -2 612 -3
3 -27 3 -28 130 0 129 0 0 570 0 570 -870 0 -869 0 -3 -137z"/>
<path d="M6680 4310 l0 -140 88 0 88 0 54 -55 54 -55 73 0 73 0 0 89 c0 70 -3
90 -15 95 -12 4 -15 26 -15 106 l0 100 -200 0 -200 0 0 -140z"/>
<path d="M3610 4310 l0 -40 50 0 50 0 0 40 0 40 -50 0 -50 0 0 -40z"/>
<path d="M7890 3394 c0 -14 3 -14 15 -4 8 7 15 14 15 16 0 2 -7 4 -15 4 -8 0
-15 -7 -15 -16z"/>
<path d="M5728 2980 l3 -130 -580 0 -581 0 0 125 0 125 -205 0 -205 0 0 -715
0 -715 2060 0 2060 0 0 720 0 720 -197 0 -198 0 3 -130 3 -130 -580 0 -581 0
0 130 0 130 -502 0 -503 0 3 -130z m232 -560 l0 -150 -580 0 -580 0 0 150 0
150 580 0 580 0 0 -150z m1370 5 l0 -125 -580 0 -580 0 0 125 0 125 580 0 580
0 0 -125z m-3030 -260 l0 -45 -65 0 -65 0 0 45 0 45 65 0 65 0 0 -45z m2860
-270 l0 -125 -580 0 -580 0 0 125 0 125 580 0 580 0 0 -125z"/>
<path d="M4980 2415 l0 -95 110 0 110 0 0 95 0 95 -110 0 -110 0 0 -95z"/>
<path d="M5560 2415 l0 -95 115 0 115 0 0 95 0 95 -115 0 -115 0 0 -95z"/>
<path d="M3420 2390 l0 -710 355 0 355 0 0 710 0 710 -355 0 -355 0 0 -710z"/>
<path d="M6927 1643 c-10 -10 -8 -43 2 -43 5 0 11 7 15 15 3 9 16 20 28 25 21
8 21 9 -8 9 -17 1 -34 -2 -37 -6z"/>
<path d="M1285 1466 c-29 -13 -76 -56 -61 -56 9 0 96 59 96 65 0 6 0 6 -35 -9z"/>
<path d="M1290 1439 c-68 -50 -91 -71 -86 -77 3 -2 17 5 33 15 49 35 113 73
113 69 0 -3 -34 -30 -75 -61 -41 -30 -75 -58 -75 -60 0 -8 39 13 75 39 57 42
111 71 96 53 -8 -10 -11 -20 -8 -23 8 -8 77 35 77 47 0 13 -24 11 -40 -3 -12
-11 -12 -10 -1 5 17 21 13 25 -25 32 -23 4 -41 -4 -84 -36z"/>
<path d="M1417 1408 c-26 -19 -36 -38 -19 -38 4 0 20 11 36 23 36 29 21 43
-17 15z"/>
<path d="M1314 1356 c-12 -31 0 -51 31 -51 27 0 30 3 30 30 0 25 -4 30 -28 33
-17 2 -29 -2 -33 -12z"/>
<path d="M1240 1318 c-19 -16 -30 -28 -25 -26 39 15 65 33 65 45 0 17 1 17
-40 -19z"/>
<path d="M1252 1289 c-18 -12 -31 -24 -28 -26 6 -7 66 29 66 39 0 11 0 11 -38
-13z"/>
<path d="M1408 1272 c-16 -9 -28 -20 -28 -24 0 -12 3 -10 40 17 38 28 29 33
-12 7z"/>
<path d="M1418 1243 c-15 -10 -30 -23 -32 -30 -3 -7 13 -1 34 13 22 15 40 28
40 30 0 8 -16 3 -42 -13z"/>
<path d="M1294 1236 c-11 -28 1 -51 28 -54 31 -4 48 29 28 53 -16 19 -49 19
-56 1z"/>
<path d="M1355 1164 c-55 -36 -87 -53 -70 -40 32 28 27 48 -8 27 -20 -13 -21
-13 -9 2 21 24 -1 28 -37 5 -22 -14 -29 -24 -22 -31 7 -7 16 -6 28 4 16 13 17
12 4 -4 -12 -15 -12 -19 5 -32 30 -22 73 -29 91 -13 14 11 16 11 9 -1 -7 -10
-3 -12 15 -6 32 10 79 44 79 56 0 6 -12 2 -27 -9 -71 -48 -73 -38 -3 13 81 60
57 60 -35 0 -47 -30 -85 -53 -85 -51 0 2 41 34 90 71 50 37 90 69 90 71 0 10
-22 -2 -115 -62z"/>
<path d="M1744 756 c-9 -24 0 -51 19 -54 14 -3 17 4 17 32 0 26 -4 36 -15 36
-9 0 -18 -6 -21 -14z"/>
<path d="M1460 795 c0 -37 22 -49 34 -19 9 23 -2 54 -20 54 -9 0 -14 -11 -14
-35z"/>
<path d="M1070 735 c0 -37 22 -49 34 -19 9 23 -2 54 -20 54 -9 0 -14 -11 -14
-35z"/>
<path d="M1280 775 c0 -8 0 -18 -1 -22 0 -4 4 -9 10 -11 6 -2 11 8 11 22 0 14
-4 26 -10 26 -5 0 -10 -7 -10 -15z"/>
<path d="M1617 733 c-13 -12 -7 -33 8 -33 8 0 15 9 15 20 0 20 -11 26 -23 13z"/>
<path d="M1887 733 c-13 -12 -7 -33 8 -33 8 0 15 9 15 20 0 20 -11 26 -23 13z"/>
</g>
</svg>
