<?xml version="1.0" standalone="no"?>
<!DOCTYPE svg PUBLIC "-//W3C//DTD SVG 20010904//EN"
 "http://www.w3.org/TR/2001/REC-SVG-20010904/DTD/svg10.dtd">
<svg version="1.0" xmlns="http://www.w3.org/2000/svg"
 width="1024.000000pt" height="1024.000000pt" viewBox="0 0 1024.000000 1024.000000"
 preserveAspectRatio="xMidYMid meet">

<g transform="translate(0.000000,1024.000000) scale(0.100000,-0.100000)"
fill="#000000" stroke="none">
<path d="M0 5120 l0 -5120 5120 0 5120 0 0 5120 0 5120 -5120 0 -5120 0 0
-5120z m8528 4098 c101 -48 165 -147 164 -256 -1 -126 -56 -218 -160 -269
-143 -69 -324 -8 -393 135 -32 66 -33 189 -2 248 79 151 245 211 391 142z
m-4078 -483 l0 -84 68 -3 67 -3 3 -152 3 -153 29 0 c27 0 29 2 32 48 l3 47
260 0 260 0 3 -42 c3 -40 5 -43 32 -43 27 0 29 3 32 43 l3 42 295 0 295 0 3
-37 c3 -34 6 -38 32 -38 26 0 29 4 32 38 l3 37 65 0 65 0 3 -77 3 -77 142 -3
142 -3 3 -573 c2 -503 0 -573 -13 -578 -8 -4 -15 -18 -15 -34 0 -25 4 -29 33
-32 l32 -3 3 -277 2 -278 568 -2 567 -3 3 -112 3 -112 137 -3 137 -3 3 -262 2
-262 38 -3 37 -3 3 -507 2 -508 35 0 c32 0 35 -2 35 -30 0 -28 -3 -30 -35 -30
-32 0 -35 -2 -35 -29 0 -29 2 -30 53 -33 l52 -3 0 -290 0 -290 -52 -3 c-51 -3
-53 -4 -53 -32 0 -28 2 -29 53 -32 l52 -3 0 -295 0 -295 -52 -3 c-51 -3 -53
-4 -53 -32 0 -28 2 -29 53 -32 l52 -3 3 -607 2 -607 -67 -3 -68 -3 -3 -58 -3
-57 -642 2 -642 3 -3 58 c-3 56 -4 57 -32 57 -28 0 -29 -1 -32 -57 l-3 -58
-285 0 -285 0 -3 58 c-3 56 -4 57 -32 57 -28 0 -29 -1 -32 -57 l-3 -58 -245 0
-245 0 -3 57 -3 57 -42 3 -42 3 -3 60 c-2 33 -7 64 -13 69 -12 13 -12 349 0
361 6 6 11 33 13 60 l3 50 43 3 c28 2 42 8 42 17 0 12 -29 15 -152 17 l-153 3
-3 207 -2 207 -33 3 -32 3 -3 287 -2 288 -348 2 -347 3 -3 187 -2 188 -203 2
-202 3 -3 166 -2 165 -273 1 -272 1 3 -104 3 -103 132 -3 132 -3 3 -92 3 -92
57 -3 57 -3 0 -280 0 -280 -57 -3 c-57 -3 -58 -4 -58 -32 0 -28 1 -29 58 -32
l57 -3 0 -340 0 -340 -57 -3 c-57 -3 -58 -4 -58 -32 0 -28 1 -29 58 -32 l57
-3 0 -290 0 -290 -57 -3 -57 -3 -3 -52 -3 -52 -285 0 -285 0 -3 53 c-3 50 -4
52 -32 52 -28 0 -29 -2 -32 -53 l-3 -52 -290 0 -290 0 -3 53 c-3 50 -4 52 -32
52 -28 0 -29 -2 -32 -52 l-3 -53 -280 0 -280 0 -3 53 c-3 50 -4 52 -32 52 -28
0 -29 -2 -32 -52 l-3 -53 -35 0 -35 0 -3 52 -3 52 -47 3 -47 3 0 290 0 290 58
3 c56 3 57 4 57 32 0 28 -1 29 -57 32 l-58 3 0 285 0 285 58 3 c56 3 57 4 57
32 0 28 -1 29 -57 32 l-58 3 0 285 0 285 58 3 c56 3 57 4 57 32 0 28 -1 29
-57 32 l-58 3 0 190 0 190 57 3 c53 3 57 5 60 30 l3 27 558 3 558 2 -2 271
c-1 162 2 274 8 280 6 6 207 8 531 7 410 -2 523 0 527 10 3 7 24 12 55 12 43
0 50 3 50 19 0 16 -8 20 -42 23 -39 3 -43 6 -47 33 l-4 30 -6 -30 -6 -30 -440
0 -440 0 -3 312 -2 312 -78 3 -77 3 -7 279 c-4 153 -4 450 0 660 l7 381 613 3
612 2 0 200 0 200 -40 0 -40 0 -2 -172 -3 -173 -570 0 -570 0 -3 28 -3 27
-210 0 -209 0 0 -55 0 -54 123 -3 122 -3 0 -370 0 -370 -62 -3 -63 -3 0 -630
0 -629 -417 2 -418 3 -3 52 -3 52 -52 3 -52 3 0 295 0 295 53 3 c50 3 52 4 52
32 0 28 -2 29 -53 32 l-52 3 -3 192 -2 192 -123 3 -122 3 -3 1165 -2 1164 77
78 78 78 1160 -2 1160 -3 3 -107 3 -107 32 -3 32 -3 3 -232 2 -233 65 0 65 0
2 233 3 232 103 3 102 3 0 189 0 190 155 0 155 0 0 -85z m3831 -295 c2 -83 2
-85 -22 -88 -24 -3 -24 -2 -24 82 0 78 2 86 20 89 11 1 21 3 22 2 1 0 3 -38 4
-85z m611 -15 l3 -70 -53 1 c-63 2 -73 12 -70 69 3 39 4 40 41 40 36 0 38 1
33 27 -4 22 -1 27 17 30 25 3 25 4 29 -97z m-1124 65 l4 -25 -24 23 c-29 26
-48 28 -48 5 0 -10 16 -27 38 -38 30 -16 37 -26 37 -50 0 -37 -37 -58 -84 -49
-25 5 -31 11 -31 33 l0 26 23 -29 c16 -20 29 -27 40 -23 29 11 19 36 -22 57
-48 24 -60 53 -35 81 13 15 28 19 58 17 35 -3 42 -7 44 -28z m67 7 c0 -8 4
-19 8 -23 4 -4 7 -34 7 -66 0 -57 -1 -58 -27 -58 -28 0 -28 0 -26 62 1 35 3
65 4 68 2 6 6 23 7 33 3 15 27 1 27 -16z m769 7 c22 -21 20 -40 -6 -58 -12 -9
-18 -16 -12 -16 9 0 44 -60 44 -75 0 -3 -13 -5 -30 -5 -22 0 -30 5 -30 18 -1
9 -7 28 -15 42 -14 25 -14 24 -15 -17 0 -40 -2 -43 -28 -43 l-28 0 -2 76 c-2
42 -5 81 -8 85 -10 17 113 10 130 -7z m-579 -37 l40 -2 6 -55 c3 -30 4 -57 3
-59 -2 -2 -13 -1 -26 2 -21 6 -23 11 -20 52 3 36 1 45 -12 45 -13 0 -16 -11
-16 -51 0 -47 -2 -50 -22 -47 -19 2 -23 10 -24 38 -1 55 -3 60 -20 60 -12 0
-15 -10 -13 -47 3 -45 2 -48 -21 -51 -24 -3 -25 -1 -25 63 l0 65 55 -6 c30 -3
73 -6 95 -7z m144 3 c39 1 51 -12 51 -55 0 -45 -13 -58 -49 -53 -27 4 -31 2
-31 -18 0 -12 6 -25 13 -27 6 -3 -4 -6 -23 -6 l-35 -1 0 86 c0 80 1 85 20 79
11 -4 35 -6 54 -5z m227 -13 c30 -26 26 -47 -10 -47 -19 0 -22 4 -18 30 3 18
0 30 -7 30 -19 0 -17 -70 3 -82 6 -4 19 -5 29 -2 29 9 19 -13 -13 -26 -25 -10
-34 -10 -55 4 -33 22 -35 78 -3 100 30 21 42 20 74 -7z m332 6 c13 -12 22 -35
25 -65 l5 -48 -55 4 c-50 3 -72 15 -73 38 0 11 43 38 62 38 10 0 18 6 18 13 0
24 -12 27 -29 6 -15 -19 -18 -20 -30 -5 -11 14 -10 17 10 25 35 14 44 13 67
-6z m372 6 c0 -8 5 -8 15 1 12 10 18 10 30 0 21 -17 8 -33 -21 -26 -22 6 -24
3 -24 -32 0 -21 5 -43 12 -50 9 -9 8 -12 -7 -11 -43 1 -50 12 -50 72 0 53 1
57 22 57 13 0 23 -5 23 -11z m-145 -19 c-14 -16 -20 -17 -27 -8 -13 22 -9 28
19 28 26 0 26 0 8 -20z m66 -40 c3 -30 5 -56 5 -57 -1 -1 -26 2 -56 5 -50 6
-55 9 -55 32 0 20 7 27 33 35 21 6 32 15 32 28 0 12 6 17 18 15 13 -2 18 -17
23 -58z"/>
<path d="M8345 9142 c-31 -19 -63 -52 -51 -52 9 0 96 59 96 65 0 9 -16 5 -45
-13z"/>
<path d="M8384 9137 c-63 -45 -115 -90 -110 -94 2 -3 36 16 75 41 39 25 71 44
71 42 0 -2 -34 -29 -76 -61 -42 -31 -74 -59 -71 -61 6 -7 207 127 207 138 0
12 -24 10 -39 -4 -10 -11 -11 -10 -6 5 10 24 -13 21 -51 -6z"/>
<path d="M8455 9105 c-16 -13 -26 -27 -23 -31 8 -8 78 34 78 47 0 16 -24 9
-55 -16z"/>
<path d="M8487 9088 c-26 -19 -36 -38 -19 -38 4 0 20 11 36 23 36 29 21 43
-17 15z"/>
<path d="M8387 9044 c-11 -11 -8 -52 4 -59 5 -4 21 -4 35 -1 20 5 25 12 22 34
-2 20 -9 28 -28 30 -14 2 -29 0 -33 -4z"/>
<path d="M8305 8994 c-31 -27 -28 -28 18 -5 15 8 27 18 27 23 0 14 -14 8 -45
-18z"/>
<path d="M8322 8969 c-18 -12 -31 -24 -28 -26 6 -7 66 29 66 39 0 11 0 11 -38
-13z"/>
<path d="M8478 8952 c-31 -18 -39 -38 -10 -23 17 9 49 41 41 41 -2 0 -16 -8
-31 -18z"/>
<path d="M8483 8914 c-18 -16 -21 -22 -8 -15 32 15 61 40 48 41 -7 0 -25 -12
-40 -26z"/>
<path d="M8360 8909 c-9 -15 -8 -24 1 -35 18 -21 57 -18 64 6 14 44 -44 69
-65 29z"/>
<path d="M8425 8844 c-55 -36 -87 -53 -70 -40 16 14 26 28 23 32 -8 7 -78 -34
-78 -46 0 -9 62 -40 82 -40 8 0 20 6 27 13 11 10 13 10 7 0 -4 -8 -2 -13 6
-13 18 0 88 48 88 61 0 6 -12 2 -27 -9 -45 -31 -57 -36 -49 -24 4 7 27 26 52
42 80 56 46 51 -41 -5 -47 -30 -85 -53 -85 -51 0 2 41 34 90 71 50 37 90 69
90 71 0 10 -22 -2 -115 -62z"/>
<path d="M8302 8838 c-18 -11 -29 -24 -26 -29 8 -13 16 -11 48 15 36 30 20 41
-22 14z"/>
<path d="M1352 8557 l-72 -72 0 -1143 0 -1142 100 0 100 0 0 1115 0 1115 1110
0 1110 0 0 100 0 100 -1138 0 -1138 0 -72 -73z"/>
<path d="M4450 8515 l0 -105 -245 0 -245 0 0 -235 0 -235 -95 0 -95 0 0 135 0
135 -575 0 -575 0 0 -40 0 -40 80 0 80 0 0 -85 0 -85 -80 0 -80 0 0 -280 0
-280 -115 0 c-96 0 -115 3 -115 15 0 12 18 15 100 15 l100 0 0 210 0 210 -80
0 -80 0 0 85 0 84 83 4 82 3 -82 2 -83 2 0 85 0 85 80 0 c65 0 81 3 89 18 9
16 43 17 538 13 291 -2 552 0 581 4 l52 7 0 85 0 86 -67 -6 c-38 -4 -265 -7
-505 -7 l-438 0 0 -55 0 -55 -60 0 -59 0 -3 58 c-2 47 -6 57 -20 56 -10 0
-216 -1 -458 -2 l-440 -2 0 -55 0 -55 -110 0 -110 0 0 -500 0 -500 80 0 80 0
0 -100 0 -100 85 0 85 0 0 -95 0 -95 -165 0 -165 0 0 -350 0 -350 55 0 55 0 0
35 c0 32 2 35 29 35 25 0 30 -4 33 -27 l3 -28 163 -3 162 -2 0 25 c0 23 4 25
45 25 25 0 45 5 45 10 0 6 -4 10 -10 10 -5 0 -10 7 -10 15 0 13 25 15 165 15
140 0 165 -2 165 -15 0 -8 -4 -15 -10 -15 -5 0 -10 -4 -10 -10 0 -20 28 -9 31
13 2 12 3 176 1 365 l-3 342 -54 0 -55 0 0 85 0 85 240 0 240 0 0 -30 0 -30
545 0 545 0 0 175 0 175 70 0 c40 0 70 4 70 10 0 6 9 19 20 30 11 11 20 27 20
35 0 8 7 15 15 15 8 0 15 -7 15 -15 0 -20 17 -19 30 3 10 16 10 16 20 0 13
-22 30 -23 30 -3 0 8 7 15 15 15 8 0 15 -7 15 -15 0 -8 7 -15 15 -15 8 0 15 7
15 15 0 8 7 15 15 15 8 0 15 -7 15 -15 0 -20 17 -19 29 3 9 16 11 16 25 -3
l16 -20 16 20 c14 19 16 19 25 3 12 -22 29 -23 29 -3 0 8 6 15 14 15 19 0 40
26 26 35 -5 3 -10 17 -10 30 0 31 32 50 60 35 20 -11 20 -8 20 175 l0 185 124
0 123 0 7 -46 c3 -26 6 -287 6 -580 l0 -534 95 0 95 0 0 -60 0 -60 -158 0
-159 0 -72 75 c-66 68 -77 75 -111 75 l-39 0 -3 -47 -3 -48 -162 -3 c-141 -2
-163 0 -163 13 0 13 22 15 150 15 l150 0 0 45 0 45 60 0 60 0 0 285 0 285
-235 0 -235 0 0 -30 c0 -16 -4 -30 -10 -30 -6 0 -10 -72 -9 -197 1 -109 4
-187 6 -173 3 14 9 30 14 36 5 6 4 15 -2 21 -6 6 -9 23 -7 39 l3 29 75 0 c75
0 75 0 78 -28 2 -16 -2 -34 -8 -42 -7 -9 -8 -15 0 -20 5 -3 10 -17 10 -31 0
-19 5 -24 25 -24 24 0 25 3 25 55 0 43 3 55 15 55 13 0 15 -12 13 -67 l-3 -68
-165 2 -165 3 0 -33 c0 -29 -3 -32 -30 -32 -27 0 -30 3 -30 33 l0 32 -542 0
-543 0 0 -465 0 -465 90 0 90 0 0 -170 c0 -107 -4 -170 -10 -170 -6 0 -10
-112 -10 -315 l0 -315 415 0 415 0 0 30 c0 28 3 30 35 30 32 0 35 -2 35 -30 0
-29 2 -30 45 -30 l45 0 0 -50 0 -50 -55 0 -55 0 0 -35 c0 -32 -2 -35 -30 -35
-25 0 -30 4 -30 25 l0 25 -500 0 -500 0 0 -280 0 -280 -560 0 -560 0 0 -30 0
-30 -60 0 -60 0 0 -165 0 -165 60 0 60 0 0 -60 0 -60 -60 0 -60 0 0 -260 0
-260 60 0 60 0 0 -60 0 -60 -60 0 -60 0 0 -260 0 -260 60 0 60 0 0 -60 0 -60
-60 0 -60 0 0 -265 0 -265 50 0 50 0 0 -55 c0 -30 5 -55 10 -55 6 0 10 25 10
55 l0 55 60 0 60 0 0 -55 0 -55 255 0 255 0 0 55 0 55 60 0 60 0 0 -55 0 -55
265 0 265 0 0 55 0 55 60 0 60 0 0 -55 0 -55 260 0 260 0 0 55 0 55 60 0 60 0
0 265 0 265 -60 0 -60 0 0 60 0 60 60 0 60 0 0 315 0 315 -60 0 -60 0 0 60 0
60 60 0 60 0 0 255 0 255 -60 0 -60 0 0 95 0 95 -135 0 -135 0 0 105 0 105
-30 0 c-27 0 -30 3 -30 30 l0 30 420 0 420 0 0 -25 c0 -25 -1 -25 -90 -25
l-90 0 0 -145 0 -145 205 0 205 0 0 -190 0 -190 330 0 330 0 0 330 0 330 -375
0 -375 0 0 30 0 30 118 0 118 0 44 45 44 45 73 0 73 0 0 35 c0 19 5 35 10 35
6 0 10 132 10 376 0 206 -4 373 -8 370 -5 -3 -21 -38 -37 -78 -15 -40 -29 -74
-30 -75 -2 -3 -108 37 -114 43 -2 2 11 42 29 89 35 92 35 92 94 69 14 -5 16
11 16 144 0 149 0 151 23 154 21 3 22 8 25 101 l3 97 -366 0 -365 0 0 -60 0
-60 -65 0 c-58 0 -65 -2 -65 -20 0 -15 -7 -20 -30 -20 l-29 0 -3 88 -3 87
-122 3 -123 3 0 124 0 125 125 0 c77 0 125 4 125 10 0 6 72 10 195 10 l195 0
0 -95 0 -95 535 0 535 0 0 -25 c0 -18 -5 -25 -20 -25 -20 0 -20 -7 -20 -665
l0 -665 440 0 c242 0 440 3 440 8 0 4 -35 7 -77 7 -74 0 -78 1 -81 23 -2 13 1
29 7 36 7 9 7 16 0 23 -6 6 -9 23 -7 39 2 23 9 30 31 32 16 2 34 -2 42 -8 10
-8 15 -8 20 0 4 7 20 10 36 8 29 -4 29 -4 29 44 l0 48 120 0 120 0 0 50 0 50
200 0 200 0 0 -85 0 -85 -45 0 -45 0 0 -125 0 -125 -715 0 -715 0 0 -85 0 -85
-65 0 -65 0 0 -260 0 -260 -35 0 -35 0 0 -360 0 -360 35 0 35 0 0 -210 0 -210
150 0 150 0 0 -45 c0 -25 5 -45 10 -45 6 0 10 -47 10 -120 l0 -120 90 0 90 0
0 84 c0 76 2 84 20 89 20 5 20 12 18 174 l-3 168 -67 3 -68 3 0 179 c0 111 4
180 10 180 6 0 11 -67 12 -167 l3 -168 55 0 55 0 3 438 2 437 -115 0 -115 0 0
-315 0 -315 -40 0 -40 0 0 420 0 420 40 0 c33 0 40 3 40 20 0 19 7 20 120 20
l120 0 0 -110 0 -110 350 0 350 0 0 30 0 30 290 0 290 0 0 -23 c0 -14 -16 -39
-40 -62 l-40 -39 0 -213 0 -212 40 -23 c34 -19 40 -28 40 -55 l0 -33 -285 0
-285 0 0 -125 0 -125 425 0 c371 0 425 -2 425 -15 0 -13 -55 -15 -435 -15
l-435 0 0 50 0 50 -65 0 -65 0 0 70 0 70 65 0 65 0 0 305 0 305 -340 0 -340 0
0 -635 c0 -628 0 -635 -20 -635 -11 0 -20 -5 -20 -10 0 -6 12 -9 27 -8 24 3
27 -2 39 -45 l12 -47 -42 -19 c-41 -19 -36 -19 804 -20 l846 -1 44 45 c34 35
47 42 57 33 11 -9 27 2 79 53 l64 64 67 -67 67 -67 -69 -72 c-38 -39 -96 -97
-130 -130 l-62 -59 -82 85 -83 85 -907 0 c-498 0 -916 3 -928 6 -22 6 -23 10
-23 135 l0 129 -40 0 -40 0 0 -55 c0 -30 -4 -55 -10 -55 -6 0 -10 -58 -10
-155 0 -97 4 -155 10 -155 6 0 10 -28 10 -65 l0 -65 45 0 45 0 0 -60 0 -60
220 0 220 0 0 60 0 60 60 0 60 0 0 -30 0 -30 260 0 260 0 0 30 0 30 60 0 60 0
0 -30 0 -30 260 0 c167 0 260 -4 260 -10 0 -6 -93 -10 -260 -10 -253 0 -260
-1 -260 -20 0 -20 7 -20 485 -20 l485 0 0 100 0 100 100 0 100 0 0 110 0 110
100 0 100 0 0 430 0 430 -55 0 -55 0 0 60 0 60 55 0 55 0 0 270 0 270 -55 0
-55 0 0 60 0 60 -85 0 -85 0 0 235 0 235 -85 0 -85 0 0 110 0 110 -45 0 -45 0
0 85 0 85 90 0 90 0 0 -84 0 -85 -37 -4 c-21 -2 35 -4 125 -5 l162 -2 0 495 0
495 -42 0 -43 0 3 265 3 265 -140 0 -141 0 0 115 0 115 -570 0 -570 0 0 280 0
280 -35 0 c-35 0 -35 0 -35 45 0 25 -4 45 -10 45 -5 0 -10 7 -10 15 0 9 9 15
25 15 l25 0 0 380 c0 344 -5 426 -24 358 -3 -13 -6 -170 -6 -350 l0 -328 -209
0 c-115 0 -216 -3 -225 -6 -11 -4 -16 -19 -16 -45 0 -35 3 -39 25 -39 16 0 25
6 25 15 0 12 13 15 55 15 42 0 55 -3 55 -15 0 -8 -4 -15 -10 -15 -7 0 -10
-168 -10 -485 l0 -485 60 0 60 0 0 -100 0 -100 -165 0 -165 0 0 -135 0 -135
25 0 c20 0 25 -5 25 -25 0 -24 -3 -25 -55 -25 l-55 0 0 190 0 190 90 0 90 0 0
205 0 205 -70 0 -70 0 0 130 0 130 70 0 c63 0 70 2 70 20 0 19 -7 20 -240 20
l-240 0 0 60 0 60 79 0 78 0 5 178 c3 97 4 180 1 185 -2 4 -140 7 -306 7
l-302 0 0 -77 0 -78 -75 0 -75 0 0 75 0 75 42 -1 43 -1 2 556 3 556 133 3 132
3 0 44 0 45 -235 0 -235 0 0 -50 0 -50 -60 0 -60 0 0 155 0 155 -55 0 -55 0 0
-105z m490 -135 c0 -6 -48 -10 -125 -10 -77 0 -125 4 -125 10 0 6 48 10 125
10 77 0 125 -4 125 -10z m-1550 -680 l0 -180 -115 0 -115 0 0 180 0 180 115 0
115 0 0 -180z m-1260 -116 c28 -42 50 -80 50 -84 0 -12 -158 -112 -167 -107
-17 11 -106 161 -97 164 5 2 43 26 84 53 41 27 76 49 78 50 1 0 25 -34 52 -76z
m3390 -549 c0 -103 -4 -165 -10 -165 -6 0 -10 62 -10 165 0 103 4 165 10 165
6 0 10 -62 10 -165z m-1740 100 l0 -25 -185 0 -185 0 0 25 0 25 185 0 185 0 0
-25z m2880 -1018 l0 -93 75 -74 75 -74 0 42 0 42 290 0 290 0 0 -105 0 -105
25 0 c18 0 25 -5 25 -20 0 -19 -7 -20 -165 -20 l-165 0 0 -110 0 -110 -185 0
c-158 0 -185 2 -185 15 0 13 -30 15 -210 15 l-210 0 0 40 0 40 -120 0 c-100 0
-120 3 -120 15 0 12 -16 15 -80 15 -79 0 -80 0 -80 25 0 25 1 25 80 25 l80 0
0 30 0 30 185 0 185 0 0 205 0 205 65 0 c62 0 65 1 65 24 0 24 6 27 68 35 9 1
12 -23 12 -92z m460 -122 c0 -13 -26 -15 -170 -15 -144 0 -170 2 -170 15 0 13
26 15 170 15 144 0 170 -2 170 -15z m-2490 -200 l0 -85 -60 0 -60 0 0 85 0 85
60 0 60 0 0 -85z m3150 -980 l0 -85 -90 0 -90 0 0 85 0 85 90 0 90 0 0 -85z
m-716 -277 c3 -13 13 -84 22 -158 16 -131 24 -171 24 -117 l0 27 90 0 90 0 0
-90 0 -90 -90 0 -90 0 0 41 c0 40 -1 41 -28 36 -16 -3 -63 -9 -104 -13 l-75
-6 -6 28 c-11 63 -41 334 -36 339 8 7 107 22 156 24 37 1 43 -2 47 -21z
m-4698 -471 c-17 -13 -17 -16 12 -63 27 -43 29 -51 16 -65 -8 -8 -11 -18 -8
-22 12 -12 -7 -28 -21 -17 -7 6 -19 8 -27 5 -10 -4 -26 10 -48 44 -27 44 -35
49 -51 40 -15 -7 -19 -6 -19 5 0 20 142 108 154 96 6 -6 3 -15 -8 -23z m2334
-127 c0 -109 -2 -130 -15 -130 -13 0 -15 21 -15 130 0 109 2 130 15 130 13 0
15 -21 15 -130z m240 0 c0 -80 -4 -130 -10 -130 -6 0 -10 43 -10 108 0 59 -3
117 -6 130 -5 16 -2 22 10 22 14 0 16 -17 16 -130z m-40 -20 l0 -140 -90 0
-90 0 0 140 0 140 90 0 90 0 0 -140z m-2469 -172 c0 -13 1 -275 2 -583 l2
-560 425 0 425 0 0 145 0 145 -260 2 c-143 2 -268 3 -277 3 -17 0 -18 27 -18
435 l0 435 295 0 295 0 0 -745 0 -745 -750 0 -750 0 0 745 0 745 305 0 305 0
1 -22z"/>
<path d="M6608 6148 c-3 -21 -9 -23 -65 -26 l-63 -3 -2 -202 -3 -202 -181 -3
-182 -2 -4 -30 c-3 -16 -2 -34 2 -39 3 -6 57 -12 120 -13 l115 -3 3 -37 3 -38
179 0 179 0 3 93 3 92 33 3 32 3 0 57 0 58 -75 74 -75 74 0 83 c0 46 -4 83 -9
83 -5 0 -11 -10 -13 -22z"/>
<path d="M4740 3920 l0 -120 65 0 65 0 0 120 c0 73 -4 120 -10 120 -5 0 -10
-6 -10 -12 0 -7 -5 -20 -10 -28 -9 -13 -11 -13 -21 0 -8 11 -12 12 -16 3 -8
-21 -20 -15 -27 12 -4 14 -13 25 -21 25 -12 0 -15 -21 -15 -120z"/>
<path d="M1850 3025 l0 -715 720 0 720 0 0 135 0 135 -440 0 -440 0 0 580 0
580 -280 0 -280 0 0 -715z"/>
<path d="M2750 3335 c0 -280 3 -405 11 -405 7 0 10 49 9 148 -1 81 -1 175 -1
210 l1 62 70 0 69 0 3 -57 3 -58 157 -3 157 -3 3 -152 3 -152 25 0 25 0 3 408
2 407 -270 0 -270 0 0 -405z"/>
<path d="M5270 8365 c0 -25 5 -45 10 -45 6 0 10 18 10 40 l0 40 245 0 c211 0
245 -2 245 -15 0 -13 -33 -15 -235 -15 -153 0 -235 -4 -235 -10 0 -7 85 -9
248 -8 l247 3 3 28 3 27 -270 0 -271 0 0 -45z"/>
<path d="M5930 8380 c0 -28 2 -30 40 -30 38 0 40 2 40 30 0 28 -2 30 -40 30
-38 0 -40 -2 -40 -30z"/>
<path d="M1520 8355 l0 -35 85 0 85 0 0 35 0 35 -85 0 -85 0 0 -35z"/>
<path d="M2670 8350 c0 -27 3 -30 30 -30 27 0 30 3 30 30 0 27 -3 30 -30 30
-27 0 -30 -3 -30 -30z"/>
<path d="M5340 8305 c0 -13 -31 -15 -215 -15 l-215 0 0 -525 0 -525 325 0 325
0 0 95 0 95 130 0 130 0 0 -95 0 -95 210 0 210 0 0 335 0 335 -65 0 -65 0 0
155 0 155 -70 0 -70 0 -1 53 c0 28 -3 46 -6 40 -6 -16 -193 -18 -193 -3 0 6
-78 10 -215 10 -184 0 -215 -2 -215 -15z"/>
<path d="M4530 7422 l0 -548 63 -62 63 -62 132 0 132 0 0 30 0 29 -92 3 -93 3
-5 575 c-3 316 -7 576 -8 578 -1 1 -45 2 -97 2 l-95 0 0 -548z"/>
<path d="M4485 7560 c3 -5 8 -10 11 -10 2 0 4 5 4 10 0 6 -5 10 -11 10 -5 0
-7 -4 -4 -10z"/>
<path d="M1530 7095 l0 -165 50 0 50 0 0 165 0 165 -50 0 -50 0 0 -165z"/>
<path d="M4855 7140 c-8 -13 4 -32 16 -25 12 8 12 35 0 35 -6 0 -13 -4 -16
-10z"/>
<path d="M5896 7105 c-4 -12 -32 -15 -160 -15 l-155 0 -3 -137 -3 -138 -77 -3
-78 -3 0 -29 0 -30 238 -2 237 -3 0 -383 0 -382 78 0 77 0 0 70 0 69 -57 3
-58 3 -3 498 c-2 415 -4 497 -16 497 -8 0 -16 -7 -20 -15z"/>
<path d="M4087 7086 c-7 -19 11 -32 24 -19 6 6 5 14 -4 22 -12 9 -16 8 -20 -3z"/>
<path d="M2440 6645 l0 -345 55 0 55 0 0 345 0 345 -55 0 -55 0 0 -345z"/>
<path d="M2120 6270 c0 -6 45 -10 115 -10 70 0 115 4 115 10 0 6 -45 10 -115
10 -70 0 -115 -4 -115 -10z"/>
<path d="M1634 6210 l6 -30 -55 0 -55 0 0 -185 0 -185 55 0 55 0 0 -60 0 -60
-55 0 -55 0 0 -270 0 -270 55 0 54 0 4 -57 c2 -32 4 213 5 545 1 440 -1 602
-9 602 -7 0 -9 -11 -5 -30z"/>
<path d="M1817 6193 c-134 -3 -148 -5 -145 -21 3 -15 20 -17 163 -17 153 0
160 1 160 20 0 11 -7 20 -15 20 -8 1 -82 -1 -163 -2z"/>
<path d="M2027 6154 c-4 -4 -7 -191 -7 -416 l0 -408 130 0 130 0 0 75 0 75 70
0 70 0 -2 338 -3 337 -191 3 c-104 1 -193 -1 -197 -4z"/>
<path d="M1670 6120 c0 -19 7 -20 165 -20 158 0 165 1 165 20 0 19 -7 20 -165
20 -158 0 -165 -1 -165 -20z"/>
<path d="M1672 6063 c3 -16 20 -18 166 -21 157 -2 162 -2 162 18 0 19 -6 20
-166 20 -152 0 -165 -1 -162 -17z"/>
<path d="M1673 6015 c-11 -31 13 -36 168 -33 146 3 154 4 154 23 0 19 -8 20
-158 23 -136 2 -158 0 -164 -13z"/>
<path d="M3810 5898 l0 -83 65 3 64 4 3 56 3 57 390 0 390 0 3 -660 c1 -415
-1 -667 -7 -680 -6 -11 -11 -31 -13 -45 -3 -24 -6 -25 -78 -28 -73 -3 -76 -4
-118 -45 l-43 -42 258 -5 258 -5 3 -257 2 -258 25 0 25 0 2 258 3 257 63 3 62
3 2 82 c0 45 1 89 0 97 -1 8 -2 320 -2 693 l-1 677 -680 0 -679 0 0 -82z"/>
<path d="M1672 5953 c3 -16 20 -18 166 -21 157 -2 162 -2 162 18 0 19 -6 20
-166 20 -152 0 -165 -1 -162 -17z"/>
<path d="M1672 5763 l3 -148 160 0 160 0 3 148 3 147 -166 0 -166 0 3 -147z"/>
<path d="M1677 5593 c-4 -3 -7 -12 -7 -20 0 -10 34 -13 165 -13 158 0 165 1
165 20 0 19 -7 20 -158 20 -87 0 -162 -3 -165 -7z"/>
<path d="M1670 5520 c0 -19 7 -20 165 -20 158 0 165 1 165 20 0 19 -7 20 -165
20 -158 0 -165 -1 -165 -20z"/>
<path d="M1677 5483 c-4 -3 -7 -12 -7 -20 0 -10 34 -13 165 -13 158 0 165 1
165 20 0 19 -7 20 -158 20 -87 0 -162 -3 -165 -7z"/>
<path d="M2317 5463 c-4 -3 -7 -12 -7 -20 0 -9 16 -13 55 -13 40 0 55 4 55 14
0 8 -7 17 -16 20 -21 8 -79 8 -87 -1z"/>
<path d="M1672 5413 c3 -16 20 -18 166 -21 157 -2 162 -2 162 18 0 19 -6 20
-166 20 -152 0 -165 -1 -162 -17z"/>
<path d="M2310 5399 c0 -18 5 -20 52 -17 41 2 54 7 56 21 3 14 -5 17 -52 17
-50 0 -56 -2 -56 -21z"/>
<path d="M1673 5365 c-11 -31 13 -36 168 -33 146 3 154 4 154 23 0 19 -8 20
-158 23 -136 2 -158 0 -164 -13z"/>
<path d="M2310 5350 c0 -19 5 -21 53 -18 38 2 52 7 52 18 0 11 -14 16 -52 18
-48 3 -53 1 -53 -18z"/>
<path d="M1677 5313 c-4 -3 -7 -66 -7 -140 l0 -133 170 0 170 0 0 109 c0 60
-3 123 -6 140 l-6 31 -158 0 c-86 0 -160 -3 -163 -7z"/>
<path d="M2298 5306 c-16 -11 -18 -31 -18 -140 l0 -126 70 0 70 0 0 140 0 140
-52 0 c-29 0 -61 -7 -70 -14z"/>
<path d="M2020 5170 c0 -123 1 -130 20 -130 19 0 20 7 20 130 0 123 -1 130
-20 130 -19 0 -20 -7 -20 -130z"/>
<path d="M2070 5170 c0 -123 1 -130 20 -130 19 0 20 7 20 130 0 123 -1 130
-20 130 -19 0 -20 -7 -20 -130z"/>
<path d="M2130 5170 c0 -109 2 -130 15 -130 13 0 15 21 15 130 0 109 -2 130
-15 130 -13 0 -15 -21 -15 -130z"/>
<path d="M2180 5170 c0 -123 1 -130 20 -130 19 0 20 7 20 114 0 122 -4 146
-26 146 -11 0 -14 -26 -14 -130z"/>
<path d="M2230 5170 c0 -123 1 -130 20 -130 19 0 20 7 20 130 0 123 -1 130
-20 130 -19 0 -20 -7 -20 -130z"/>
<path d="M6348 4913 l-3 -48 -117 -3 -117 -3 -3 -129 -3 -130 247 0 247 0 3
123 3 122 43 3 42 3 0 55 0 54 -169 0 -170 0 -3 -47z"/>
<path d="M5991 4726 c-9 -10 -9 -16 -1 -21 17 -10 37 12 24 25 -8 8 -15 6 -23
-4z"/>
<path d="M7944 4305 c0 -148 2 -211 3 -138 2 72 2 194 0 270 -1 76 -3 17 -3
-132z"/>
<path d="M5330 3620 c0 -253 4 -390 10 -390 6 0 10 137 10 390 0 253 -4 390
-10 390 -6 0 -10 -137 -10 -390z"/>
<path d="M6350 3590 l0 -300 220 0 220 0 0 300 0 300 -220 0 -220 0 0 -300z"/>
<path d="M6820 3868 c0 -20 1 -21 20 -3 11 10 20 20 20 22 0 1 -9 3 -20 3 -14
0 -20 -7 -20 -22z"/>
<path d="M6820 3310 c0 -15 7 -20 26 -20 27 0 25 14 -7 30 -16 9 -19 7 -19
-10z"/>
<path d="M5940 2000 c0 -19 7 -20 260 -20 253 0 260 1 260 20 0 19 -7 20 -260
20 -253 0 -260 -1 -260 -20z"/>
<path d="M8814 8436 c-9 -24 0 -51 19 -54 14 -3 17 4 17 32 0 26 -4 36 -15 36
-9 0 -18 -6 -21 -14z"/>
<path d="M8534 8488 c3 -13 6 -29 6 -35 0 -19 17 -16 24 3 9 24 -3 54 -21 54
-11 0 -14 -6 -9 -22z"/>
<path d="M8140 8415 c0 -37 22 -49 34 -19 9 23 -2 54 -20 54 -9 0 -14 -11 -14
-35z"/>
<path d="M8687 8413 c-13 -12 -7 -33 8 -33 8 0 15 9 15 20 0 20 -11 26 -23 13z"/>
<path d="M8957 8413 c-13 -12 -7 -33 8 -33 8 0 15 9 15 20 0 20 -11 26 -23 13z"/>
</g>
</svg>
