<?xml version="1.0" encoding="UTF-8" standalone="no"?>
<!-- Created with Inkscape (http://www.inkscape.org/) -->

<svg
   height="8.4536543mm"
   viewBox="0 -1 11.735453 10.4536543"
   version="1.1"
   id="svg1"
   xml:space="preserve"
   inkscape:export-filename="zeus.svg"
   inkscape:export-xdpi="96"
   inkscape:export-ydpi="96"
   xmlns:inkscape="http://www.inkscape.org/namespaces/inkscape"
   xmlns:sodipodi="http://sodipodi.sourceforge.net/DTD/sodipodi-0.dtd"
   xmlns="http://www.w3.org/2000/svg"
   xmlns:svg="http://www.w3.org/2000/svg"><sodipodi:namedview
     id="namedview1"
     pagecolor="#505050"
     bordercolor="#eeeeee"
     borderopacity="1"
     inkscape:showpageshadow="0"
     inkscape:pageopacity="0"
     inkscape:pagecheckerboard="0"
     inkscape:deskcolor="#505050"
     inkscape:document-units="mm" /><defs
     id="defs1" /><g
     inkscape:label="Warstwa 1"
     inkscape:groupmode="layer"
     id="layer1"
     transform="translate(-98.997156,-144.27957)"><path
       d="m 104.26202,147.19643 h -0.86519 c -0.11377,0 -0.17066,0.0569 -0.17066,0.17066 v 0.48762 c 0,0.12171 0.0569,0.18256 0.17066,0.18256 0.2884,0 0.64135,0.0558 0.87736,-0.14631 0.10001,-0.0918 0.3093,-0.69453 -0.0122,-0.69453 m 6.38492,-1.9005 0.0857,0.0365 c -0.0434,0.60642 -0.16113,1.21338 -0.24395,1.81531 -0.0717,0.30718 -0.54425,0.36274 -0.79798,0.43285 -0.20108,0.055 -0.46911,0.17278 -0.68051,0.17675 -0.17621,0.003 -1.55601,-0.0654 -1.55601,0.1217 0,0.15584 0.0915,0.78661 -0.17013,0.76809 -0.40164,-0.0717 -0.81889,-0.0373 -1.22608,-0.0373 -0.40931,0 -0.79798,-0.0164 -1.19883,0.0609 -0.067,-0.0468 -0.10416,-0.12568 -0.0976,-0.20717 -0.12197,0.19473 -0.24342,0.29236 -0.36539,0.29236 h -1.20676 c -0.23098,0 -0.28311,0.37518 -0.36698,0.54954 -0.18706,0.39 -0.28125,0.79613 -0.38232,1.2147 -0.17675,0.7284 -0.26141,1.33562 -0.16431,2.08651 0,0.21722 -0.27331,0.0825 -0.40402,0.10054 -0.11165,0.0154 -0.20928,0.0394 -0.31935,0.0167 l -0.94933,-0.1987 c -0.25003,-0.0524 -0.49768,-0.12594 -0.745062,-0.18892 -0.289455,-0.0738 -0.731309,-0.1135 -0.823119,-0.4609 -0.121444,-0.38576 0.08123,-0.90223 0.173037,-1.28587 0.0926,-0.38339 0.183357,-0.76756 0.278077,-1.15094 0.16854,-0.68316 0.396346,-1.35255 0.548217,-2.03491 0.0249,-0.37624 -0.410898,-0.52255 -0.589756,-0.7792 -0.143669,-0.20558 -0.06879,-0.63341 -0.06879,-0.86545 0,-0.27649 -0.05054,-0.63209 0.03969,-0.89906 0.08176,-0.2413 0.35097,-0.56363 0.558006,-0.54266 0.157,0.0111 0.52096,0.0309 0.69453,0.11324 0.19129,0.0765 0.42227,0.11325 0.63367,0.13415 0.46197,0.046 0.91467,0.0312 1.37663,0.0976 l 0.0609,0.14605 c 0.47228,-0.11986 0.96678,-0.073 1.45679,-0.073 0.45985,0 0.91149,-0.0384 1.35811,0.073 -0.0167,-0.0325 -0.0206,-0.073 -0.0124,-0.12171 0.008,-0.0569 0.077,-0.0976 0.20664,-0.12197 l 0.2077,0.0368 c 0.0606,-0.0606 0.097,-0.30797 0.29611,-0.3165 0.32305,-0.0201 0.37538,0.0174 0.70996,0.0899 0.53089,0.1081 0.96078,0.1471 1.51042,0.27042 0.35388,0.0794 1.33727,0.39039 1.74758,0.61452 0.17859,-0.0529 0.25029,-0.0259 0.42703,0.0362"
       id="path1"
       style="stroke-width:0.264583"
       sodipodi:nodetypes="csssscccccccscsccsscccsccccccccsccccccsccccccscc" /></g></svg>
